M48
; DRILL file {KiCad 5.1.8-db9833491~88~ubuntu20.04.1} date Wed Dec  2 17:03:28 2020
; FORMAT={-:-/ absolute / inch / decimal}
; #@! TF.CreationDate,2020-12-02T17:03:28+01:00
; #@! TF.GenerationSoftware,Kicad,Pcbnew,5.1.8-db9833491~88~ubuntu20.04.1
FMAT,2
INCH
T1C0.0157
T2C0.0276
T3C0.0315
T4C0.0374
T5C0.0394
T6C0.0400
T7C0.0402
T8C0.0472
T9C0.0630
T10C0.1083
T11C0.1575
%
G90
G05
T1
X1.1856Y-4.3037
X1.4506Y-3.9737
X1.5006Y-3.8987
X1.5995Y-4.0179
X1.6706Y-4.5737
X1.7006Y-3.6987
X1.7256Y-3.7487
X1.8006Y-3.7792
X1.8874Y-3.8042
X1.9006Y-4.6737
X2.1756Y-4.1237
X2.2506Y-4.1237
X2.3756Y-4.5487
X2.5256Y-4.6237
X3.278Y-4.1237
X3.353Y-4.1237
X3.478Y-4.5487
X3.5006Y-3.2705
X3.6256Y-2.9737
X3.628Y-4.6237
X4.3803Y-4.1237
X4.4553Y-4.1237
X4.5803Y-4.5487
X4.6473Y-3.6269
X4.6657Y-3.5388
X4.7256Y-3.3987
X4.7303Y-4.6237
X4.8256Y-3.7487
X5.4827Y-4.1237
X5.5577Y-4.1237
X5.6827Y-4.5487
X5.8327Y-4.6237
X6.585Y-4.1237
X6.66Y-4.1237
X6.785Y-4.5487
X6.935Y-4.6237
X7.2886Y-2.6817
X7.3506Y-3.2737
X7.4256Y-3.8987
X7.6256Y-2.8237
X7.6874Y-4.1237
X7.7624Y-4.1237
X7.8631Y-3.0612
X7.8874Y-4.5487
X8.0374Y-4.6237
T2
X6.1969Y-6.326
X6.2969Y-6.326
X6.1969Y-9.2089
X6.2969Y-9.2089
X2.8898Y-9.2089
X2.9898Y-9.2089
X2.4519Y-6.9924
X2.5519Y-6.9924
X7.9637Y-6.9924
X8.0637Y-6.9924
X5.0945Y-9.0589
X5.1945Y-9.0589
X3.5543Y-7.1424
X3.6543Y-7.1424
X4.6567Y-4.4003
X4.7567Y-4.4003
X2.4519Y-4.4003
X2.5519Y-4.4003
X6.9114Y-9.5845
X7.0114Y-9.5845
X2.8898Y-9.3589
X2.9898Y-9.3589
X3.5543Y-4.1003
X3.6543Y-4.1003
X7.9637Y-4.4003
X8.0637Y-4.4003
X6.9114Y-9.8845
X7.0114Y-9.8845
X2.8898Y-6.626
X2.9898Y-6.626
X7.2993Y-9.3589
X7.3993Y-9.3589
X1.7874Y-6.326
X1.8874Y-6.326
X7.2993Y-6.626
X7.3993Y-6.626
X6.8614Y-4.4003
X6.9614Y-4.4003
X7.2993Y-6.326
X7.3993Y-6.326
X7.9637Y-4.1003
X8.0637Y-4.1003
X1.7874Y-6.626
X1.8874Y-6.626
X1.7874Y-9.0589
X1.8874Y-9.0589
X7.2993Y-9.0589
X7.3993Y-9.0589
X5.809Y-9.8845
X5.909Y-9.8845
X1.7874Y-9.2089
X1.8874Y-9.2089
X5.809Y-9.7345
X5.909Y-9.7345
X5.0945Y-9.2089
X5.1945Y-9.2089
X5.759Y-6.9924
X5.859Y-6.9924
X6.8614Y-4.1003
X6.9614Y-4.1003
X5.809Y-9.5845
X5.909Y-9.5845
X2.4519Y-6.8424
X2.5519Y-6.8424
X4.6567Y-4.1003
X4.7567Y-4.1003
X3.9922Y-6.476
X4.0922Y-6.476
X7.9637Y-4.2503
X8.0637Y-4.2503
X4.6567Y-6.8424
X4.7567Y-6.8424
X7.9637Y-7.1424
X8.0637Y-7.1424
X5.0945Y-6.326
X5.1945Y-6.326
X3.9922Y-9.2089
X4.0922Y-9.2089
X2.4519Y-7.1424
X2.5519Y-7.1424
X5.759Y-7.1424
X5.859Y-7.1424
X3.6043Y-9.5845
X3.7043Y-9.5845
X4.7067Y-9.5845
X4.8067Y-9.5845
X2.8898Y-6.476
X2.9898Y-6.476
X2.8898Y-9.0589
X2.9898Y-9.0589
X2.4519Y-4.2503
X2.5519Y-4.2503
X6.9114Y-9.7345
X7.0114Y-9.7345
X4.6567Y-6.9924
X4.7567Y-6.9924
X6.8614Y-6.8424
X6.9614Y-6.8424
X6.1969Y-6.476
X6.2969Y-6.476
X7.2993Y-6.476
X7.3993Y-6.476
X2.8898Y-6.326
X2.9898Y-6.326
X7.9637Y-6.8424
X8.0637Y-6.8424
X7.2993Y-9.2089
X7.3993Y-9.2089
X3.5543Y-6.8424
X3.6543Y-6.8424
X6.8614Y-7.1424
X6.9614Y-7.1424
X3.9922Y-9.0589
X4.0922Y-9.0589
X6.1969Y-9.0589
X6.2969Y-9.0589
X6.1969Y-9.3589
X6.2969Y-9.3589
X3.6043Y-9.8845
X3.7043Y-9.8845
X5.0945Y-6.476
X5.1945Y-6.476
X6.1969Y-6.626
X6.2969Y-6.626
X1.7874Y-6.476
X1.8874Y-6.476
X2.5019Y-9.5845
X2.6019Y-9.5845
X5.759Y-4.1003
X5.859Y-4.1003
X2.5019Y-9.7345
X2.6019Y-9.7345
X2.4519Y-4.1003
X2.5519Y-4.1003
X6.8614Y-4.2503
X6.9614Y-4.2503
X5.759Y-6.8424
X5.859Y-6.8424
X3.9922Y-6.326
X4.0922Y-6.326
X3.9922Y-9.3589
X4.0922Y-9.3589
X3.5543Y-4.2503
X3.6543Y-4.2503
X8.0137Y-9.8845
X8.1137Y-9.8845
X5.759Y-4.4003
X5.859Y-4.4003
X3.6043Y-9.7345
X3.7043Y-9.7345
X2.5019Y-9.8845
X2.6019Y-9.8845
X4.7067Y-9.8845
X4.8067Y-9.8845
X5.0945Y-9.3589
X5.1945Y-9.3589
X5.0945Y-6.626
X5.1945Y-6.626
X3.5543Y-6.9924
X3.6543Y-6.9924
X6.8614Y-6.9924
X6.9614Y-6.9924
X5.759Y-4.2503
X5.859Y-4.2503
X4.6567Y-4.2503
X4.7567Y-4.2503
X1.7874Y-9.3589
X1.8874Y-9.3589
X4.6567Y-7.1424
X4.7567Y-7.1424
X8.0137Y-9.5845
X8.1137Y-9.5845
X3.9922Y-6.626
X4.0922Y-6.626
X8.0137Y-9.7345
X8.1137Y-9.7345
X4.7067Y-9.7345
X4.8067Y-9.7345
X3.5543Y-4.4003
X3.6543Y-4.4003
T3
X1.5256Y-4.4237
X1.5256Y-4.7987
X1.6506Y-4.0987
X3.3006Y-3.6237
X3.6506Y-3.4487
X3.9974Y-2.9705
X4.5006Y-3.3237
X5.9506Y-2.7737
T4
X8.2506Y-3.0487
X8.2506Y-3.1471
X8.2506Y-3.2455
X8.2506Y-3.3439
X8.2506Y-3.4424
X6.9781Y-3.05
X7.0766Y-3.05
X7.175Y-3.05
X3.8006Y-2.7737
X3.8006Y-2.8721
X3.8006Y-2.9705
X3.8006Y-3.0689
X3.8006Y-3.1674
X7.4781Y-3.05
X7.5766Y-3.05
X7.675Y-3.05
T5
X6.9006Y-3.4752
X6.9006Y-3.5737
X8.2506Y-3.7487
X8.2506Y-3.8487
X3.6506Y-3.6237
X3.7506Y-3.6237
X3.8506Y-3.6237
X3.9506Y-3.6237
X4.0506Y-3.6237
X4.1506Y-3.6237
X4.2506Y-3.6237
X4.3506Y-3.6237
X4.4506Y-3.6237
X4.5506Y-3.6237
X7.3506Y-3.4752
X7.3506Y-3.5737
T6
X4.9459Y-5.6276
X4.9459Y-5.7276
X4.9459Y-5.8276
X4.9459Y-5.9276
X4.9459Y-6.0276
X4.9459Y-6.1276
X4.9459Y-6.2276
X4.9459Y-6.3276
X4.9459Y-6.4276
X4.9459Y-6.5276
X4.9459Y-6.6276
X5.8459Y-5.6276
X5.8459Y-5.7276
X5.8459Y-5.8276
X5.8459Y-5.9276
X5.8459Y-6.0276
X5.8459Y-6.1276
X5.8459Y-6.2276
X5.8459Y-6.3276
X5.8459Y-6.4276
X5.8459Y-6.5276
X5.8459Y-6.6276
X2.953Y-9.5829
X2.953Y-9.6829
X2.953Y-9.7829
X2.953Y-9.8829
X2.953Y-9.9829
X2.953Y-10.0829
X2.953Y-10.1829
X2.953Y-10.2829
X2.953Y-10.3829
X2.953Y-10.4829
X2.953Y-10.5829
X3.853Y-9.5829
X3.853Y-9.6829
X3.853Y-9.7829
X3.853Y-9.8829
X3.853Y-9.9829
X3.853Y-10.0829
X3.853Y-10.1829
X3.853Y-10.2829
X3.853Y-10.3829
X3.853Y-10.4829
X3.853Y-10.5829
X2.903Y-6.8408
X2.903Y-6.9408
X2.903Y-7.0408
X2.903Y-7.1408
X2.903Y-7.2408
X2.903Y-7.3408
X2.903Y-7.4408
X2.903Y-7.5408
X2.903Y-7.6408
X2.903Y-7.7408
X2.903Y-7.8408
X3.803Y-6.8408
X3.803Y-6.9408
X3.803Y-7.0408
X3.803Y-7.1408
X3.803Y-7.2408
X3.803Y-7.3408
X3.803Y-7.4408
X3.803Y-7.5408
X3.803Y-7.6408
X3.803Y-7.7408
X3.803Y-7.8408
X3.8435Y-5.6276
X3.8435Y-5.7276
X3.8435Y-5.8276
X3.8435Y-5.9276
X3.8435Y-6.0276
X3.8435Y-6.1276
X3.8435Y-6.2276
X3.8435Y-6.3276
X3.8435Y-6.4276
X3.8435Y-6.5276
X3.8435Y-6.6276
X4.7435Y-5.6276
X4.7435Y-5.7276
X4.7435Y-5.8276
X4.7435Y-5.9276
X4.7435Y-6.0276
X4.7435Y-6.1276
X4.7435Y-6.2276
X4.7435Y-6.3276
X4.7435Y-6.4276
X4.7435Y-6.5276
X4.7435Y-6.6276
X2.7411Y-8.3605
X2.7411Y-8.4605
X2.7411Y-8.5605
X2.7411Y-8.6605
X2.7411Y-8.7605
X2.7411Y-8.8605
X2.7411Y-8.9605
X2.7411Y-9.0605
X2.7411Y-9.1605
X2.7411Y-9.2605
X2.7411Y-9.3605
X3.6411Y-8.3605
X3.6411Y-8.4605
X3.6411Y-8.5605
X3.6411Y-8.6605
X3.6411Y-8.7605
X3.6411Y-8.8605
X3.6411Y-8.9605
X3.6411Y-9.0605
X3.6411Y-9.1605
X3.6411Y-9.2605
X3.6411Y-9.3605
X7.3624Y-9.5829
X7.3624Y-9.6829
X7.3624Y-9.7829
X7.3624Y-9.8829
X7.3624Y-9.9829
X7.3624Y-10.0829
X7.3624Y-10.1829
X7.3624Y-10.2829
X7.3624Y-10.3829
X7.3624Y-10.4829
X7.3624Y-10.5829
X8.2624Y-9.5829
X8.2624Y-9.6829
X8.2624Y-9.7829
X8.2624Y-9.8829
X8.2624Y-9.9829
X8.2624Y-10.0829
X8.2624Y-10.1829
X8.2624Y-10.2829
X8.2624Y-10.3829
X8.2624Y-10.4829
X8.2624Y-10.5829
X7.3124Y-4.0987
X7.3124Y-4.1987
X7.3124Y-4.2987
X7.3124Y-4.3987
X7.3124Y-4.4987
X7.3124Y-4.5987
X7.3124Y-4.6987
X7.3124Y-4.7987
X7.3124Y-4.8987
X7.3124Y-4.9987
X7.3124Y-5.0987
X8.2124Y-4.0987
X8.2124Y-4.1987
X8.2124Y-4.2987
X8.2124Y-4.3987
X8.2124Y-4.4987
X8.2124Y-4.5987
X8.2124Y-4.6987
X8.2124Y-4.7987
X8.2124Y-4.8987
X8.2124Y-4.9987
X8.2124Y-5.0987
X7.3124Y-6.8408
X7.3124Y-6.9408
X7.3124Y-7.0408
X7.3124Y-7.1408
X7.3124Y-7.2408
X7.3124Y-7.3408
X7.3124Y-7.4408
X7.3124Y-7.5408
X7.3124Y-7.6408
X7.3124Y-7.7408
X7.3124Y-7.8408
X8.2124Y-6.8408
X8.2124Y-6.9408
X8.2124Y-7.0408
X8.2124Y-7.1408
X8.2124Y-7.2408
X8.2124Y-7.3408
X8.2124Y-7.4408
X8.2124Y-7.5408
X8.2124Y-7.6408
X8.2124Y-7.7408
X8.2124Y-7.8408
X5.1077Y-6.8408
X5.1077Y-6.9408
X5.1077Y-7.0408
X5.1077Y-7.1408
X5.1077Y-7.2408
X5.1077Y-7.3408
X5.1077Y-7.4408
X5.1077Y-7.5408
X5.1077Y-7.6408
X5.1077Y-7.7408
X5.1077Y-7.8408
X6.0077Y-6.8408
X6.0077Y-6.9408
X6.0077Y-7.0408
X6.0077Y-7.1408
X6.0077Y-7.2408
X6.0077Y-7.3408
X6.0077Y-7.4408
X6.0077Y-7.5408
X6.0077Y-7.6408
X6.0077Y-7.7408
X6.0077Y-7.8408
X1.6388Y-8.3605
X1.6388Y-8.4605
X1.6388Y-8.5605
X1.6388Y-8.6605
X1.6388Y-8.7605
X1.6388Y-8.8605
X1.6388Y-8.9605
X1.6388Y-9.0605
X1.6388Y-9.1605
X1.6388Y-9.2605
X1.6388Y-9.3605
X2.5388Y-8.3605
X2.5388Y-8.4605
X2.5388Y-8.5605
X2.5388Y-8.6605
X2.5388Y-8.7605
X2.5388Y-8.8605
X2.5388Y-8.9605
X2.5388Y-9.0605
X2.5388Y-9.1605
X2.5388Y-9.2605
X2.5388Y-9.3605
X7.1506Y-8.3605
X7.1506Y-8.4605
X7.1506Y-8.5605
X7.1506Y-8.6605
X7.1506Y-8.7605
X7.1506Y-8.8605
X7.1506Y-8.9605
X7.1506Y-9.0605
X7.1506Y-9.1605
X7.1506Y-9.2605
X7.1506Y-9.3605
X8.0506Y-8.3605
X8.0506Y-8.4605
X8.0506Y-8.5605
X8.0506Y-8.6605
X8.0506Y-8.7605
X8.0506Y-8.8605
X8.0506Y-8.9605
X8.0506Y-9.0605
X8.0506Y-9.1605
X8.0506Y-9.2605
X8.0506Y-9.3605
X1.8006Y-4.0987
X1.8006Y-4.1987
X1.8006Y-4.2987
X1.8006Y-4.3987
X1.8006Y-4.4987
X1.8006Y-4.5987
X1.8006Y-4.6987
X1.8006Y-4.7987
X1.8006Y-4.8987
X1.8006Y-4.9987
X1.8006Y-5.0987
X2.7006Y-4.0987
X2.7006Y-4.1987
X2.7006Y-4.2987
X2.7006Y-4.3987
X2.7006Y-4.4987
X2.7006Y-4.5987
X2.7006Y-4.6987
X2.7006Y-4.7987
X2.7006Y-4.8987
X2.7006Y-4.9987
X2.7006Y-5.0987
X7.1506Y-5.6276
X7.1506Y-5.7276
X7.1506Y-5.8276
X7.1506Y-5.9276
X7.1506Y-6.0276
X7.1506Y-6.1276
X7.1506Y-6.2276
X7.1506Y-6.3276
X7.1506Y-6.4276
X7.1506Y-6.5276
X7.1506Y-6.6276
X8.0506Y-5.6276
X8.0506Y-5.7276
X8.0506Y-5.8276
X8.0506Y-5.9276
X8.0506Y-6.0276
X8.0506Y-6.1276
X8.0506Y-6.2276
X8.0506Y-6.3276
X8.0506Y-6.4276
X8.0506Y-6.5276
X8.0506Y-6.6276
X4.9459Y-8.3605
X4.9459Y-8.4605
X4.9459Y-8.5605
X4.9459Y-8.6605
X4.9459Y-8.7605
X4.9459Y-8.8605
X4.9459Y-8.9605
X4.9459Y-9.0605
X4.9459Y-9.1605
X4.9459Y-9.2605
X4.9459Y-9.3605
X5.8459Y-8.3605
X5.8459Y-8.4605
X5.8459Y-8.5605
X5.8459Y-8.6605
X5.8459Y-8.7605
X5.8459Y-8.8605
X5.8459Y-8.9605
X5.8459Y-9.0605
X5.8459Y-9.1605
X5.8459Y-9.2605
X5.8459Y-9.3605
X4.0053Y-6.8408
X4.0053Y-6.9408
X4.0053Y-7.0408
X4.0053Y-7.1408
X4.0053Y-7.2408
X4.0053Y-7.3408
X4.0053Y-7.4408
X4.0053Y-7.5408
X4.0053Y-7.6408
X4.0053Y-7.7408
X4.0053Y-7.8408
X4.9053Y-6.8408
X4.9053Y-6.9408
X4.9053Y-7.0408
X4.9053Y-7.1408
X4.9053Y-7.2408
X4.9053Y-7.3408
X4.9053Y-7.4408
X4.9053Y-7.5408
X4.9053Y-7.6408
X4.9053Y-7.7408
X4.9053Y-7.8408
X6.21Y-6.8408
X6.21Y-6.9408
X6.21Y-7.0408
X6.21Y-7.1408
X6.21Y-7.2408
X6.21Y-7.3408
X6.21Y-7.4408
X6.21Y-7.5408
X6.21Y-7.6408
X6.21Y-7.7408
X6.21Y-7.8408
X7.11Y-6.8408
X7.11Y-6.9408
X7.11Y-7.0408
X7.11Y-7.1408
X7.11Y-7.2408
X7.11Y-7.3408
X7.11Y-7.4408
X7.11Y-7.5408
X7.11Y-7.6408
X7.11Y-7.7408
X7.11Y-7.8408
X1.8506Y-9.5829
X1.8506Y-9.6829
X1.8506Y-9.7829
X1.8506Y-9.8829
X1.8506Y-9.9829
X1.8506Y-10.0829
X1.8506Y-10.1829
X1.8506Y-10.2829
X1.8506Y-10.3829
X1.8506Y-10.4829
X1.8506Y-10.5829
X2.7506Y-9.5829
X2.7506Y-9.6829
X2.7506Y-9.7829
X2.7506Y-9.8829
X2.7506Y-9.9829
X2.7506Y-10.0829
X2.7506Y-10.1829
X2.7506Y-10.2829
X2.7506Y-10.3829
X2.7506Y-10.4829
X2.7506Y-10.5829
X6.21Y-4.0987
X6.21Y-4.1987
X6.21Y-4.2987
X6.21Y-4.3987
X6.21Y-4.4987
X6.21Y-4.5987
X6.21Y-4.6987
X6.21Y-4.7987
X6.21Y-4.8987
X6.21Y-4.9987
X6.21Y-5.0987
X7.11Y-4.0987
X7.11Y-4.1987
X7.11Y-4.2987
X7.11Y-4.3987
X7.11Y-4.4987
X7.11Y-4.5987
X7.11Y-4.6987
X7.11Y-4.7987
X7.11Y-4.8987
X7.11Y-4.9987
X7.11Y-5.0987
X3.8435Y-8.3605
X3.8435Y-8.4605
X3.8435Y-8.5605
X3.8435Y-8.6605
X3.8435Y-8.7605
X3.8435Y-8.8605
X3.8435Y-8.9605
X3.8435Y-9.0605
X3.8435Y-9.1605
X3.8435Y-9.2605
X3.8435Y-9.3605
X4.7435Y-8.3605
X4.7435Y-8.4605
X4.7435Y-8.5605
X4.7435Y-8.6605
X4.7435Y-8.7605
X4.7435Y-8.8605
X4.7435Y-8.9605
X4.7435Y-9.0605
X4.7435Y-9.1605
X4.7435Y-9.2605
X4.7435Y-9.3605
X4.0553Y-9.5829
X4.0553Y-9.6829
X4.0553Y-9.7829
X4.0553Y-9.8829
X4.0553Y-9.9829
X4.0553Y-10.0829
X4.0553Y-10.1829
X4.0553Y-10.2829
X4.0553Y-10.3829
X4.0553Y-10.4829
X4.0553Y-10.5829
X4.9553Y-9.5829
X4.9553Y-9.6829
X4.9553Y-9.7829
X4.9553Y-9.8829
X4.9553Y-9.9829
X4.9553Y-10.0829
X4.9553Y-10.1829
X4.9553Y-10.2829
X4.9553Y-10.3829
X4.9553Y-10.4829
X4.9553Y-10.5829
X4.0053Y-4.0987
X4.0053Y-4.1987
X4.0053Y-4.2987
X4.0053Y-4.3987
X4.0053Y-4.4987
X4.0053Y-4.5987
X4.0053Y-4.6987
X4.0053Y-4.7987
X4.0053Y-4.8987
X4.0053Y-4.9987
X4.0053Y-5.0987
X4.9053Y-4.0987
X4.9053Y-4.1987
X4.9053Y-4.2987
X4.9053Y-4.3987
X4.9053Y-4.4987
X4.9053Y-4.5987
X4.9053Y-4.6987
X4.9053Y-4.7987
X4.9053Y-4.8987
X4.9053Y-4.9987
X4.9053Y-5.0987
X6.0482Y-5.6276
X6.0482Y-5.7276
X6.0482Y-5.8276
X6.0482Y-5.9276
X6.0482Y-6.0276
X6.0482Y-6.1276
X6.0482Y-6.2276
X6.0482Y-6.3276
X6.0482Y-6.4276
X6.0482Y-6.5276
X6.0482Y-6.6276
X6.9482Y-5.6276
X6.9482Y-5.7276
X6.9482Y-5.8276
X6.9482Y-5.9276
X6.9482Y-6.0276
X6.9482Y-6.1276
X6.9482Y-6.2276
X6.9482Y-6.3276
X6.9482Y-6.4276
X6.9482Y-6.5276
X6.9482Y-6.6276
X5.1077Y-4.0987
X5.1077Y-4.1987
X5.1077Y-4.2987
X5.1077Y-4.3987
X5.1077Y-4.4987
X5.1077Y-4.5987
X5.1077Y-4.6987
X5.1077Y-4.7987
X5.1077Y-4.8987
X5.1077Y-4.9987
X5.1077Y-5.0987
X6.0077Y-4.0987
X6.0077Y-4.1987
X6.0077Y-4.2987
X6.0077Y-4.3987
X6.0077Y-4.4987
X6.0077Y-4.5987
X6.0077Y-4.6987
X6.0077Y-4.7987
X6.0077Y-4.8987
X6.0077Y-4.9987
X6.0077Y-5.0987
X1.8006Y-6.8408
X1.8006Y-6.9408
X1.8006Y-7.0408
X1.8006Y-7.1408
X1.8006Y-7.2408
X1.8006Y-7.3408
X1.8006Y-7.4408
X1.8006Y-7.5408
X1.8006Y-7.6408
X1.8006Y-7.7408
X1.8006Y-7.8408
X2.7006Y-6.8408
X2.7006Y-6.9408
X2.7006Y-7.0408
X2.7006Y-7.1408
X2.7006Y-7.2408
X2.7006Y-7.3408
X2.7006Y-7.4408
X2.7006Y-7.5408
X2.7006Y-7.6408
X2.7006Y-7.7408
X2.7006Y-7.8408
X6.0482Y-8.3605
X6.0482Y-8.4605
X6.0482Y-8.5605
X6.0482Y-8.6605
X6.0482Y-8.7605
X6.0482Y-8.8605
X6.0482Y-8.9605
X6.0482Y-9.0605
X6.0482Y-9.1605
X6.0482Y-9.2605
X6.0482Y-9.3605
X6.9482Y-8.3605
X6.9482Y-8.4605
X6.9482Y-8.5605
X6.9482Y-8.6605
X6.9482Y-8.7605
X6.9482Y-8.8605
X6.9482Y-8.9605
X6.9482Y-9.0605
X6.9482Y-9.1605
X6.9482Y-9.2605
X6.9482Y-9.3605
X2.7411Y-5.6276
X2.7411Y-5.7276
X2.7411Y-5.8276
X2.7411Y-5.9276
X2.7411Y-6.0276
X2.7411Y-6.1276
X2.7411Y-6.2276
X2.7411Y-6.3276
X2.7411Y-6.4276
X2.7411Y-6.5276
X2.7411Y-6.6276
X3.6411Y-5.6276
X3.6411Y-5.7276
X3.6411Y-5.8276
X3.6411Y-5.9276
X3.6411Y-6.0276
X3.6411Y-6.1276
X3.6411Y-6.2276
X3.6411Y-6.3276
X3.6411Y-6.4276
X3.6411Y-6.5276
X3.6411Y-6.6276
X1.236Y-3.8674
X1.236Y-3.9674
X1.236Y-4.0674
X1.236Y-4.1674
X1.236Y-4.2674
X1.236Y-4.3674
X1.236Y-4.4674
X1.236Y-4.5674
X1.236Y-4.6674
X1.236Y-4.7674
X1.236Y-4.8674
X1.236Y-4.9674
X1.236Y-5.0674
X1.236Y-5.1674
X1.236Y-5.2674
X1.236Y-5.3674
X1.236Y-5.4674
X1.236Y-5.5674
X1.236Y-5.6674
X1.236Y-5.7674
X1.336Y-3.8674
X1.336Y-3.9674
X1.336Y-4.0674
X1.336Y-4.1674
X1.336Y-4.2674
X1.336Y-4.3674
X1.336Y-4.4674
X1.336Y-4.5674
X1.336Y-4.6674
X1.336Y-4.7674
X1.336Y-4.8674
X1.336Y-4.9674
X1.336Y-5.0674
X1.336Y-5.1674
X1.336Y-5.2674
X1.336Y-5.3674
X1.336Y-5.4674
X1.336Y-5.5674
X1.336Y-5.6674
X1.336Y-5.7674
X5.1577Y-9.5829
X5.1577Y-9.6829
X5.1577Y-9.7829
X5.1577Y-9.8829
X5.1577Y-9.9829
X5.1577Y-10.0829
X5.1577Y-10.1829
X5.1577Y-10.2829
X5.1577Y-10.3829
X5.1577Y-10.4829
X5.1577Y-10.5829
X6.0577Y-9.5829
X6.0577Y-9.6829
X6.0577Y-9.7829
X6.0577Y-9.8829
X6.0577Y-9.9829
X6.0577Y-10.0829
X6.0577Y-10.1829
X6.0577Y-10.2829
X6.0577Y-10.3829
X6.0577Y-10.4829
X6.0577Y-10.5829
X6.26Y-9.5829
X6.26Y-9.6829
X6.26Y-9.7829
X6.26Y-9.8829
X6.26Y-9.9829
X6.26Y-10.0829
X6.26Y-10.1829
X6.26Y-10.2829
X6.26Y-10.3829
X6.26Y-10.4829
X6.26Y-10.5829
X7.16Y-9.5829
X7.16Y-9.6829
X7.16Y-9.7829
X7.16Y-9.8829
X7.16Y-9.9829
X7.16Y-10.0829
X7.16Y-10.1829
X7.16Y-10.2829
X7.16Y-10.3829
X7.16Y-10.4829
X7.16Y-10.5829
X1.6388Y-5.6276
X1.6388Y-5.7276
X1.6388Y-5.8276
X1.6388Y-5.9276
X1.6388Y-6.0276
X1.6388Y-6.1276
X1.6388Y-6.2276
X1.6388Y-6.3276
X1.6388Y-6.4276
X1.6388Y-6.5276
X1.6388Y-6.6276
X2.5388Y-5.6276
X2.5388Y-5.7276
X2.5388Y-5.8276
X2.5388Y-5.9276
X2.5388Y-6.0276
X2.5388Y-6.1276
X2.5388Y-6.2276
X2.5388Y-6.3276
X2.5388Y-6.4276
X2.5388Y-6.5276
X2.5388Y-6.6276
X2.903Y-4.0987
X2.903Y-4.1987
X2.903Y-4.2987
X2.903Y-4.3987
X2.903Y-4.4987
X2.903Y-4.5987
X2.903Y-4.6987
X2.903Y-4.7987
X2.903Y-4.8987
X2.903Y-4.9987
X2.903Y-5.0987
X3.803Y-4.0987
X3.803Y-4.1987
X3.803Y-4.2987
X3.803Y-4.3987
X3.803Y-4.4987
X3.803Y-4.5987
X3.803Y-4.6987
X3.803Y-4.7987
X3.803Y-4.8987
X3.803Y-4.9987
X3.803Y-5.0987
T7
X5.5843Y-8.1144
X5.6843Y-8.1144
X5.7843Y-8.1144
X5.8843Y-8.1144
X7.274Y-5.3539
X7.374Y-5.3539
X7.474Y-5.3539
X7.574Y-5.3539
X5.0693Y-5.3539
X5.1693Y-5.3539
X5.2693Y-5.3539
X5.3693Y-5.3539
X7.789Y-5.3723
X7.889Y-5.3723
X7.989Y-5.3723
X8.089Y-5.3723
X5.6343Y-10.8566
X5.7343Y-10.8566
X5.8343Y-10.8566
X5.9343Y-10.8566
X3.3796Y-5.3723
X3.4796Y-5.3723
X3.5796Y-5.3723
X3.6796Y-5.3723
X2.8645Y-8.0868
X2.9645Y-8.0868
X3.0645Y-8.0868
X3.1645Y-8.0868
X6.1716Y-8.0868
X6.2716Y-8.0868
X6.3716Y-8.0868
X6.4716Y-8.0868
X4.5319Y-10.8566
X4.6319Y-10.8566
X4.7319Y-10.8566
X4.8319Y-10.8566
X1.7622Y-8.0868
X1.8622Y-8.0868
X1.9622Y-8.0868
X2.0622Y-8.0868
X7.274Y-8.0868
X7.374Y-8.0868
X7.474Y-8.0868
X7.574Y-8.0868
X7.839Y-10.8566
X7.939Y-10.8566
X8.039Y-10.8566
X8.139Y-10.8566
X5.0693Y-8.0868
X5.1693Y-8.0868
X5.2693Y-8.0868
X5.3693Y-8.0868
X2.2772Y-5.3723
X2.3772Y-5.3723
X2.4772Y-5.3723
X2.5772Y-5.3723
X6.7367Y-10.8566
X6.8367Y-10.8566
X6.9367Y-10.8566
X7.0367Y-10.8566
X6.6867Y-5.3723
X6.7867Y-5.3723
X6.8867Y-5.3723
X6.9867Y-5.3723
X2.3272Y-10.8566
X2.4272Y-10.8566
X2.5272Y-10.8566
X2.6272Y-10.8566
X6.1716Y-5.3539
X6.2716Y-5.3539
X6.3716Y-5.3539
X6.4716Y-5.3539
X4.4819Y-5.3723
X4.5819Y-5.3723
X4.6819Y-5.3723
X4.7819Y-5.3723
X2.2772Y-8.1144
X2.3772Y-8.1144
X2.4772Y-8.1144
X2.5772Y-8.1144
X1.7622Y-5.3539
X1.8622Y-5.3539
X1.9622Y-5.3539
X2.0622Y-5.3539
X5.5843Y-5.3723
X5.6843Y-5.3723
X5.7843Y-5.3723
X5.8843Y-5.3723
X3.4296Y-10.8566
X3.5296Y-10.8566
X3.6296Y-10.8566
X3.7296Y-10.8566
X7.789Y-8.1144
X7.889Y-8.1144
X7.989Y-8.1144
X8.089Y-8.1144
X3.3796Y-8.1144
X3.4796Y-8.1144
X3.5796Y-8.1144
X3.6796Y-8.1144
X6.6867Y-8.1144
X6.7867Y-8.1144
X6.8867Y-8.1144
X6.9867Y-8.1144
X3.9669Y-8.0868
X4.0669Y-8.0868
X4.1669Y-8.0868
X4.2669Y-8.0868
X3.9669Y-5.3539
X4.0669Y-5.3539
X4.1669Y-5.3539
X4.2669Y-5.3539
X2.8645Y-5.3539
X2.9645Y-5.3539
X3.0645Y-5.3539
X3.1645Y-5.3539
X4.4819Y-8.1144
X4.5819Y-8.1144
X4.6819Y-8.1144
X4.7819Y-8.1144
T8
X1.4256Y-5.1237
X3.0006Y-4.1237
X4.1006Y-4.1237
X5.2006Y-4.1237
X6.3006Y-4.1237
X7.4006Y-4.1237
X5.2006Y-2.8737
X5.2006Y-3.6737
X5.5006Y-2.8737
X5.5006Y-3.6737
X5.8006Y-2.8737
X5.8006Y-3.6737
T9
X1.3506Y-6.3487
X2.0006Y-10.7487
X2.1506Y-5.0237
X2.1506Y-7.7658
X2.1888Y-5.7026
X2.1888Y-8.4355
X2.2006Y-10.5079
X2.8506Y-11.0737
X3.1006Y-10.6987
X3.253Y-5.0237
X3.253Y-7.7658
X3.2911Y-5.7026
X3.2911Y-8.4355
X3.303Y-10.5079
X4.2006Y-10.7487
X4.3553Y-5.0237
X4.3553Y-7.7658
X4.3756Y-2.8237
X4.3935Y-5.7026
X4.3935Y-8.4355
X4.4006Y-11.2237
X4.4053Y-10.5079
X5.3006Y-10.7487
X5.4577Y-5.0237
X5.4577Y-7.7658
X5.4959Y-5.7026
X5.4959Y-8.4355
X5.5006Y-11.2237
X5.5077Y-10.5079
X6.4006Y-10.7487
X6.56Y-5.0237
X6.56Y-7.7658
X6.5982Y-5.7026
X6.5982Y-8.4355
X6.6006Y-11.2237
X6.61Y-10.5079
X6.7006Y-2.8487
X7.4506Y-3.6987
X7.6624Y-5.0237
X7.6624Y-7.7658
X7.7006Y-5.7026
X7.7006Y-8.4355
X7.7006Y-11.2237
X7.7124Y-10.5079
X8.0506Y-2.7737
X8.0506Y-3.8987
X8.1506Y-5.5237
X8.2006Y-8.7987
X8.2256Y-6.0487
X8.2256Y-6.5237
X8.2756Y-9.4237
X8.5506Y-2.9737
X8.5506Y-3.8987
X8.5506Y-5.5237
X8.5506Y-6.0487
X8.5506Y-6.5237
X8.5506Y-8.7987
X8.5506Y-9.4237
X6.3587Y-3.1585
X6.3587Y-3.6888
X6.4925Y-3.1585
X6.4925Y-3.6888
T10
X1.7726Y-10.8978
X1.286Y-3.6756
X1.286Y-5.9591
X8.3506Y-2.7728
X7.5756Y-10.7737
T11
X4.286Y-3.1237
X4.7152Y-3.1237
T2
G00X4.1285Y-2.793
M15
G01X4.1285Y-2.7536
M16
G05
G00X4.8726Y-2.793
M15
G01X4.8726Y-2.7536
M16
G05
T0
M30
