%TF.GenerationSoftware,KiCad,Pcbnew,5.1.8-db9833491~88~ubuntu20.04.1*%
%TF.CreationDate,2020-12-02T17:03:32+01:00*%
%TF.ProjectId,motherboard,6d6f7468-6572-4626-9f61-72642e6b6963,rev?*%
%TF.SameCoordinates,Original*%
%TF.FileFunction,Soldermask,Top*%
%TF.FilePolarity,Negative*%
%FSLAX46Y46*%
G04 Gerber Fmt 4.6, Leading zero omitted, Abs format (unit mm)*
G04 Created by KiCad (PCBNEW 5.1.8-db9833491~88~ubuntu20.04.1) date 2020-12-02 17:03:32*
%MOMM*%
%LPD*%
G01*
G04 APERTURE LIST*
%ADD10C,3.500000*%
%ADD11R,2.200000X3.800000*%
%ADD12R,2.200000X1.500000*%
%ADD13C,1.524000*%
%ADD14C,6.200000*%
%ADD15R,1.524000X1.524000*%
%ADD16O,1.400000X3.400000*%
%ADD17C,8.000000*%
%ADD18O,1.700000X1.700000*%
%ADD19R,1.700000X1.700000*%
%ADD20R,1.800000X2.500000*%
%ADD21R,0.900000X1.200000*%
%ADD22R,6.400000X5.800000*%
%ADD23R,2.200000X1.200000*%
%ADD24O,2.000000X1.700000*%
%ADD25O,1.950000X1.700000*%
%ADD26C,2.020000*%
%ADD27O,1.400000X1.400000*%
%ADD28C,1.400000*%
%ADD29O,1.700000X1.950000*%
%ADD30C,2.400000*%
G04 APERTURE END LIST*
D10*
%TO.C,U33*%
X147335000Y-93311000D03*
X147335000Y-72991000D03*
X132095000Y-72991000D03*
X132095000Y-93311000D03*
X139715000Y-93311000D03*
X139715000Y-72991000D03*
%TD*%
D11*
%TO.C,U31*%
X165979000Y-70451000D03*
D12*
X159679000Y-68151000D03*
X159679000Y-70451000D03*
X159679000Y-72751000D03*
%TD*%
%TO.C,R93*%
G36*
G01*
X135505000Y-97940998D02*
X135505000Y-98841002D01*
G75*
G02*
X135255002Y-99091000I-249998J0D01*
G01*
X134729998Y-99091000D01*
G75*
G02*
X134480000Y-98841002I0J249998D01*
G01*
X134480000Y-97940998D01*
G75*
G02*
X134729998Y-97691000I249998J0D01*
G01*
X135255002Y-97691000D01*
G75*
G02*
X135505000Y-97940998I0J-249998D01*
G01*
G37*
G36*
G01*
X137330000Y-97940998D02*
X137330000Y-98841002D01*
G75*
G02*
X137080002Y-99091000I-249998J0D01*
G01*
X136554998Y-99091000D01*
G75*
G02*
X136305000Y-98841002I0J249998D01*
G01*
X136305000Y-97940998D01*
G75*
G02*
X136554998Y-97691000I249998J0D01*
G01*
X137080002Y-97691000D01*
G75*
G02*
X137330000Y-97940998I0J-249998D01*
G01*
G37*
%TD*%
%TO.C,C2*%
G36*
G01*
X157208000Y-68731000D02*
X156258000Y-68731000D01*
G75*
G02*
X156008000Y-68481000I0J250000D01*
G01*
X156008000Y-67981000D01*
G75*
G02*
X156258000Y-67731000I250000J0D01*
G01*
X157208000Y-67731000D01*
G75*
G02*
X157458000Y-67981000I0J-250000D01*
G01*
X157458000Y-68481000D01*
G75*
G02*
X157208000Y-68731000I-250000J0D01*
G01*
G37*
G36*
G01*
X157208000Y-70631000D02*
X156258000Y-70631000D01*
G75*
G02*
X156008000Y-70381000I0J250000D01*
G01*
X156008000Y-69881000D01*
G75*
G02*
X156258000Y-69631000I250000J0D01*
G01*
X157208000Y-69631000D01*
G75*
G02*
X157458000Y-69881000I0J-250000D01*
G01*
X157458000Y-70381000D01*
G75*
G02*
X157208000Y-70631000I-250000J0D01*
G01*
G37*
%TD*%
%TO.C,C1*%
G36*
G01*
X154160000Y-71271000D02*
X153210000Y-71271000D01*
G75*
G02*
X152960000Y-71021000I0J250000D01*
G01*
X152960000Y-70521000D01*
G75*
G02*
X153210000Y-70271000I250000J0D01*
G01*
X154160000Y-70271000D01*
G75*
G02*
X154410000Y-70521000I0J-250000D01*
G01*
X154410000Y-71021000D01*
G75*
G02*
X154160000Y-71271000I-250000J0D01*
G01*
G37*
G36*
G01*
X154160000Y-73171000D02*
X153210000Y-73171000D01*
G75*
G02*
X152960000Y-72921000I0J250000D01*
G01*
X152960000Y-72421000D01*
G75*
G02*
X153210000Y-72171000I250000J0D01*
G01*
X154160000Y-72171000D01*
G75*
G02*
X154410000Y-72421000I0J-250000D01*
G01*
X154410000Y-72921000D01*
G75*
G02*
X154160000Y-73171000I-250000J0D01*
G01*
G37*
%TD*%
D13*
%TO.C,U9*%
X176485000Y-150561000D03*
X176485000Y-148021000D03*
X176485000Y-145481000D03*
X176485000Y-142941000D03*
X176485000Y-153101000D03*
X176485000Y-155641000D03*
X176485000Y-158181000D03*
X176485000Y-160721000D03*
X176485000Y-163261000D03*
X176485000Y-165801000D03*
X176485000Y-168341000D03*
X153625000Y-142941000D03*
X153625000Y-145481000D03*
X153625000Y-148021000D03*
X153625000Y-150561000D03*
X153625000Y-153101000D03*
X153625000Y-155641000D03*
X153625000Y-158181000D03*
X153625000Y-160721000D03*
X153625000Y-163261000D03*
X153625000Y-165801000D03*
X153625000Y-168341000D03*
%TD*%
%TO.C,U7*%
X185735000Y-121886000D03*
X185735000Y-124426000D03*
X185735000Y-126966000D03*
X185735000Y-129506000D03*
X185735000Y-119346000D03*
X185735000Y-116806000D03*
X185735000Y-114266000D03*
X185735000Y-111726000D03*
X185735000Y-109186000D03*
X185735000Y-106646000D03*
X185735000Y-104106000D03*
X208595000Y-129506000D03*
X208595000Y-126966000D03*
X208595000Y-124426000D03*
X208595000Y-121886000D03*
X208595000Y-119346000D03*
X208595000Y-116806000D03*
X208595000Y-114266000D03*
X208595000Y-111726000D03*
X208595000Y-109186000D03*
X208595000Y-106646000D03*
X208595000Y-104106000D03*
%TD*%
%TO.C,U8*%
X204485000Y-150561000D03*
X204485000Y-148021000D03*
X204485000Y-145481000D03*
X204485000Y-142941000D03*
X204485000Y-153101000D03*
X204485000Y-155641000D03*
X204485000Y-158181000D03*
X204485000Y-160721000D03*
X204485000Y-163261000D03*
X204485000Y-165801000D03*
X204485000Y-168341000D03*
X181625000Y-142941000D03*
X181625000Y-145481000D03*
X181625000Y-148021000D03*
X181625000Y-150561000D03*
X181625000Y-153101000D03*
X181625000Y-155641000D03*
X181625000Y-158181000D03*
X181625000Y-160721000D03*
X181625000Y-163261000D03*
X181625000Y-165801000D03*
X181625000Y-168341000D03*
%TD*%
%TO.C,U11*%
X120485000Y-150561000D03*
X120485000Y-148021000D03*
X120485000Y-145481000D03*
X120485000Y-142941000D03*
X120485000Y-153101000D03*
X120485000Y-155641000D03*
X120485000Y-158181000D03*
X120485000Y-160721000D03*
X120485000Y-163261000D03*
X120485000Y-165801000D03*
X120485000Y-168341000D03*
X97625000Y-142941000D03*
X97625000Y-145481000D03*
X97625000Y-148021000D03*
X97625000Y-150561000D03*
X97625000Y-153101000D03*
X97625000Y-155641000D03*
X97625000Y-158181000D03*
X97625000Y-160721000D03*
X97625000Y-163261000D03*
X97625000Y-165801000D03*
X97625000Y-168341000D03*
%TD*%
%TO.C,U19*%
X185735000Y-191536000D03*
X185735000Y-194076000D03*
X185735000Y-196616000D03*
X185735000Y-199156000D03*
X185735000Y-188996000D03*
X185735000Y-186456000D03*
X185735000Y-183916000D03*
X185735000Y-181376000D03*
X185735000Y-178836000D03*
X185735000Y-176296000D03*
X185735000Y-173756000D03*
X208595000Y-199156000D03*
X208595000Y-196616000D03*
X208595000Y-194076000D03*
X208595000Y-191536000D03*
X208595000Y-188996000D03*
X208595000Y-186456000D03*
X208595000Y-183916000D03*
X208595000Y-181376000D03*
X208595000Y-178836000D03*
X208595000Y-176296000D03*
X208595000Y-173756000D03*
%TD*%
%TO.C,U18*%
X157735000Y-191536000D03*
X157735000Y-194076000D03*
X157735000Y-196616000D03*
X157735000Y-199156000D03*
X157735000Y-188996000D03*
X157735000Y-186456000D03*
X157735000Y-183916000D03*
X157735000Y-181376000D03*
X157735000Y-178836000D03*
X157735000Y-176296000D03*
X157735000Y-173756000D03*
X180595000Y-199156000D03*
X180595000Y-196616000D03*
X180595000Y-194076000D03*
X180595000Y-191536000D03*
X180595000Y-188996000D03*
X180595000Y-186456000D03*
X180595000Y-183916000D03*
X180595000Y-181376000D03*
X180595000Y-178836000D03*
X180595000Y-176296000D03*
X180595000Y-173756000D03*
%TD*%
%TO.C,U17*%
X129735000Y-191536000D03*
X129735000Y-194076000D03*
X129735000Y-196616000D03*
X129735000Y-199156000D03*
X129735000Y-188996000D03*
X129735000Y-186456000D03*
X129735000Y-183916000D03*
X129735000Y-181376000D03*
X129735000Y-178836000D03*
X129735000Y-176296000D03*
X129735000Y-173756000D03*
X152595000Y-199156000D03*
X152595000Y-196616000D03*
X152595000Y-194076000D03*
X152595000Y-191536000D03*
X152595000Y-188996000D03*
X152595000Y-186456000D03*
X152595000Y-183916000D03*
X152595000Y-181376000D03*
X152595000Y-178836000D03*
X152595000Y-176296000D03*
X152595000Y-173756000D03*
%TD*%
%TO.C,U22*%
X148485000Y-219976000D03*
X148485000Y-217436000D03*
X148485000Y-214896000D03*
X148485000Y-212356000D03*
X148485000Y-222516000D03*
X148485000Y-225056000D03*
X148485000Y-227596000D03*
X148485000Y-230136000D03*
X148485000Y-232676000D03*
X148485000Y-235216000D03*
X148485000Y-237756000D03*
X125625000Y-212356000D03*
X125625000Y-214896000D03*
X125625000Y-217436000D03*
X125625000Y-219976000D03*
X125625000Y-222516000D03*
X125625000Y-225056000D03*
X125625000Y-227596000D03*
X125625000Y-230136000D03*
X125625000Y-232676000D03*
X125625000Y-235216000D03*
X125625000Y-237756000D03*
%TD*%
%TO.C,U24*%
X92485000Y-219976000D03*
X92485000Y-217436000D03*
X92485000Y-214896000D03*
X92485000Y-212356000D03*
X92485000Y-222516000D03*
X92485000Y-225056000D03*
X92485000Y-227596000D03*
X92485000Y-230136000D03*
X92485000Y-232676000D03*
X92485000Y-235216000D03*
X92485000Y-237756000D03*
X69625000Y-212356000D03*
X69625000Y-214896000D03*
X69625000Y-217436000D03*
X69625000Y-219976000D03*
X69625000Y-222516000D03*
X69625000Y-225056000D03*
X69625000Y-227596000D03*
X69625000Y-230136000D03*
X69625000Y-232676000D03*
X69625000Y-235216000D03*
X69625000Y-237756000D03*
%TD*%
%TO.C,U23*%
X120485000Y-219976000D03*
X120485000Y-217436000D03*
X120485000Y-214896000D03*
X120485000Y-212356000D03*
X120485000Y-222516000D03*
X120485000Y-225056000D03*
X120485000Y-227596000D03*
X120485000Y-230136000D03*
X120485000Y-232676000D03*
X120485000Y-235216000D03*
X120485000Y-237756000D03*
X97625000Y-212356000D03*
X97625000Y-214896000D03*
X97625000Y-217436000D03*
X97625000Y-219976000D03*
X97625000Y-222516000D03*
X97625000Y-225056000D03*
X97625000Y-227596000D03*
X97625000Y-230136000D03*
X97625000Y-232676000D03*
X97625000Y-235216000D03*
X97625000Y-237756000D03*
%TD*%
%TO.C,U30*%
X159005000Y-261186000D03*
X159005000Y-263726000D03*
X159005000Y-266266000D03*
X159005000Y-268806000D03*
X159005000Y-258646000D03*
X159005000Y-256106000D03*
X159005000Y-253566000D03*
X159005000Y-251026000D03*
X159005000Y-248486000D03*
X159005000Y-245946000D03*
X159005000Y-243406000D03*
X181865000Y-268806000D03*
X181865000Y-266266000D03*
X181865000Y-263726000D03*
X181865000Y-261186000D03*
X181865000Y-258646000D03*
X181865000Y-256106000D03*
X181865000Y-253566000D03*
X181865000Y-251026000D03*
X181865000Y-248486000D03*
X181865000Y-245946000D03*
X181865000Y-243406000D03*
%TD*%
%TO.C,U29*%
X131005000Y-261186000D03*
X131005000Y-263726000D03*
X131005000Y-266266000D03*
X131005000Y-268806000D03*
X131005000Y-258646000D03*
X131005000Y-256106000D03*
X131005000Y-253566000D03*
X131005000Y-251026000D03*
X131005000Y-248486000D03*
X131005000Y-245946000D03*
X131005000Y-243406000D03*
X153865000Y-268806000D03*
X153865000Y-266266000D03*
X153865000Y-263726000D03*
X153865000Y-261186000D03*
X153865000Y-258646000D03*
X153865000Y-256106000D03*
X153865000Y-253566000D03*
X153865000Y-251026000D03*
X153865000Y-248486000D03*
X153865000Y-245946000D03*
X153865000Y-243406000D03*
%TD*%
%TO.C,U25*%
X64485000Y-219976000D03*
X64485000Y-217436000D03*
X64485000Y-214896000D03*
X64485000Y-212356000D03*
X64485000Y-222516000D03*
X64485000Y-225056000D03*
X64485000Y-227596000D03*
X64485000Y-230136000D03*
X64485000Y-232676000D03*
X64485000Y-235216000D03*
X64485000Y-237756000D03*
X41625000Y-212356000D03*
X41625000Y-214896000D03*
X41625000Y-217436000D03*
X41625000Y-219976000D03*
X41625000Y-222516000D03*
X41625000Y-225056000D03*
X41625000Y-227596000D03*
X41625000Y-230136000D03*
X41625000Y-232676000D03*
X41625000Y-235216000D03*
X41625000Y-237756000D03*
%TD*%
%TO.C,U2*%
X45735000Y-121886000D03*
X45735000Y-124426000D03*
X45735000Y-126966000D03*
X45735000Y-129506000D03*
X45735000Y-119346000D03*
X45735000Y-116806000D03*
X45735000Y-114266000D03*
X45735000Y-111726000D03*
X45735000Y-109186000D03*
X45735000Y-106646000D03*
X45735000Y-104106000D03*
X68595000Y-129506000D03*
X68595000Y-126966000D03*
X68595000Y-124426000D03*
X68595000Y-121886000D03*
X68595000Y-119346000D03*
X68595000Y-116806000D03*
X68595000Y-114266000D03*
X68595000Y-111726000D03*
X68595000Y-109186000D03*
X68595000Y-106646000D03*
X68595000Y-104106000D03*
%TD*%
%TO.C,U32*%
X187005000Y-261186000D03*
X187005000Y-263726000D03*
X187005000Y-266266000D03*
X187005000Y-268806000D03*
X187005000Y-258646000D03*
X187005000Y-256106000D03*
X187005000Y-253566000D03*
X187005000Y-251026000D03*
X187005000Y-248486000D03*
X187005000Y-245946000D03*
X187005000Y-243406000D03*
X209865000Y-268806000D03*
X209865000Y-266266000D03*
X209865000Y-263726000D03*
X209865000Y-261186000D03*
X209865000Y-258646000D03*
X209865000Y-256106000D03*
X209865000Y-253566000D03*
X209865000Y-251026000D03*
X209865000Y-248486000D03*
X209865000Y-245946000D03*
X209865000Y-243406000D03*
%TD*%
%TO.C,U28*%
X103005000Y-261186000D03*
X103005000Y-263726000D03*
X103005000Y-266266000D03*
X103005000Y-268806000D03*
X103005000Y-258646000D03*
X103005000Y-256106000D03*
X103005000Y-253566000D03*
X103005000Y-251026000D03*
X103005000Y-248486000D03*
X103005000Y-245946000D03*
X103005000Y-243406000D03*
X125865000Y-268806000D03*
X125865000Y-266266000D03*
X125865000Y-263726000D03*
X125865000Y-261186000D03*
X125865000Y-258646000D03*
X125865000Y-256106000D03*
X125865000Y-253566000D03*
X125865000Y-251026000D03*
X125865000Y-248486000D03*
X125865000Y-245946000D03*
X125865000Y-243406000D03*
%TD*%
%TO.C,U27*%
X75005000Y-261186000D03*
X75005000Y-263726000D03*
X75005000Y-266266000D03*
X75005000Y-268806000D03*
X75005000Y-258646000D03*
X75005000Y-256106000D03*
X75005000Y-253566000D03*
X75005000Y-251026000D03*
X75005000Y-248486000D03*
X75005000Y-245946000D03*
X75005000Y-243406000D03*
X97865000Y-268806000D03*
X97865000Y-266266000D03*
X97865000Y-263726000D03*
X97865000Y-261186000D03*
X97865000Y-258646000D03*
X97865000Y-256106000D03*
X97865000Y-253566000D03*
X97865000Y-251026000D03*
X97865000Y-248486000D03*
X97865000Y-245946000D03*
X97865000Y-243406000D03*
%TD*%
%TO.C,U26*%
X47005000Y-261186000D03*
X47005000Y-263726000D03*
X47005000Y-266266000D03*
X47005000Y-268806000D03*
X47005000Y-258646000D03*
X47005000Y-256106000D03*
X47005000Y-253566000D03*
X47005000Y-251026000D03*
X47005000Y-248486000D03*
X47005000Y-245946000D03*
X47005000Y-243406000D03*
X69865000Y-268806000D03*
X69865000Y-266266000D03*
X69865000Y-263726000D03*
X69865000Y-261186000D03*
X69865000Y-258646000D03*
X69865000Y-256106000D03*
X69865000Y-253566000D03*
X69865000Y-251026000D03*
X69865000Y-248486000D03*
X69865000Y-245946000D03*
X69865000Y-243406000D03*
%TD*%
%TO.C,U21*%
X176485000Y-219976000D03*
X176485000Y-217436000D03*
X176485000Y-214896000D03*
X176485000Y-212356000D03*
X176485000Y-222516000D03*
X176485000Y-225056000D03*
X176485000Y-227596000D03*
X176485000Y-230136000D03*
X176485000Y-232676000D03*
X176485000Y-235216000D03*
X176485000Y-237756000D03*
X153625000Y-212356000D03*
X153625000Y-214896000D03*
X153625000Y-217436000D03*
X153625000Y-219976000D03*
X153625000Y-222516000D03*
X153625000Y-225056000D03*
X153625000Y-227596000D03*
X153625000Y-230136000D03*
X153625000Y-232676000D03*
X153625000Y-235216000D03*
X153625000Y-237756000D03*
%TD*%
%TO.C,U20*%
X204485000Y-219976000D03*
X204485000Y-217436000D03*
X204485000Y-214896000D03*
X204485000Y-212356000D03*
X204485000Y-222516000D03*
X204485000Y-225056000D03*
X204485000Y-227596000D03*
X204485000Y-230136000D03*
X204485000Y-232676000D03*
X204485000Y-235216000D03*
X204485000Y-237756000D03*
X181625000Y-212356000D03*
X181625000Y-214896000D03*
X181625000Y-217436000D03*
X181625000Y-219976000D03*
X181625000Y-222516000D03*
X181625000Y-225056000D03*
X181625000Y-227596000D03*
X181625000Y-230136000D03*
X181625000Y-232676000D03*
X181625000Y-235216000D03*
X181625000Y-237756000D03*
%TD*%
%TO.C,U16*%
X101735000Y-191536000D03*
X101735000Y-194076000D03*
X101735000Y-196616000D03*
X101735000Y-199156000D03*
X101735000Y-188996000D03*
X101735000Y-186456000D03*
X101735000Y-183916000D03*
X101735000Y-181376000D03*
X101735000Y-178836000D03*
X101735000Y-176296000D03*
X101735000Y-173756000D03*
X124595000Y-199156000D03*
X124595000Y-196616000D03*
X124595000Y-194076000D03*
X124595000Y-191536000D03*
X124595000Y-188996000D03*
X124595000Y-186456000D03*
X124595000Y-183916000D03*
X124595000Y-181376000D03*
X124595000Y-178836000D03*
X124595000Y-176296000D03*
X124595000Y-173756000D03*
%TD*%
%TO.C,U15*%
X73735000Y-191536000D03*
X73735000Y-194076000D03*
X73735000Y-196616000D03*
X73735000Y-199156000D03*
X73735000Y-188996000D03*
X73735000Y-186456000D03*
X73735000Y-183916000D03*
X73735000Y-181376000D03*
X73735000Y-178836000D03*
X73735000Y-176296000D03*
X73735000Y-173756000D03*
X96595000Y-199156000D03*
X96595000Y-196616000D03*
X96595000Y-194076000D03*
X96595000Y-191536000D03*
X96595000Y-188996000D03*
X96595000Y-186456000D03*
X96595000Y-183916000D03*
X96595000Y-181376000D03*
X96595000Y-178836000D03*
X96595000Y-176296000D03*
X96595000Y-173756000D03*
%TD*%
%TO.C,U14*%
X45735000Y-191536000D03*
X45735000Y-194076000D03*
X45735000Y-196616000D03*
X45735000Y-199156000D03*
X45735000Y-188996000D03*
X45735000Y-186456000D03*
X45735000Y-183916000D03*
X45735000Y-181376000D03*
X45735000Y-178836000D03*
X45735000Y-176296000D03*
X45735000Y-173756000D03*
X68595000Y-199156000D03*
X68595000Y-196616000D03*
X68595000Y-194076000D03*
X68595000Y-191536000D03*
X68595000Y-188996000D03*
X68595000Y-186456000D03*
X68595000Y-183916000D03*
X68595000Y-181376000D03*
X68595000Y-178836000D03*
X68595000Y-176296000D03*
X68595000Y-173756000D03*
%TD*%
%TO.C,U13*%
X64485000Y-150561000D03*
X64485000Y-148021000D03*
X64485000Y-145481000D03*
X64485000Y-142941000D03*
X64485000Y-153101000D03*
X64485000Y-155641000D03*
X64485000Y-158181000D03*
X64485000Y-160721000D03*
X64485000Y-163261000D03*
X64485000Y-165801000D03*
X64485000Y-168341000D03*
X41625000Y-142941000D03*
X41625000Y-145481000D03*
X41625000Y-148021000D03*
X41625000Y-150561000D03*
X41625000Y-153101000D03*
X41625000Y-155641000D03*
X41625000Y-158181000D03*
X41625000Y-160721000D03*
X41625000Y-163261000D03*
X41625000Y-165801000D03*
X41625000Y-168341000D03*
%TD*%
%TO.C,U12*%
X92485000Y-150561000D03*
X92485000Y-148021000D03*
X92485000Y-145481000D03*
X92485000Y-142941000D03*
X92485000Y-153101000D03*
X92485000Y-155641000D03*
X92485000Y-158181000D03*
X92485000Y-160721000D03*
X92485000Y-163261000D03*
X92485000Y-165801000D03*
X92485000Y-168341000D03*
X69625000Y-142941000D03*
X69625000Y-145481000D03*
X69625000Y-148021000D03*
X69625000Y-150561000D03*
X69625000Y-153101000D03*
X69625000Y-155641000D03*
X69625000Y-158181000D03*
X69625000Y-160721000D03*
X69625000Y-163261000D03*
X69625000Y-165801000D03*
X69625000Y-168341000D03*
%TD*%
%TO.C,U10*%
X148485000Y-150561000D03*
X148485000Y-148021000D03*
X148485000Y-145481000D03*
X148485000Y-142941000D03*
X148485000Y-153101000D03*
X148485000Y-155641000D03*
X148485000Y-158181000D03*
X148485000Y-160721000D03*
X148485000Y-163261000D03*
X148485000Y-165801000D03*
X148485000Y-168341000D03*
X125625000Y-142941000D03*
X125625000Y-145481000D03*
X125625000Y-148021000D03*
X125625000Y-150561000D03*
X125625000Y-153101000D03*
X125625000Y-155641000D03*
X125625000Y-158181000D03*
X125625000Y-160721000D03*
X125625000Y-163261000D03*
X125625000Y-165801000D03*
X125625000Y-168341000D03*
%TD*%
%TO.C,U6*%
X157735000Y-121886000D03*
X157735000Y-124426000D03*
X157735000Y-126966000D03*
X157735000Y-129506000D03*
X157735000Y-119346000D03*
X157735000Y-116806000D03*
X157735000Y-114266000D03*
X157735000Y-111726000D03*
X157735000Y-109186000D03*
X157735000Y-106646000D03*
X157735000Y-104106000D03*
X180595000Y-129506000D03*
X180595000Y-126966000D03*
X180595000Y-124426000D03*
X180595000Y-121886000D03*
X180595000Y-119346000D03*
X180595000Y-116806000D03*
X180595000Y-114266000D03*
X180595000Y-111726000D03*
X180595000Y-109186000D03*
X180595000Y-106646000D03*
X180595000Y-104106000D03*
%TD*%
%TO.C,U5*%
X129735000Y-121886000D03*
X129735000Y-124426000D03*
X129735000Y-126966000D03*
X129735000Y-129506000D03*
X129735000Y-119346000D03*
X129735000Y-116806000D03*
X129735000Y-114266000D03*
X129735000Y-111726000D03*
X129735000Y-109186000D03*
X129735000Y-106646000D03*
X129735000Y-104106000D03*
X152595000Y-129506000D03*
X152595000Y-126966000D03*
X152595000Y-124426000D03*
X152595000Y-121886000D03*
X152595000Y-119346000D03*
X152595000Y-116806000D03*
X152595000Y-114266000D03*
X152595000Y-111726000D03*
X152595000Y-109186000D03*
X152595000Y-106646000D03*
X152595000Y-104106000D03*
%TD*%
%TO.C,U4*%
X101735000Y-121886000D03*
X101735000Y-124426000D03*
X101735000Y-126966000D03*
X101735000Y-129506000D03*
X101735000Y-119346000D03*
X101735000Y-116806000D03*
X101735000Y-114266000D03*
X101735000Y-111726000D03*
X101735000Y-109186000D03*
X101735000Y-106646000D03*
X101735000Y-104106000D03*
X124595000Y-129506000D03*
X124595000Y-126966000D03*
X124595000Y-124426000D03*
X124595000Y-121886000D03*
X124595000Y-119346000D03*
X124595000Y-116806000D03*
X124595000Y-114266000D03*
X124595000Y-111726000D03*
X124595000Y-109186000D03*
X124595000Y-106646000D03*
X124595000Y-104106000D03*
%TD*%
%TO.C,U3*%
X73735000Y-121886000D03*
X73735000Y-124426000D03*
X73735000Y-126966000D03*
X73735000Y-129506000D03*
X73735000Y-119346000D03*
X73735000Y-116806000D03*
X73735000Y-114266000D03*
X73735000Y-111726000D03*
X73735000Y-109186000D03*
X73735000Y-106646000D03*
X73735000Y-104106000D03*
X96595000Y-129506000D03*
X96595000Y-126966000D03*
X96595000Y-124426000D03*
X96595000Y-121886000D03*
X96595000Y-119346000D03*
X96595000Y-116806000D03*
X96595000Y-114266000D03*
X96595000Y-111726000D03*
X96595000Y-109186000D03*
X96595000Y-106646000D03*
X96595000Y-104106000D03*
%TD*%
D14*
%TO.C,*%
X45024400Y-276803000D03*
%TD*%
%TO.C,*%
X212105000Y-70428000D03*
%TD*%
D13*
%TO.C,U1*%
X31395000Y-98231000D03*
X31395000Y-100771000D03*
X31395000Y-103311000D03*
X31395000Y-105851000D03*
X31395000Y-108391000D03*
X31395000Y-110931000D03*
X33935000Y-98231000D03*
X33935000Y-100771000D03*
X33935000Y-103311000D03*
X33935000Y-105851000D03*
X33935000Y-108391000D03*
X33935000Y-110931000D03*
X31395000Y-113471000D03*
X33935000Y-113471000D03*
X31395000Y-116011000D03*
X31395000Y-118551000D03*
X31395000Y-121091000D03*
X31395000Y-123631000D03*
X31395000Y-126171000D03*
X31395000Y-128711000D03*
X33935000Y-116011000D03*
X33935000Y-118551000D03*
X33935000Y-121091000D03*
X33935000Y-123631000D03*
X33935000Y-126171000D03*
X33935000Y-128711000D03*
X31395000Y-131251000D03*
X33935000Y-131251000D03*
X31395000Y-133791000D03*
X31395000Y-136331000D03*
X31395000Y-138871000D03*
X31395000Y-141411000D03*
X31395000Y-143951000D03*
X31395000Y-146491000D03*
X33935000Y-133791000D03*
X33935000Y-136331000D03*
X33935000Y-138871000D03*
X33935000Y-141411000D03*
X33935000Y-143951000D03*
D15*
X33935000Y-146491000D03*
D14*
X32665000Y-151361000D03*
X32665000Y-93361000D03*
%TD*%
D16*
%TO.C,J2*%
X123765000Y-70441000D03*
X104865000Y-70441000D03*
D17*
X108865000Y-79341000D03*
X119765000Y-79341000D03*
%TD*%
D14*
%TO.C,*%
X192420000Y-273651000D03*
%TD*%
D18*
%TO.C,J38*%
X92725000Y-92041000D03*
X95265000Y-92041000D03*
X97805000Y-92041000D03*
X100345000Y-92041000D03*
X102885000Y-92041000D03*
X105425000Y-92041000D03*
X107965000Y-92041000D03*
X110505000Y-92041000D03*
X113045000Y-92041000D03*
D19*
X115585000Y-92041000D03*
%TD*%
D20*
%TO.C,D1*%
X170195000Y-87501000D03*
X170195000Y-91501000D03*
%TD*%
D21*
%TO.C,D3*%
X204865000Y-76801000D03*
X201565000Y-76801000D03*
%TD*%
D20*
%TO.C,D2*%
X181193200Y-87501000D03*
X181193200Y-91501000D03*
%TD*%
%TO.C,R92*%
G36*
G01*
X193925000Y-94130998D02*
X193925000Y-95031002D01*
G75*
G02*
X193675002Y-95281000I-249998J0D01*
G01*
X193149998Y-95281000D01*
G75*
G02*
X192900000Y-95031002I0J249998D01*
G01*
X192900000Y-94130998D01*
G75*
G02*
X193149998Y-93881000I249998J0D01*
G01*
X193675002Y-93881000D01*
G75*
G02*
X193925000Y-94130998I0J-249998D01*
G01*
G37*
G36*
G01*
X195750000Y-94130998D02*
X195750000Y-95031002D01*
G75*
G02*
X195500002Y-95281000I-249998J0D01*
G01*
X194974998Y-95281000D01*
G75*
G02*
X194725000Y-95031002I0J249998D01*
G01*
X194725000Y-94130998D01*
G75*
G02*
X194974998Y-93881000I249998J0D01*
G01*
X195500002Y-93881000D01*
G75*
G02*
X195750000Y-94130998I0J-249998D01*
G01*
G37*
%TD*%
D22*
%TO.C,Q1*%
X201505000Y-86326000D03*
D23*
X195205000Y-88606000D03*
X195205000Y-84046000D03*
%TD*%
D18*
%TO.C,JP1*%
X209565000Y-95216000D03*
D19*
X209565000Y-97756000D03*
%TD*%
D24*
%TO.C,J37*%
X186705000Y-88271000D03*
G36*
G01*
X187455000Y-91621000D02*
X185955000Y-91621000D01*
G75*
G02*
X185705000Y-91371000I0J250000D01*
G01*
X185705000Y-90171000D01*
G75*
G02*
X185955000Y-89921000I250000J0D01*
G01*
X187455000Y-89921000D01*
G75*
G02*
X187705000Y-90171000I0J-250000D01*
G01*
X187705000Y-91371000D01*
G75*
G02*
X187455000Y-91621000I-250000J0D01*
G01*
G37*
%TD*%
%TO.C,J36*%
X175275000Y-88271000D03*
G36*
G01*
X176025000Y-91621000D02*
X174525000Y-91621000D01*
G75*
G02*
X174275000Y-91371000I0J250000D01*
G01*
X174275000Y-90171000D01*
G75*
G02*
X174525000Y-89921000I250000J0D01*
G01*
X176025000Y-89921000D01*
G75*
G02*
X176275000Y-90171000I0J-250000D01*
G01*
X176275000Y-91371000D01*
G75*
G02*
X176025000Y-91621000I-250000J0D01*
G01*
G37*
%TD*%
D25*
%TO.C,J1*%
X96535000Y-80451000D03*
X96535000Y-77951000D03*
X96535000Y-75451000D03*
X96535000Y-72951000D03*
G36*
G01*
X95810000Y-69601000D02*
X97260000Y-69601000D01*
G75*
G02*
X97510000Y-69851000I0J-250000D01*
G01*
X97510000Y-71051000D01*
G75*
G02*
X97260000Y-71301000I-250000J0D01*
G01*
X95810000Y-71301000D01*
G75*
G02*
X95560000Y-71051000I0J250000D01*
G01*
X95560000Y-69851000D01*
G75*
G02*
X95810000Y-69601000I250000J0D01*
G01*
G37*
%TD*%
D26*
%TO.C,J11*%
X197841000Y-136457000D03*
X200381000Y-136457000D03*
X202921000Y-136457000D03*
X205461000Y-136457000D03*
%TD*%
D27*
%TO.C,R91*%
X206089000Y-247257000D03*
D28*
X203549000Y-247257000D03*
%TD*%
D27*
%TO.C,R90*%
X206089000Y-243447000D03*
D28*
X203549000Y-243447000D03*
%TD*%
D27*
%TO.C,R89*%
X206089000Y-251067000D03*
D28*
X203549000Y-251067000D03*
%TD*%
D27*
%TO.C,R88*%
X178089000Y-247257000D03*
D28*
X175549000Y-247257000D03*
%TD*%
D27*
%TO.C,R87*%
X178089000Y-243447000D03*
D28*
X175549000Y-243447000D03*
%TD*%
D27*
%TO.C,R86*%
X178089000Y-251067000D03*
D28*
X175549000Y-251067000D03*
%TD*%
D27*
%TO.C,R85*%
X150089000Y-247257000D03*
D28*
X147549000Y-247257000D03*
%TD*%
D27*
%TO.C,R84*%
X150089000Y-243447000D03*
D28*
X147549000Y-243447000D03*
%TD*%
D27*
%TO.C,R83*%
X150089000Y-251067000D03*
D28*
X147549000Y-251067000D03*
%TD*%
D27*
%TO.C,R82*%
X122089000Y-247257000D03*
D28*
X119549000Y-247257000D03*
%TD*%
D27*
%TO.C,R81*%
X122089000Y-243447000D03*
D28*
X119549000Y-243447000D03*
%TD*%
D27*
%TO.C,R80*%
X122089000Y-251067000D03*
D28*
X119549000Y-251067000D03*
%TD*%
D27*
%TO.C,R79*%
X94089000Y-247257000D03*
D28*
X91549000Y-247257000D03*
%TD*%
D27*
%TO.C,R78*%
X94089000Y-243447000D03*
D28*
X91549000Y-243447000D03*
%TD*%
D27*
%TO.C,R77*%
X94089000Y-251067000D03*
D28*
X91549000Y-251067000D03*
%TD*%
D27*
%TO.C,R76*%
X66089000Y-247257000D03*
D28*
X63549000Y-247257000D03*
%TD*%
D27*
%TO.C,R75*%
X66089000Y-243447000D03*
D28*
X63549000Y-243447000D03*
%TD*%
D27*
%TO.C,R74*%
X66089000Y-251067000D03*
D28*
X63549000Y-251067000D03*
%TD*%
D27*
%TO.C,R73*%
X45401000Y-233905000D03*
D28*
X47941000Y-233905000D03*
%TD*%
D27*
%TO.C,R72*%
X45401000Y-237715000D03*
D28*
X47941000Y-237715000D03*
%TD*%
D27*
%TO.C,R71*%
X45401000Y-230095000D03*
D28*
X47941000Y-230095000D03*
%TD*%
D27*
%TO.C,R70*%
X73401000Y-233905000D03*
D28*
X75941000Y-233905000D03*
%TD*%
D27*
%TO.C,R69*%
X73401000Y-237715000D03*
D28*
X75941000Y-237715000D03*
%TD*%
D27*
%TO.C,R68*%
X73401000Y-230095000D03*
D28*
X75941000Y-230095000D03*
%TD*%
D27*
%TO.C,R67*%
X101401000Y-233905000D03*
D28*
X103941000Y-233905000D03*
%TD*%
D27*
%TO.C,R66*%
X101401000Y-237715000D03*
D28*
X103941000Y-237715000D03*
%TD*%
D27*
%TO.C,R65*%
X101401000Y-230095000D03*
D28*
X103941000Y-230095000D03*
%TD*%
D27*
%TO.C,R64*%
X129401000Y-233905000D03*
D28*
X131941000Y-233905000D03*
%TD*%
D27*
%TO.C,R63*%
X129401000Y-237715000D03*
D28*
X131941000Y-237715000D03*
%TD*%
D27*
%TO.C,R62*%
X129401000Y-230095000D03*
D28*
X131941000Y-230095000D03*
%TD*%
D27*
%TO.C,R61*%
X157401000Y-233905000D03*
D28*
X159941000Y-233905000D03*
%TD*%
D27*
%TO.C,R60*%
X157401000Y-237715000D03*
D28*
X159941000Y-237715000D03*
%TD*%
D27*
%TO.C,R59*%
X157401000Y-230095000D03*
D28*
X159941000Y-230095000D03*
%TD*%
D27*
%TO.C,R58*%
X185401000Y-233905000D03*
D28*
X187941000Y-233905000D03*
%TD*%
D27*
%TO.C,R57*%
X185401000Y-237715000D03*
D28*
X187941000Y-237715000D03*
%TD*%
D27*
%TO.C,R56*%
X185401000Y-230095000D03*
D28*
X187941000Y-230095000D03*
%TD*%
D27*
%TO.C,R55*%
X204819000Y-177607000D03*
D28*
X202279000Y-177607000D03*
%TD*%
D27*
%TO.C,R54*%
X204819000Y-173797000D03*
D28*
X202279000Y-173797000D03*
%TD*%
D27*
%TO.C,R53*%
X204819000Y-181417000D03*
D28*
X202279000Y-181417000D03*
%TD*%
D27*
%TO.C,R52*%
X176819000Y-177607000D03*
D28*
X174279000Y-177607000D03*
%TD*%
D27*
%TO.C,R51*%
X176819000Y-173797000D03*
D28*
X174279000Y-173797000D03*
%TD*%
D27*
%TO.C,R50*%
X176819000Y-181417000D03*
D28*
X174279000Y-181417000D03*
%TD*%
D27*
%TO.C,R49*%
X148819000Y-177607000D03*
D28*
X146279000Y-177607000D03*
%TD*%
D27*
%TO.C,R48*%
X148819000Y-173797000D03*
D28*
X146279000Y-173797000D03*
%TD*%
D27*
%TO.C,R47*%
X148819000Y-181417000D03*
D28*
X146279000Y-181417000D03*
%TD*%
D27*
%TO.C,R46*%
X120819000Y-177607000D03*
D28*
X118279000Y-177607000D03*
%TD*%
D27*
%TO.C,R45*%
X120819000Y-173797000D03*
D28*
X118279000Y-173797000D03*
%TD*%
D27*
%TO.C,R44*%
X120819000Y-181417000D03*
D28*
X118279000Y-181417000D03*
%TD*%
D27*
%TO.C,R43*%
X92819000Y-177607000D03*
D28*
X90279000Y-177607000D03*
%TD*%
D27*
%TO.C,R42*%
X92819000Y-173797000D03*
D28*
X90279000Y-173797000D03*
%TD*%
D27*
%TO.C,R41*%
X92819000Y-181417000D03*
D28*
X90279000Y-181417000D03*
%TD*%
D27*
%TO.C,R40*%
X64819000Y-177607000D03*
D28*
X62279000Y-177607000D03*
%TD*%
D27*
%TO.C,R39*%
X64819000Y-173797000D03*
D28*
X62279000Y-173797000D03*
%TD*%
D27*
%TO.C,R38*%
X64819000Y-181417000D03*
D28*
X62279000Y-181417000D03*
%TD*%
D27*
%TO.C,R37*%
X45401000Y-164490000D03*
D28*
X47941000Y-164490000D03*
%TD*%
D27*
%TO.C,R36*%
X45401000Y-168300000D03*
D28*
X47941000Y-168300000D03*
%TD*%
D27*
%TO.C,R35*%
X45401000Y-160680000D03*
D28*
X47941000Y-160680000D03*
%TD*%
D27*
%TO.C,R34*%
X73401000Y-164490000D03*
D28*
X75941000Y-164490000D03*
%TD*%
D27*
%TO.C,R33*%
X73401000Y-168300000D03*
D28*
X75941000Y-168300000D03*
%TD*%
D27*
%TO.C,R32*%
X73401000Y-160680000D03*
D28*
X75941000Y-160680000D03*
%TD*%
D27*
%TO.C,R31*%
X101401000Y-164490000D03*
D28*
X103941000Y-164490000D03*
%TD*%
D27*
%TO.C,R30*%
X101401000Y-168300000D03*
D28*
X103941000Y-168300000D03*
%TD*%
D27*
%TO.C,R29*%
X101401000Y-160680000D03*
D28*
X103941000Y-160680000D03*
%TD*%
D27*
%TO.C,R28*%
X129401000Y-164490000D03*
D28*
X131941000Y-164490000D03*
%TD*%
D27*
%TO.C,R27*%
X129401000Y-168300000D03*
D28*
X131941000Y-168300000D03*
%TD*%
D27*
%TO.C,R26*%
X129401000Y-160680000D03*
D28*
X131941000Y-160680000D03*
%TD*%
D27*
%TO.C,R25*%
X157401000Y-164490000D03*
D28*
X159941000Y-164490000D03*
%TD*%
D27*
%TO.C,R24*%
X157401000Y-168300000D03*
D28*
X159941000Y-168300000D03*
%TD*%
D27*
%TO.C,R23*%
X157401000Y-160680000D03*
D28*
X159941000Y-160680000D03*
%TD*%
D27*
%TO.C,R22*%
X185401000Y-164490000D03*
D28*
X187941000Y-164490000D03*
%TD*%
D27*
%TO.C,R21*%
X185401000Y-168300000D03*
D28*
X187941000Y-168300000D03*
%TD*%
D27*
%TO.C,R20*%
X185401000Y-160680000D03*
D28*
X187941000Y-160680000D03*
%TD*%
D27*
%TO.C,R19*%
X204819000Y-107957000D03*
D28*
X202279000Y-107957000D03*
%TD*%
D27*
%TO.C,R18*%
X204819000Y-104147000D03*
D28*
X202279000Y-104147000D03*
%TD*%
D27*
%TO.C,R17*%
X204819000Y-111767000D03*
D28*
X202279000Y-111767000D03*
%TD*%
D27*
%TO.C,R16*%
X176819000Y-107957000D03*
D28*
X174279000Y-107957000D03*
%TD*%
D27*
%TO.C,R15*%
X176819000Y-104147000D03*
D28*
X174279000Y-104147000D03*
%TD*%
D27*
%TO.C,R14*%
X176819000Y-111767000D03*
D28*
X174279000Y-111767000D03*
%TD*%
D27*
%TO.C,R13*%
X148819000Y-107957000D03*
D28*
X146279000Y-107957000D03*
%TD*%
D27*
%TO.C,R12*%
X148819000Y-104147000D03*
D28*
X146279000Y-104147000D03*
%TD*%
D27*
%TO.C,R11*%
X148819000Y-111767000D03*
D28*
X146279000Y-111767000D03*
%TD*%
D27*
%TO.C,R10*%
X120819000Y-107957000D03*
D28*
X118279000Y-107957000D03*
%TD*%
D27*
%TO.C,R9*%
X120819000Y-104147000D03*
D28*
X118279000Y-104147000D03*
%TD*%
D27*
%TO.C,R8*%
X120819000Y-111767000D03*
D28*
X118279000Y-111767000D03*
%TD*%
D27*
%TO.C,R7*%
X92819000Y-107957000D03*
D28*
X90279000Y-107957000D03*
%TD*%
D27*
%TO.C,R6*%
X92819000Y-104147000D03*
D28*
X90279000Y-104147000D03*
%TD*%
D27*
%TO.C,R5*%
X92819000Y-111767000D03*
D28*
X90279000Y-111767000D03*
%TD*%
D27*
%TO.C,R4*%
X64819000Y-107957000D03*
D28*
X62279000Y-107957000D03*
%TD*%
D27*
%TO.C,R3*%
X64819000Y-104147000D03*
D28*
X62279000Y-104147000D03*
%TD*%
D27*
%TO.C,R2*%
X64819000Y-111767000D03*
D28*
X62279000Y-111767000D03*
%TD*%
%TO.C,R1*%
G36*
G01*
X170364998Y-76600000D02*
X171265002Y-76600000D01*
G75*
G02*
X171515000Y-76849998I0J-249998D01*
G01*
X171515000Y-77375002D01*
G75*
G02*
X171265002Y-77625000I-249998J0D01*
G01*
X170364998Y-77625000D01*
G75*
G02*
X170115000Y-77375002I0J249998D01*
G01*
X170115000Y-76849998D01*
G75*
G02*
X170364998Y-76600000I249998J0D01*
G01*
G37*
G36*
G01*
X170364998Y-74775000D02*
X171265002Y-74775000D01*
G75*
G02*
X171515000Y-75024998I0J-249998D01*
G01*
X171515000Y-75550002D01*
G75*
G02*
X171265002Y-75800000I-249998J0D01*
G01*
X170364998Y-75800000D01*
G75*
G02*
X170115000Y-75550002I0J249998D01*
G01*
X170115000Y-75024998D01*
G75*
G02*
X170364998Y-74775000I249998J0D01*
G01*
G37*
%TD*%
D26*
%TO.C,J35*%
X199111000Y-275757000D03*
X201651000Y-275757000D03*
X204191000Y-275757000D03*
X206731000Y-275757000D03*
%TD*%
%TO.C,J34*%
X171111000Y-275757000D03*
X173651000Y-275757000D03*
X176191000Y-275757000D03*
X178731000Y-275757000D03*
%TD*%
%TO.C,J33*%
X143111000Y-275757000D03*
X145651000Y-275757000D03*
X148191000Y-275757000D03*
X150731000Y-275757000D03*
%TD*%
%TO.C,J32*%
X115111000Y-275757000D03*
X117651000Y-275757000D03*
X120191000Y-275757000D03*
X122731000Y-275757000D03*
%TD*%
%TO.C,J31*%
X87111000Y-275757000D03*
X89651000Y-275757000D03*
X92191000Y-275757000D03*
X94731000Y-275757000D03*
%TD*%
%TO.C,J30*%
X59111000Y-275757000D03*
X61651000Y-275757000D03*
X64191000Y-275757000D03*
X66731000Y-275757000D03*
%TD*%
%TO.C,J29*%
X52379000Y-205405000D03*
X49839000Y-205405000D03*
X47299000Y-205405000D03*
X44759000Y-205405000D03*
%TD*%
%TO.C,J28*%
X80379000Y-205405000D03*
X77839000Y-205405000D03*
X75299000Y-205405000D03*
X72759000Y-205405000D03*
%TD*%
%TO.C,J27*%
X108379000Y-205405000D03*
X105839000Y-205405000D03*
X103299000Y-205405000D03*
X100759000Y-205405000D03*
%TD*%
%TO.C,J26*%
X136379000Y-205405000D03*
X133839000Y-205405000D03*
X131299000Y-205405000D03*
X128759000Y-205405000D03*
%TD*%
%TO.C,J25*%
X164379000Y-205405000D03*
X161839000Y-205405000D03*
X159299000Y-205405000D03*
X156759000Y-205405000D03*
%TD*%
%TO.C,J24*%
X192379000Y-205405000D03*
X189839000Y-205405000D03*
X187299000Y-205405000D03*
X184759000Y-205405000D03*
%TD*%
%TO.C,J23*%
X197841000Y-206107000D03*
X200381000Y-206107000D03*
X202921000Y-206107000D03*
X205461000Y-206107000D03*
%TD*%
%TO.C,J22*%
X169841000Y-206107000D03*
X172381000Y-206107000D03*
X174921000Y-206107000D03*
X177461000Y-206107000D03*
%TD*%
%TO.C,J21*%
X141841000Y-206107000D03*
X144381000Y-206107000D03*
X146921000Y-206107000D03*
X149461000Y-206107000D03*
%TD*%
%TO.C,J20*%
X113841000Y-206107000D03*
X116381000Y-206107000D03*
X118921000Y-206107000D03*
X121461000Y-206107000D03*
%TD*%
%TO.C,J19*%
X85841000Y-206107000D03*
X88381000Y-206107000D03*
X90921000Y-206107000D03*
X93461000Y-206107000D03*
%TD*%
%TO.C,J18*%
X57841000Y-206107000D03*
X60381000Y-206107000D03*
X62921000Y-206107000D03*
X65461000Y-206107000D03*
%TD*%
%TO.C,J17*%
X52379000Y-135990000D03*
X49839000Y-135990000D03*
X47299000Y-135990000D03*
X44759000Y-135990000D03*
%TD*%
%TO.C,J16*%
X80379000Y-135990000D03*
X77839000Y-135990000D03*
X75299000Y-135990000D03*
X72759000Y-135990000D03*
%TD*%
%TO.C,J15*%
X108379000Y-135990000D03*
X105839000Y-135990000D03*
X103299000Y-135990000D03*
X100759000Y-135990000D03*
%TD*%
%TO.C,J14*%
X136379000Y-135990000D03*
X133839000Y-135990000D03*
X131299000Y-135990000D03*
X128759000Y-135990000D03*
%TD*%
%TO.C,J13*%
X164379000Y-135990000D03*
X161839000Y-135990000D03*
X159299000Y-135990000D03*
X156759000Y-135990000D03*
%TD*%
%TO.C,J12*%
X192379000Y-135990000D03*
X189839000Y-135990000D03*
X187299000Y-135990000D03*
X184759000Y-135990000D03*
%TD*%
%TO.C,J10*%
X169841000Y-136457000D03*
X172381000Y-136457000D03*
X174921000Y-136457000D03*
X177461000Y-136457000D03*
%TD*%
%TO.C,J9*%
X141841000Y-136457000D03*
X144381000Y-136457000D03*
X146921000Y-136457000D03*
X149461000Y-136457000D03*
%TD*%
%TO.C,J8*%
X113841000Y-136457000D03*
X116381000Y-136457000D03*
X118921000Y-136457000D03*
X121461000Y-136457000D03*
%TD*%
%TO.C,J7*%
X85841000Y-136457000D03*
X88381000Y-136457000D03*
X90921000Y-136457000D03*
X93461000Y-136457000D03*
%TD*%
%TO.C,J6*%
X57841000Y-136457000D03*
X60381000Y-136457000D03*
X62921000Y-136457000D03*
X65461000Y-136457000D03*
%TD*%
D29*
%TO.C,J3*%
X177245000Y-77470000D03*
X179745000Y-77470000D03*
G36*
G01*
X183095000Y-76745000D02*
X183095000Y-78195000D01*
G75*
G02*
X182845000Y-78445000I-250000J0D01*
G01*
X181645000Y-78445000D01*
G75*
G02*
X181395000Y-78195000I0J250000D01*
G01*
X181395000Y-76745000D01*
G75*
G02*
X181645000Y-76495000I250000J0D01*
G01*
X182845000Y-76495000D01*
G75*
G02*
X183095000Y-76745000I0J-250000D01*
G01*
G37*
%TD*%
%TO.C,J4*%
X189945000Y-77470000D03*
X192445000Y-77470000D03*
G36*
G01*
X195795000Y-76745000D02*
X195795000Y-78195000D01*
G75*
G02*
X195545000Y-78445000I-250000J0D01*
G01*
X194345000Y-78445000D01*
G75*
G02*
X194095000Y-78195000I0J250000D01*
G01*
X194095000Y-76745000D01*
G75*
G02*
X194345000Y-76495000I250000J0D01*
G01*
X195545000Y-76495000D01*
G75*
G02*
X195795000Y-76745000I0J-250000D01*
G01*
G37*
%TD*%
D25*
%TO.C,J5*%
X209565000Y-87436000D03*
X209565000Y-84936000D03*
X209565000Y-82436000D03*
X209565000Y-79936000D03*
G36*
G01*
X208840000Y-76586000D02*
X210290000Y-76586000D01*
G75*
G02*
X210540000Y-76836000I0J-250000D01*
G01*
X210540000Y-78036000D01*
G75*
G02*
X210290000Y-78286000I-250000J0D01*
G01*
X208840000Y-78286000D01*
G75*
G02*
X208590000Y-78036000I0J250000D01*
G01*
X208590000Y-76836000D01*
G75*
G02*
X208840000Y-76586000I250000J0D01*
G01*
G37*
%TD*%
D30*
%TO.C,F1*%
X164910000Y-80226000D03*
X161510000Y-80226000D03*
X164910000Y-93696000D03*
X161510000Y-93696000D03*
%TD*%
M02*
