%TF.GenerationSoftware,KiCad,Pcbnew,5.1.8-db9833491~88~ubuntu20.04.1*%
%TF.CreationDate,2020-12-02T17:03:32+01:00*%
%TF.ProjectId,motherboard,6d6f7468-6572-4626-9f61-72642e6b6963,rev?*%
%TF.SameCoordinates,Original*%
%TF.FileFunction,Legend,Bot*%
%TF.FilePolarity,Positive*%
%FSLAX46Y46*%
G04 Gerber Fmt 4.6, Leading zero omitted, Abs format (unit mm)*
G04 Created by KiCad (PCBNEW 5.1.8-db9833491~88~ubuntu20.04.1) date 2020-12-02 17:03:32*
%MOMM*%
%LPD*%
G01*
G04 APERTURE LIST*
%ADD10C,0.200000*%
%ADD11C,0.100000*%
%ADD12C,2.000000*%
%ADD13C,3.500000*%
%ADD14C,1.524000*%
%ADD15C,6.200000*%
%ADD16R,1.524000X1.524000*%
%ADD17O,1.400000X3.400000*%
%ADD18C,8.000000*%
%ADD19O,1.700000X1.700000*%
%ADD20R,1.700000X1.700000*%
%ADD21O,2.000000X1.700000*%
%ADD22O,1.950000X1.700000*%
%ADD23C,2.020000*%
%ADD24O,1.400000X1.400000*%
%ADD25C,1.400000*%
%ADD26O,1.700000X1.950000*%
%ADD27C,2.400000*%
G04 APERTURE END LIST*
D10*
%TO.C,U9*%
X177755000Y-169611000D02*
X177247000Y-169611000D01*
X177755000Y-169611000D02*
X177755000Y-169103000D01*
X152355000Y-169611000D02*
X152863000Y-169611000D01*
X152355000Y-169611000D02*
X152355000Y-169103000D01*
X152355000Y-141671000D02*
X152863000Y-141671000D01*
X152355000Y-141671000D02*
X152355000Y-142179000D01*
X177755000Y-141671000D02*
X177247000Y-141671000D01*
X177755000Y-141671000D02*
X177755000Y-142179000D01*
X178263000Y-141290000D02*
G75*
G03*
X178263000Y-141290000I-127000J0D01*
G01*
%TO.C,U7*%
X184465000Y-102836000D02*
X184973000Y-102836000D01*
X184465000Y-102836000D02*
X184465000Y-103344000D01*
X209865000Y-102836000D02*
X209357000Y-102836000D01*
X209865000Y-102836000D02*
X209865000Y-103344000D01*
X209865000Y-130776000D02*
X209357000Y-130776000D01*
X209865000Y-130776000D02*
X209865000Y-130268000D01*
X184465000Y-130776000D02*
X184973000Y-130776000D01*
X184465000Y-130776000D02*
X184465000Y-130268000D01*
X184211000Y-131157000D02*
G75*
G03*
X184211000Y-131157000I-127000J0D01*
G01*
%TO.C,U8*%
X205755000Y-169611000D02*
X205247000Y-169611000D01*
X205755000Y-169611000D02*
X205755000Y-169103000D01*
X180355000Y-169611000D02*
X180863000Y-169611000D01*
X180355000Y-169611000D02*
X180355000Y-169103000D01*
X180355000Y-141671000D02*
X180863000Y-141671000D01*
X180355000Y-141671000D02*
X180355000Y-142179000D01*
X205755000Y-141671000D02*
X205247000Y-141671000D01*
X205755000Y-141671000D02*
X205755000Y-142179000D01*
X206263000Y-141290000D02*
G75*
G03*
X206263000Y-141290000I-127000J0D01*
G01*
%TO.C,U11*%
X121755000Y-169611000D02*
X121247000Y-169611000D01*
X121755000Y-169611000D02*
X121755000Y-169103000D01*
X96355000Y-169611000D02*
X96863000Y-169611000D01*
X96355000Y-169611000D02*
X96355000Y-169103000D01*
X96355000Y-141671000D02*
X96863000Y-141671000D01*
X96355000Y-141671000D02*
X96355000Y-142179000D01*
X121755000Y-141671000D02*
X121247000Y-141671000D01*
X121755000Y-141671000D02*
X121755000Y-142179000D01*
X122263000Y-141290000D02*
G75*
G03*
X122263000Y-141290000I-127000J0D01*
G01*
%TO.C,U19*%
X184465000Y-172486000D02*
X184973000Y-172486000D01*
X184465000Y-172486000D02*
X184465000Y-172994000D01*
X209865000Y-172486000D02*
X209357000Y-172486000D01*
X209865000Y-172486000D02*
X209865000Y-172994000D01*
X209865000Y-200426000D02*
X209357000Y-200426000D01*
X209865000Y-200426000D02*
X209865000Y-199918000D01*
X184465000Y-200426000D02*
X184973000Y-200426000D01*
X184465000Y-200426000D02*
X184465000Y-199918000D01*
X184211000Y-200807000D02*
G75*
G03*
X184211000Y-200807000I-127000J0D01*
G01*
%TO.C,U18*%
X156465000Y-172486000D02*
X156973000Y-172486000D01*
X156465000Y-172486000D02*
X156465000Y-172994000D01*
X181865000Y-172486000D02*
X181357000Y-172486000D01*
X181865000Y-172486000D02*
X181865000Y-172994000D01*
X181865000Y-200426000D02*
X181357000Y-200426000D01*
X181865000Y-200426000D02*
X181865000Y-199918000D01*
X156465000Y-200426000D02*
X156973000Y-200426000D01*
X156465000Y-200426000D02*
X156465000Y-199918000D01*
X156211000Y-200807000D02*
G75*
G03*
X156211000Y-200807000I-127000J0D01*
G01*
%TO.C,U17*%
X128465000Y-172486000D02*
X128973000Y-172486000D01*
X128465000Y-172486000D02*
X128465000Y-172994000D01*
X153865000Y-172486000D02*
X153357000Y-172486000D01*
X153865000Y-172486000D02*
X153865000Y-172994000D01*
X153865000Y-200426000D02*
X153357000Y-200426000D01*
X153865000Y-200426000D02*
X153865000Y-199918000D01*
X128465000Y-200426000D02*
X128973000Y-200426000D01*
X128465000Y-200426000D02*
X128465000Y-199918000D01*
X128211000Y-200807000D02*
G75*
G03*
X128211000Y-200807000I-127000J0D01*
G01*
%TO.C,U22*%
X149755000Y-239026000D02*
X149247000Y-239026000D01*
X149755000Y-239026000D02*
X149755000Y-238518000D01*
X124355000Y-239026000D02*
X124863000Y-239026000D01*
X124355000Y-239026000D02*
X124355000Y-238518000D01*
X124355000Y-211086000D02*
X124863000Y-211086000D01*
X124355000Y-211086000D02*
X124355000Y-211594000D01*
X149755000Y-211086000D02*
X149247000Y-211086000D01*
X149755000Y-211086000D02*
X149755000Y-211594000D01*
X150263000Y-210705000D02*
G75*
G03*
X150263000Y-210705000I-127000J0D01*
G01*
%TO.C,U24*%
X93755000Y-239026000D02*
X93247000Y-239026000D01*
X93755000Y-239026000D02*
X93755000Y-238518000D01*
X68355000Y-239026000D02*
X68863000Y-239026000D01*
X68355000Y-239026000D02*
X68355000Y-238518000D01*
X68355000Y-211086000D02*
X68863000Y-211086000D01*
X68355000Y-211086000D02*
X68355000Y-211594000D01*
X93755000Y-211086000D02*
X93247000Y-211086000D01*
X93755000Y-211086000D02*
X93755000Y-211594000D01*
X94263000Y-210705000D02*
G75*
G03*
X94263000Y-210705000I-127000J0D01*
G01*
%TO.C,U23*%
X121755000Y-239026000D02*
X121247000Y-239026000D01*
X121755000Y-239026000D02*
X121755000Y-238518000D01*
X96355000Y-239026000D02*
X96863000Y-239026000D01*
X96355000Y-239026000D02*
X96355000Y-238518000D01*
X96355000Y-211086000D02*
X96863000Y-211086000D01*
X96355000Y-211086000D02*
X96355000Y-211594000D01*
X121755000Y-211086000D02*
X121247000Y-211086000D01*
X121755000Y-211086000D02*
X121755000Y-211594000D01*
X122263000Y-210705000D02*
G75*
G03*
X122263000Y-210705000I-127000J0D01*
G01*
%TO.C,U30*%
X157735000Y-242136000D02*
X158243000Y-242136000D01*
X157735000Y-242136000D02*
X157735000Y-242644000D01*
X183135000Y-242136000D02*
X182627000Y-242136000D01*
X183135000Y-242136000D02*
X183135000Y-242644000D01*
X183135000Y-270076000D02*
X182627000Y-270076000D01*
X183135000Y-270076000D02*
X183135000Y-269568000D01*
X157735000Y-270076000D02*
X158243000Y-270076000D01*
X157735000Y-270076000D02*
X157735000Y-269568000D01*
X157481000Y-270457000D02*
G75*
G03*
X157481000Y-270457000I-127000J0D01*
G01*
%TO.C,U29*%
X129735000Y-242136000D02*
X130243000Y-242136000D01*
X129735000Y-242136000D02*
X129735000Y-242644000D01*
X155135000Y-242136000D02*
X154627000Y-242136000D01*
X155135000Y-242136000D02*
X155135000Y-242644000D01*
X155135000Y-270076000D02*
X154627000Y-270076000D01*
X155135000Y-270076000D02*
X155135000Y-269568000D01*
X129735000Y-270076000D02*
X130243000Y-270076000D01*
X129735000Y-270076000D02*
X129735000Y-269568000D01*
X129481000Y-270457000D02*
G75*
G03*
X129481000Y-270457000I-127000J0D01*
G01*
%TO.C,U25*%
X65755000Y-239026000D02*
X65247000Y-239026000D01*
X65755000Y-239026000D02*
X65755000Y-238518000D01*
X40355000Y-239026000D02*
X40863000Y-239026000D01*
X40355000Y-239026000D02*
X40355000Y-238518000D01*
X40355000Y-211086000D02*
X40863000Y-211086000D01*
X40355000Y-211086000D02*
X40355000Y-211594000D01*
X65755000Y-211086000D02*
X65247000Y-211086000D01*
X65755000Y-211086000D02*
X65755000Y-211594000D01*
X66263000Y-210705000D02*
G75*
G03*
X66263000Y-210705000I-127000J0D01*
G01*
%TO.C,U2*%
X44465000Y-102836000D02*
X44973000Y-102836000D01*
X44465000Y-102836000D02*
X44465000Y-103344000D01*
X69865000Y-102836000D02*
X69357000Y-102836000D01*
X69865000Y-102836000D02*
X69865000Y-103344000D01*
X69865000Y-130776000D02*
X69357000Y-130776000D01*
X69865000Y-130776000D02*
X69865000Y-130268000D01*
X44465000Y-130776000D02*
X44973000Y-130776000D01*
X44465000Y-130776000D02*
X44465000Y-130268000D01*
X44211000Y-131157000D02*
G75*
G03*
X44211000Y-131157000I-127000J0D01*
G01*
%TO.C,U32*%
X185735000Y-242136000D02*
X186243000Y-242136000D01*
X185735000Y-242136000D02*
X185735000Y-242644000D01*
X211135000Y-242136000D02*
X210627000Y-242136000D01*
X211135000Y-242136000D02*
X211135000Y-242644000D01*
X211135000Y-270076000D02*
X210627000Y-270076000D01*
X211135000Y-270076000D02*
X211135000Y-269568000D01*
X185735000Y-270076000D02*
X186243000Y-270076000D01*
X185735000Y-270076000D02*
X185735000Y-269568000D01*
X185481000Y-270457000D02*
G75*
G03*
X185481000Y-270457000I-127000J0D01*
G01*
%TO.C,U28*%
X101735000Y-242136000D02*
X102243000Y-242136000D01*
X101735000Y-242136000D02*
X101735000Y-242644000D01*
X127135000Y-242136000D02*
X126627000Y-242136000D01*
X127135000Y-242136000D02*
X127135000Y-242644000D01*
X127135000Y-270076000D02*
X126627000Y-270076000D01*
X127135000Y-270076000D02*
X127135000Y-269568000D01*
X101735000Y-270076000D02*
X102243000Y-270076000D01*
X101735000Y-270076000D02*
X101735000Y-269568000D01*
X101481000Y-270457000D02*
G75*
G03*
X101481000Y-270457000I-127000J0D01*
G01*
%TO.C,U27*%
X73735000Y-242136000D02*
X74243000Y-242136000D01*
X73735000Y-242136000D02*
X73735000Y-242644000D01*
X99135000Y-242136000D02*
X98627000Y-242136000D01*
X99135000Y-242136000D02*
X99135000Y-242644000D01*
X99135000Y-270076000D02*
X98627000Y-270076000D01*
X99135000Y-270076000D02*
X99135000Y-269568000D01*
X73735000Y-270076000D02*
X74243000Y-270076000D01*
X73735000Y-270076000D02*
X73735000Y-269568000D01*
X73481000Y-270457000D02*
G75*
G03*
X73481000Y-270457000I-127000J0D01*
G01*
%TO.C,U26*%
X45735000Y-242136000D02*
X46243000Y-242136000D01*
X45735000Y-242136000D02*
X45735000Y-242644000D01*
X71135000Y-242136000D02*
X70627000Y-242136000D01*
X71135000Y-242136000D02*
X71135000Y-242644000D01*
X71135000Y-270076000D02*
X70627000Y-270076000D01*
X71135000Y-270076000D02*
X71135000Y-269568000D01*
X45735000Y-270076000D02*
X46243000Y-270076000D01*
X45735000Y-270076000D02*
X45735000Y-269568000D01*
X45481000Y-270457000D02*
G75*
G03*
X45481000Y-270457000I-127000J0D01*
G01*
%TO.C,U21*%
X177755000Y-239026000D02*
X177247000Y-239026000D01*
X177755000Y-239026000D02*
X177755000Y-238518000D01*
X152355000Y-239026000D02*
X152863000Y-239026000D01*
X152355000Y-239026000D02*
X152355000Y-238518000D01*
X152355000Y-211086000D02*
X152863000Y-211086000D01*
X152355000Y-211086000D02*
X152355000Y-211594000D01*
X177755000Y-211086000D02*
X177247000Y-211086000D01*
X177755000Y-211086000D02*
X177755000Y-211594000D01*
X178263000Y-210705000D02*
G75*
G03*
X178263000Y-210705000I-127000J0D01*
G01*
%TO.C,U20*%
X205755000Y-239026000D02*
X205247000Y-239026000D01*
X205755000Y-239026000D02*
X205755000Y-238518000D01*
X180355000Y-239026000D02*
X180863000Y-239026000D01*
X180355000Y-239026000D02*
X180355000Y-238518000D01*
X180355000Y-211086000D02*
X180863000Y-211086000D01*
X180355000Y-211086000D02*
X180355000Y-211594000D01*
X205755000Y-211086000D02*
X205247000Y-211086000D01*
X205755000Y-211086000D02*
X205755000Y-211594000D01*
X206263000Y-210705000D02*
G75*
G03*
X206263000Y-210705000I-127000J0D01*
G01*
%TO.C,U16*%
X100465000Y-172486000D02*
X100973000Y-172486000D01*
X100465000Y-172486000D02*
X100465000Y-172994000D01*
X125865000Y-172486000D02*
X125357000Y-172486000D01*
X125865000Y-172486000D02*
X125865000Y-172994000D01*
X125865000Y-200426000D02*
X125357000Y-200426000D01*
X125865000Y-200426000D02*
X125865000Y-199918000D01*
X100465000Y-200426000D02*
X100973000Y-200426000D01*
X100465000Y-200426000D02*
X100465000Y-199918000D01*
X100211000Y-200807000D02*
G75*
G03*
X100211000Y-200807000I-127000J0D01*
G01*
%TO.C,U15*%
X72465000Y-172486000D02*
X72973000Y-172486000D01*
X72465000Y-172486000D02*
X72465000Y-172994000D01*
X97865000Y-172486000D02*
X97357000Y-172486000D01*
X97865000Y-172486000D02*
X97865000Y-172994000D01*
X97865000Y-200426000D02*
X97357000Y-200426000D01*
X97865000Y-200426000D02*
X97865000Y-199918000D01*
X72465000Y-200426000D02*
X72973000Y-200426000D01*
X72465000Y-200426000D02*
X72465000Y-199918000D01*
X72211000Y-200807000D02*
G75*
G03*
X72211000Y-200807000I-127000J0D01*
G01*
%TO.C,U14*%
X44465000Y-172486000D02*
X44973000Y-172486000D01*
X44465000Y-172486000D02*
X44465000Y-172994000D01*
X69865000Y-172486000D02*
X69357000Y-172486000D01*
X69865000Y-172486000D02*
X69865000Y-172994000D01*
X69865000Y-200426000D02*
X69357000Y-200426000D01*
X69865000Y-200426000D02*
X69865000Y-199918000D01*
X44465000Y-200426000D02*
X44973000Y-200426000D01*
X44465000Y-200426000D02*
X44465000Y-199918000D01*
X44211000Y-200807000D02*
G75*
G03*
X44211000Y-200807000I-127000J0D01*
G01*
%TO.C,U13*%
X65755000Y-169611000D02*
X65247000Y-169611000D01*
X65755000Y-169611000D02*
X65755000Y-169103000D01*
X40355000Y-169611000D02*
X40863000Y-169611000D01*
X40355000Y-169611000D02*
X40355000Y-169103000D01*
X40355000Y-141671000D02*
X40863000Y-141671000D01*
X40355000Y-141671000D02*
X40355000Y-142179000D01*
X65755000Y-141671000D02*
X65247000Y-141671000D01*
X65755000Y-141671000D02*
X65755000Y-142179000D01*
X66263000Y-141290000D02*
G75*
G03*
X66263000Y-141290000I-127000J0D01*
G01*
%TO.C,U12*%
X93755000Y-169611000D02*
X93247000Y-169611000D01*
X93755000Y-169611000D02*
X93755000Y-169103000D01*
X68355000Y-169611000D02*
X68863000Y-169611000D01*
X68355000Y-169611000D02*
X68355000Y-169103000D01*
X68355000Y-141671000D02*
X68863000Y-141671000D01*
X68355000Y-141671000D02*
X68355000Y-142179000D01*
X93755000Y-141671000D02*
X93247000Y-141671000D01*
X93755000Y-141671000D02*
X93755000Y-142179000D01*
X94263000Y-141290000D02*
G75*
G03*
X94263000Y-141290000I-127000J0D01*
G01*
%TO.C,U10*%
X149755000Y-169611000D02*
X149247000Y-169611000D01*
X149755000Y-169611000D02*
X149755000Y-169103000D01*
X124355000Y-169611000D02*
X124863000Y-169611000D01*
X124355000Y-169611000D02*
X124355000Y-169103000D01*
X124355000Y-141671000D02*
X124863000Y-141671000D01*
X124355000Y-141671000D02*
X124355000Y-142179000D01*
X149755000Y-141671000D02*
X149247000Y-141671000D01*
X149755000Y-141671000D02*
X149755000Y-142179000D01*
X150263000Y-141290000D02*
G75*
G03*
X150263000Y-141290000I-127000J0D01*
G01*
%TO.C,U6*%
X156465000Y-102836000D02*
X156973000Y-102836000D01*
X156465000Y-102836000D02*
X156465000Y-103344000D01*
X181865000Y-102836000D02*
X181357000Y-102836000D01*
X181865000Y-102836000D02*
X181865000Y-103344000D01*
X181865000Y-130776000D02*
X181357000Y-130776000D01*
X181865000Y-130776000D02*
X181865000Y-130268000D01*
X156465000Y-130776000D02*
X156973000Y-130776000D01*
X156465000Y-130776000D02*
X156465000Y-130268000D01*
X156211000Y-131157000D02*
G75*
G03*
X156211000Y-131157000I-127000J0D01*
G01*
%TO.C,U5*%
X128465000Y-102836000D02*
X128973000Y-102836000D01*
X128465000Y-102836000D02*
X128465000Y-103344000D01*
X153865000Y-102836000D02*
X153357000Y-102836000D01*
X153865000Y-102836000D02*
X153865000Y-103344000D01*
X153865000Y-130776000D02*
X153357000Y-130776000D01*
X153865000Y-130776000D02*
X153865000Y-130268000D01*
X128465000Y-130776000D02*
X128973000Y-130776000D01*
X128465000Y-130776000D02*
X128465000Y-130268000D01*
X128211000Y-131157000D02*
G75*
G03*
X128211000Y-131157000I-127000J0D01*
G01*
%TO.C,U4*%
X100465000Y-102836000D02*
X100973000Y-102836000D01*
X100465000Y-102836000D02*
X100465000Y-103344000D01*
X125865000Y-102836000D02*
X125357000Y-102836000D01*
X125865000Y-102836000D02*
X125865000Y-103344000D01*
X125865000Y-130776000D02*
X125357000Y-130776000D01*
X125865000Y-130776000D02*
X125865000Y-130268000D01*
X100465000Y-130776000D02*
X100973000Y-130776000D01*
X100465000Y-130776000D02*
X100465000Y-130268000D01*
X100211000Y-131157000D02*
G75*
G03*
X100211000Y-131157000I-127000J0D01*
G01*
%TO.C,U3*%
X72465000Y-102836000D02*
X72973000Y-102836000D01*
X72465000Y-102836000D02*
X72465000Y-103344000D01*
X97865000Y-102836000D02*
X97357000Y-102836000D01*
X97865000Y-102836000D02*
X97865000Y-103344000D01*
X97865000Y-130776000D02*
X97357000Y-130776000D01*
X97865000Y-130776000D02*
X97865000Y-130268000D01*
X72465000Y-130776000D02*
X72973000Y-130776000D01*
X72465000Y-130776000D02*
X72465000Y-130268000D01*
X72211000Y-131157000D02*
G75*
G03*
X72211000Y-131157000I-127000J0D01*
G01*
%TO.C,U9*%
D11*
X165816904Y-139726380D02*
X165816904Y-140535904D01*
X165769285Y-140631142D01*
X165721666Y-140678761D01*
X165626428Y-140726380D01*
X165435952Y-140726380D01*
X165340714Y-140678761D01*
X165293095Y-140631142D01*
X165245476Y-140535904D01*
X165245476Y-139726380D01*
X164721666Y-140726380D02*
X164531190Y-140726380D01*
X164435952Y-140678761D01*
X164388333Y-140631142D01*
X164293095Y-140488285D01*
X164245476Y-140297809D01*
X164245476Y-139916857D01*
X164293095Y-139821619D01*
X164340714Y-139774000D01*
X164435952Y-139726380D01*
X164626428Y-139726380D01*
X164721666Y-139774000D01*
X164769285Y-139821619D01*
X164816904Y-139916857D01*
X164816904Y-140154952D01*
X164769285Y-140250190D01*
X164721666Y-140297809D01*
X164626428Y-140345428D01*
X164435952Y-140345428D01*
X164340714Y-140297809D01*
X164293095Y-140250190D01*
X164245476Y-140154952D01*
%TO.C,U7*%
X197926904Y-131625380D02*
X197926904Y-132434904D01*
X197879285Y-132530142D01*
X197831666Y-132577761D01*
X197736428Y-132625380D01*
X197545952Y-132625380D01*
X197450714Y-132577761D01*
X197403095Y-132530142D01*
X197355476Y-132434904D01*
X197355476Y-131625380D01*
X196974523Y-131625380D02*
X196307857Y-131625380D01*
X196736428Y-132625380D01*
%TO.C,U8*%
X193816904Y-139726380D02*
X193816904Y-140535904D01*
X193769285Y-140631142D01*
X193721666Y-140678761D01*
X193626428Y-140726380D01*
X193435952Y-140726380D01*
X193340714Y-140678761D01*
X193293095Y-140631142D01*
X193245476Y-140535904D01*
X193245476Y-139726380D01*
X192626428Y-140154952D02*
X192721666Y-140107333D01*
X192769285Y-140059714D01*
X192816904Y-139964476D01*
X192816904Y-139916857D01*
X192769285Y-139821619D01*
X192721666Y-139774000D01*
X192626428Y-139726380D01*
X192435952Y-139726380D01*
X192340714Y-139774000D01*
X192293095Y-139821619D01*
X192245476Y-139916857D01*
X192245476Y-139964476D01*
X192293095Y-140059714D01*
X192340714Y-140107333D01*
X192435952Y-140154952D01*
X192626428Y-140154952D01*
X192721666Y-140202571D01*
X192769285Y-140250190D01*
X192816904Y-140345428D01*
X192816904Y-140535904D01*
X192769285Y-140631142D01*
X192721666Y-140678761D01*
X192626428Y-140726380D01*
X192435952Y-140726380D01*
X192340714Y-140678761D01*
X192293095Y-140631142D01*
X192245476Y-140535904D01*
X192245476Y-140345428D01*
X192293095Y-140250190D01*
X192340714Y-140202571D01*
X192435952Y-140154952D01*
%TO.C,U11*%
X110293095Y-139726380D02*
X110293095Y-140535904D01*
X110245476Y-140631142D01*
X110197857Y-140678761D01*
X110102619Y-140726380D01*
X109912142Y-140726380D01*
X109816904Y-140678761D01*
X109769285Y-140631142D01*
X109721666Y-140535904D01*
X109721666Y-139726380D01*
X108721666Y-140726380D02*
X109293095Y-140726380D01*
X109007380Y-140726380D02*
X109007380Y-139726380D01*
X109102619Y-139869238D01*
X109197857Y-139964476D01*
X109293095Y-140012095D01*
X107769285Y-140726380D02*
X108340714Y-140726380D01*
X108055000Y-140726380D02*
X108055000Y-139726380D01*
X108150238Y-139869238D01*
X108245476Y-139964476D01*
X108340714Y-140012095D01*
%TO.C,U19*%
X198403095Y-201275380D02*
X198403095Y-202084904D01*
X198355476Y-202180142D01*
X198307857Y-202227761D01*
X198212619Y-202275380D01*
X198022142Y-202275380D01*
X197926904Y-202227761D01*
X197879285Y-202180142D01*
X197831666Y-202084904D01*
X197831666Y-201275380D01*
X196831666Y-202275380D02*
X197403095Y-202275380D01*
X197117380Y-202275380D02*
X197117380Y-201275380D01*
X197212619Y-201418238D01*
X197307857Y-201513476D01*
X197403095Y-201561095D01*
X196355476Y-202275380D02*
X196165000Y-202275380D01*
X196069761Y-202227761D01*
X196022142Y-202180142D01*
X195926904Y-202037285D01*
X195879285Y-201846809D01*
X195879285Y-201465857D01*
X195926904Y-201370619D01*
X195974523Y-201323000D01*
X196069761Y-201275380D01*
X196260238Y-201275380D01*
X196355476Y-201323000D01*
X196403095Y-201370619D01*
X196450714Y-201465857D01*
X196450714Y-201703952D01*
X196403095Y-201799190D01*
X196355476Y-201846809D01*
X196260238Y-201894428D01*
X196069761Y-201894428D01*
X195974523Y-201846809D01*
X195926904Y-201799190D01*
X195879285Y-201703952D01*
%TO.C,U18*%
X170403095Y-201275380D02*
X170403095Y-202084904D01*
X170355476Y-202180142D01*
X170307857Y-202227761D01*
X170212619Y-202275380D01*
X170022142Y-202275380D01*
X169926904Y-202227761D01*
X169879285Y-202180142D01*
X169831666Y-202084904D01*
X169831666Y-201275380D01*
X168831666Y-202275380D02*
X169403095Y-202275380D01*
X169117380Y-202275380D02*
X169117380Y-201275380D01*
X169212619Y-201418238D01*
X169307857Y-201513476D01*
X169403095Y-201561095D01*
X168260238Y-201703952D02*
X168355476Y-201656333D01*
X168403095Y-201608714D01*
X168450714Y-201513476D01*
X168450714Y-201465857D01*
X168403095Y-201370619D01*
X168355476Y-201323000D01*
X168260238Y-201275380D01*
X168069761Y-201275380D01*
X167974523Y-201323000D01*
X167926904Y-201370619D01*
X167879285Y-201465857D01*
X167879285Y-201513476D01*
X167926904Y-201608714D01*
X167974523Y-201656333D01*
X168069761Y-201703952D01*
X168260238Y-201703952D01*
X168355476Y-201751571D01*
X168403095Y-201799190D01*
X168450714Y-201894428D01*
X168450714Y-202084904D01*
X168403095Y-202180142D01*
X168355476Y-202227761D01*
X168260238Y-202275380D01*
X168069761Y-202275380D01*
X167974523Y-202227761D01*
X167926904Y-202180142D01*
X167879285Y-202084904D01*
X167879285Y-201894428D01*
X167926904Y-201799190D01*
X167974523Y-201751571D01*
X168069761Y-201703952D01*
%TO.C,U17*%
X142403095Y-201275380D02*
X142403095Y-202084904D01*
X142355476Y-202180142D01*
X142307857Y-202227761D01*
X142212619Y-202275380D01*
X142022142Y-202275380D01*
X141926904Y-202227761D01*
X141879285Y-202180142D01*
X141831666Y-202084904D01*
X141831666Y-201275380D01*
X140831666Y-202275380D02*
X141403095Y-202275380D01*
X141117380Y-202275380D02*
X141117380Y-201275380D01*
X141212619Y-201418238D01*
X141307857Y-201513476D01*
X141403095Y-201561095D01*
X140498333Y-201275380D02*
X139831666Y-201275380D01*
X140260238Y-202275380D01*
%TO.C,U22*%
X138293095Y-209141380D02*
X138293095Y-209950904D01*
X138245476Y-210046142D01*
X138197857Y-210093761D01*
X138102619Y-210141380D01*
X137912142Y-210141380D01*
X137816904Y-210093761D01*
X137769285Y-210046142D01*
X137721666Y-209950904D01*
X137721666Y-209141380D01*
X137293095Y-209236619D02*
X137245476Y-209189000D01*
X137150238Y-209141380D01*
X136912142Y-209141380D01*
X136816904Y-209189000D01*
X136769285Y-209236619D01*
X136721666Y-209331857D01*
X136721666Y-209427095D01*
X136769285Y-209569952D01*
X137340714Y-210141380D01*
X136721666Y-210141380D01*
X136340714Y-209236619D02*
X136293095Y-209189000D01*
X136197857Y-209141380D01*
X135959761Y-209141380D01*
X135864523Y-209189000D01*
X135816904Y-209236619D01*
X135769285Y-209331857D01*
X135769285Y-209427095D01*
X135816904Y-209569952D01*
X136388333Y-210141380D01*
X135769285Y-210141380D01*
%TO.C,U24*%
X82293095Y-209141380D02*
X82293095Y-209950904D01*
X82245476Y-210046142D01*
X82197857Y-210093761D01*
X82102619Y-210141380D01*
X81912142Y-210141380D01*
X81816904Y-210093761D01*
X81769285Y-210046142D01*
X81721666Y-209950904D01*
X81721666Y-209141380D01*
X81293095Y-209236619D02*
X81245476Y-209189000D01*
X81150238Y-209141380D01*
X80912142Y-209141380D01*
X80816904Y-209189000D01*
X80769285Y-209236619D01*
X80721666Y-209331857D01*
X80721666Y-209427095D01*
X80769285Y-209569952D01*
X81340714Y-210141380D01*
X80721666Y-210141380D01*
X79864523Y-209474714D02*
X79864523Y-210141380D01*
X80102619Y-209093761D02*
X80340714Y-209808047D01*
X79721666Y-209808047D01*
%TO.C,U23*%
X110293095Y-209141380D02*
X110293095Y-209950904D01*
X110245476Y-210046142D01*
X110197857Y-210093761D01*
X110102619Y-210141380D01*
X109912142Y-210141380D01*
X109816904Y-210093761D01*
X109769285Y-210046142D01*
X109721666Y-209950904D01*
X109721666Y-209141380D01*
X109293095Y-209236619D02*
X109245476Y-209189000D01*
X109150238Y-209141380D01*
X108912142Y-209141380D01*
X108816904Y-209189000D01*
X108769285Y-209236619D01*
X108721666Y-209331857D01*
X108721666Y-209427095D01*
X108769285Y-209569952D01*
X109340714Y-210141380D01*
X108721666Y-210141380D01*
X108388333Y-209141380D02*
X107769285Y-209141380D01*
X108102619Y-209522333D01*
X107959761Y-209522333D01*
X107864523Y-209569952D01*
X107816904Y-209617571D01*
X107769285Y-209712809D01*
X107769285Y-209950904D01*
X107816904Y-210046142D01*
X107864523Y-210093761D01*
X107959761Y-210141380D01*
X108245476Y-210141380D01*
X108340714Y-210093761D01*
X108388333Y-210046142D01*
%TO.C,U30*%
X171673095Y-270925380D02*
X171673095Y-271734904D01*
X171625476Y-271830142D01*
X171577857Y-271877761D01*
X171482619Y-271925380D01*
X171292142Y-271925380D01*
X171196904Y-271877761D01*
X171149285Y-271830142D01*
X171101666Y-271734904D01*
X171101666Y-270925380D01*
X170720714Y-270925380D02*
X170101666Y-270925380D01*
X170435000Y-271306333D01*
X170292142Y-271306333D01*
X170196904Y-271353952D01*
X170149285Y-271401571D01*
X170101666Y-271496809D01*
X170101666Y-271734904D01*
X170149285Y-271830142D01*
X170196904Y-271877761D01*
X170292142Y-271925380D01*
X170577857Y-271925380D01*
X170673095Y-271877761D01*
X170720714Y-271830142D01*
X169482619Y-270925380D02*
X169387380Y-270925380D01*
X169292142Y-270973000D01*
X169244523Y-271020619D01*
X169196904Y-271115857D01*
X169149285Y-271306333D01*
X169149285Y-271544428D01*
X169196904Y-271734904D01*
X169244523Y-271830142D01*
X169292142Y-271877761D01*
X169387380Y-271925380D01*
X169482619Y-271925380D01*
X169577857Y-271877761D01*
X169625476Y-271830142D01*
X169673095Y-271734904D01*
X169720714Y-271544428D01*
X169720714Y-271306333D01*
X169673095Y-271115857D01*
X169625476Y-271020619D01*
X169577857Y-270973000D01*
X169482619Y-270925380D01*
%TO.C,U29*%
X143673095Y-270925380D02*
X143673095Y-271734904D01*
X143625476Y-271830142D01*
X143577857Y-271877761D01*
X143482619Y-271925380D01*
X143292142Y-271925380D01*
X143196904Y-271877761D01*
X143149285Y-271830142D01*
X143101666Y-271734904D01*
X143101666Y-270925380D01*
X142673095Y-271020619D02*
X142625476Y-270973000D01*
X142530238Y-270925380D01*
X142292142Y-270925380D01*
X142196904Y-270973000D01*
X142149285Y-271020619D01*
X142101666Y-271115857D01*
X142101666Y-271211095D01*
X142149285Y-271353952D01*
X142720714Y-271925380D01*
X142101666Y-271925380D01*
X141625476Y-271925380D02*
X141435000Y-271925380D01*
X141339761Y-271877761D01*
X141292142Y-271830142D01*
X141196904Y-271687285D01*
X141149285Y-271496809D01*
X141149285Y-271115857D01*
X141196904Y-271020619D01*
X141244523Y-270973000D01*
X141339761Y-270925380D01*
X141530238Y-270925380D01*
X141625476Y-270973000D01*
X141673095Y-271020619D01*
X141720714Y-271115857D01*
X141720714Y-271353952D01*
X141673095Y-271449190D01*
X141625476Y-271496809D01*
X141530238Y-271544428D01*
X141339761Y-271544428D01*
X141244523Y-271496809D01*
X141196904Y-271449190D01*
X141149285Y-271353952D01*
%TO.C,U25*%
X54293095Y-209141380D02*
X54293095Y-209950904D01*
X54245476Y-210046142D01*
X54197857Y-210093761D01*
X54102619Y-210141380D01*
X53912142Y-210141380D01*
X53816904Y-210093761D01*
X53769285Y-210046142D01*
X53721666Y-209950904D01*
X53721666Y-209141380D01*
X53293095Y-209236619D02*
X53245476Y-209189000D01*
X53150238Y-209141380D01*
X52912142Y-209141380D01*
X52816904Y-209189000D01*
X52769285Y-209236619D01*
X52721666Y-209331857D01*
X52721666Y-209427095D01*
X52769285Y-209569952D01*
X53340714Y-210141380D01*
X52721666Y-210141380D01*
X51816904Y-209141380D02*
X52293095Y-209141380D01*
X52340714Y-209617571D01*
X52293095Y-209569952D01*
X52197857Y-209522333D01*
X51959761Y-209522333D01*
X51864523Y-209569952D01*
X51816904Y-209617571D01*
X51769285Y-209712809D01*
X51769285Y-209950904D01*
X51816904Y-210046142D01*
X51864523Y-210093761D01*
X51959761Y-210141380D01*
X52197857Y-210141380D01*
X52293095Y-210093761D01*
X52340714Y-210046142D01*
%TO.C,U2*%
X57926904Y-131625380D02*
X57926904Y-132434904D01*
X57879285Y-132530142D01*
X57831666Y-132577761D01*
X57736428Y-132625380D01*
X57545952Y-132625380D01*
X57450714Y-132577761D01*
X57403095Y-132530142D01*
X57355476Y-132434904D01*
X57355476Y-131625380D01*
X56926904Y-131720619D02*
X56879285Y-131673000D01*
X56784047Y-131625380D01*
X56545952Y-131625380D01*
X56450714Y-131673000D01*
X56403095Y-131720619D01*
X56355476Y-131815857D01*
X56355476Y-131911095D01*
X56403095Y-132053952D01*
X56974523Y-132625380D01*
X56355476Y-132625380D01*
%TO.C,U32*%
X199673095Y-270925380D02*
X199673095Y-271734904D01*
X199625476Y-271830142D01*
X199577857Y-271877761D01*
X199482619Y-271925380D01*
X199292142Y-271925380D01*
X199196904Y-271877761D01*
X199149285Y-271830142D01*
X199101666Y-271734904D01*
X199101666Y-270925380D01*
X198720714Y-270925380D02*
X198101666Y-270925380D01*
X198435000Y-271306333D01*
X198292142Y-271306333D01*
X198196904Y-271353952D01*
X198149285Y-271401571D01*
X198101666Y-271496809D01*
X198101666Y-271734904D01*
X198149285Y-271830142D01*
X198196904Y-271877761D01*
X198292142Y-271925380D01*
X198577857Y-271925380D01*
X198673095Y-271877761D01*
X198720714Y-271830142D01*
X197720714Y-271020619D02*
X197673095Y-270973000D01*
X197577857Y-270925380D01*
X197339761Y-270925380D01*
X197244523Y-270973000D01*
X197196904Y-271020619D01*
X197149285Y-271115857D01*
X197149285Y-271211095D01*
X197196904Y-271353952D01*
X197768333Y-271925380D01*
X197149285Y-271925380D01*
%TO.C,U28*%
X115673095Y-270925380D02*
X115673095Y-271734904D01*
X115625476Y-271830142D01*
X115577857Y-271877761D01*
X115482619Y-271925380D01*
X115292142Y-271925380D01*
X115196904Y-271877761D01*
X115149285Y-271830142D01*
X115101666Y-271734904D01*
X115101666Y-270925380D01*
X114673095Y-271020619D02*
X114625476Y-270973000D01*
X114530238Y-270925380D01*
X114292142Y-270925380D01*
X114196904Y-270973000D01*
X114149285Y-271020619D01*
X114101666Y-271115857D01*
X114101666Y-271211095D01*
X114149285Y-271353952D01*
X114720714Y-271925380D01*
X114101666Y-271925380D01*
X113530238Y-271353952D02*
X113625476Y-271306333D01*
X113673095Y-271258714D01*
X113720714Y-271163476D01*
X113720714Y-271115857D01*
X113673095Y-271020619D01*
X113625476Y-270973000D01*
X113530238Y-270925380D01*
X113339761Y-270925380D01*
X113244523Y-270973000D01*
X113196904Y-271020619D01*
X113149285Y-271115857D01*
X113149285Y-271163476D01*
X113196904Y-271258714D01*
X113244523Y-271306333D01*
X113339761Y-271353952D01*
X113530238Y-271353952D01*
X113625476Y-271401571D01*
X113673095Y-271449190D01*
X113720714Y-271544428D01*
X113720714Y-271734904D01*
X113673095Y-271830142D01*
X113625476Y-271877761D01*
X113530238Y-271925380D01*
X113339761Y-271925380D01*
X113244523Y-271877761D01*
X113196904Y-271830142D01*
X113149285Y-271734904D01*
X113149285Y-271544428D01*
X113196904Y-271449190D01*
X113244523Y-271401571D01*
X113339761Y-271353952D01*
%TO.C,U27*%
X87673095Y-270925380D02*
X87673095Y-271734904D01*
X87625476Y-271830142D01*
X87577857Y-271877761D01*
X87482619Y-271925380D01*
X87292142Y-271925380D01*
X87196904Y-271877761D01*
X87149285Y-271830142D01*
X87101666Y-271734904D01*
X87101666Y-270925380D01*
X86673095Y-271020619D02*
X86625476Y-270973000D01*
X86530238Y-270925380D01*
X86292142Y-270925380D01*
X86196904Y-270973000D01*
X86149285Y-271020619D01*
X86101666Y-271115857D01*
X86101666Y-271211095D01*
X86149285Y-271353952D01*
X86720714Y-271925380D01*
X86101666Y-271925380D01*
X85768333Y-270925380D02*
X85101666Y-270925380D01*
X85530238Y-271925380D01*
%TO.C,U26*%
X59673095Y-270925380D02*
X59673095Y-271734904D01*
X59625476Y-271830142D01*
X59577857Y-271877761D01*
X59482619Y-271925380D01*
X59292142Y-271925380D01*
X59196904Y-271877761D01*
X59149285Y-271830142D01*
X59101666Y-271734904D01*
X59101666Y-270925380D01*
X58673095Y-271020619D02*
X58625476Y-270973000D01*
X58530238Y-270925380D01*
X58292142Y-270925380D01*
X58196904Y-270973000D01*
X58149285Y-271020619D01*
X58101666Y-271115857D01*
X58101666Y-271211095D01*
X58149285Y-271353952D01*
X58720714Y-271925380D01*
X58101666Y-271925380D01*
X57244523Y-270925380D02*
X57435000Y-270925380D01*
X57530238Y-270973000D01*
X57577857Y-271020619D01*
X57673095Y-271163476D01*
X57720714Y-271353952D01*
X57720714Y-271734904D01*
X57673095Y-271830142D01*
X57625476Y-271877761D01*
X57530238Y-271925380D01*
X57339761Y-271925380D01*
X57244523Y-271877761D01*
X57196904Y-271830142D01*
X57149285Y-271734904D01*
X57149285Y-271496809D01*
X57196904Y-271401571D01*
X57244523Y-271353952D01*
X57339761Y-271306333D01*
X57530238Y-271306333D01*
X57625476Y-271353952D01*
X57673095Y-271401571D01*
X57720714Y-271496809D01*
%TO.C,U21*%
X166293095Y-209141380D02*
X166293095Y-209950904D01*
X166245476Y-210046142D01*
X166197857Y-210093761D01*
X166102619Y-210141380D01*
X165912142Y-210141380D01*
X165816904Y-210093761D01*
X165769285Y-210046142D01*
X165721666Y-209950904D01*
X165721666Y-209141380D01*
X165293095Y-209236619D02*
X165245476Y-209189000D01*
X165150238Y-209141380D01*
X164912142Y-209141380D01*
X164816904Y-209189000D01*
X164769285Y-209236619D01*
X164721666Y-209331857D01*
X164721666Y-209427095D01*
X164769285Y-209569952D01*
X165340714Y-210141380D01*
X164721666Y-210141380D01*
X163769285Y-210141380D02*
X164340714Y-210141380D01*
X164055000Y-210141380D02*
X164055000Y-209141380D01*
X164150238Y-209284238D01*
X164245476Y-209379476D01*
X164340714Y-209427095D01*
%TO.C,U20*%
X194293095Y-209141380D02*
X194293095Y-209950904D01*
X194245476Y-210046142D01*
X194197857Y-210093761D01*
X194102619Y-210141380D01*
X193912142Y-210141380D01*
X193816904Y-210093761D01*
X193769285Y-210046142D01*
X193721666Y-209950904D01*
X193721666Y-209141380D01*
X193293095Y-209236619D02*
X193245476Y-209189000D01*
X193150238Y-209141380D01*
X192912142Y-209141380D01*
X192816904Y-209189000D01*
X192769285Y-209236619D01*
X192721666Y-209331857D01*
X192721666Y-209427095D01*
X192769285Y-209569952D01*
X193340714Y-210141380D01*
X192721666Y-210141380D01*
X192102619Y-209141380D02*
X192007380Y-209141380D01*
X191912142Y-209189000D01*
X191864523Y-209236619D01*
X191816904Y-209331857D01*
X191769285Y-209522333D01*
X191769285Y-209760428D01*
X191816904Y-209950904D01*
X191864523Y-210046142D01*
X191912142Y-210093761D01*
X192007380Y-210141380D01*
X192102619Y-210141380D01*
X192197857Y-210093761D01*
X192245476Y-210046142D01*
X192293095Y-209950904D01*
X192340714Y-209760428D01*
X192340714Y-209522333D01*
X192293095Y-209331857D01*
X192245476Y-209236619D01*
X192197857Y-209189000D01*
X192102619Y-209141380D01*
%TO.C,U16*%
X114403095Y-201275380D02*
X114403095Y-202084904D01*
X114355476Y-202180142D01*
X114307857Y-202227761D01*
X114212619Y-202275380D01*
X114022142Y-202275380D01*
X113926904Y-202227761D01*
X113879285Y-202180142D01*
X113831666Y-202084904D01*
X113831666Y-201275380D01*
X112831666Y-202275380D02*
X113403095Y-202275380D01*
X113117380Y-202275380D02*
X113117380Y-201275380D01*
X113212619Y-201418238D01*
X113307857Y-201513476D01*
X113403095Y-201561095D01*
X111974523Y-201275380D02*
X112165000Y-201275380D01*
X112260238Y-201323000D01*
X112307857Y-201370619D01*
X112403095Y-201513476D01*
X112450714Y-201703952D01*
X112450714Y-202084904D01*
X112403095Y-202180142D01*
X112355476Y-202227761D01*
X112260238Y-202275380D01*
X112069761Y-202275380D01*
X111974523Y-202227761D01*
X111926904Y-202180142D01*
X111879285Y-202084904D01*
X111879285Y-201846809D01*
X111926904Y-201751571D01*
X111974523Y-201703952D01*
X112069761Y-201656333D01*
X112260238Y-201656333D01*
X112355476Y-201703952D01*
X112403095Y-201751571D01*
X112450714Y-201846809D01*
%TO.C,U15*%
X86403095Y-201275380D02*
X86403095Y-202084904D01*
X86355476Y-202180142D01*
X86307857Y-202227761D01*
X86212619Y-202275380D01*
X86022142Y-202275380D01*
X85926904Y-202227761D01*
X85879285Y-202180142D01*
X85831666Y-202084904D01*
X85831666Y-201275380D01*
X84831666Y-202275380D02*
X85403095Y-202275380D01*
X85117380Y-202275380D02*
X85117380Y-201275380D01*
X85212619Y-201418238D01*
X85307857Y-201513476D01*
X85403095Y-201561095D01*
X83926904Y-201275380D02*
X84403095Y-201275380D01*
X84450714Y-201751571D01*
X84403095Y-201703952D01*
X84307857Y-201656333D01*
X84069761Y-201656333D01*
X83974523Y-201703952D01*
X83926904Y-201751571D01*
X83879285Y-201846809D01*
X83879285Y-202084904D01*
X83926904Y-202180142D01*
X83974523Y-202227761D01*
X84069761Y-202275380D01*
X84307857Y-202275380D01*
X84403095Y-202227761D01*
X84450714Y-202180142D01*
%TO.C,U14*%
X58403095Y-201275380D02*
X58403095Y-202084904D01*
X58355476Y-202180142D01*
X58307857Y-202227761D01*
X58212619Y-202275380D01*
X58022142Y-202275380D01*
X57926904Y-202227761D01*
X57879285Y-202180142D01*
X57831666Y-202084904D01*
X57831666Y-201275380D01*
X56831666Y-202275380D02*
X57403095Y-202275380D01*
X57117380Y-202275380D02*
X57117380Y-201275380D01*
X57212619Y-201418238D01*
X57307857Y-201513476D01*
X57403095Y-201561095D01*
X55974523Y-201608714D02*
X55974523Y-202275380D01*
X56212619Y-201227761D02*
X56450714Y-201942047D01*
X55831666Y-201942047D01*
%TO.C,U13*%
X54293095Y-139726380D02*
X54293095Y-140535904D01*
X54245476Y-140631142D01*
X54197857Y-140678761D01*
X54102619Y-140726380D01*
X53912142Y-140726380D01*
X53816904Y-140678761D01*
X53769285Y-140631142D01*
X53721666Y-140535904D01*
X53721666Y-139726380D01*
X52721666Y-140726380D02*
X53293095Y-140726380D01*
X53007380Y-140726380D02*
X53007380Y-139726380D01*
X53102619Y-139869238D01*
X53197857Y-139964476D01*
X53293095Y-140012095D01*
X52388333Y-139726380D02*
X51769285Y-139726380D01*
X52102619Y-140107333D01*
X51959761Y-140107333D01*
X51864523Y-140154952D01*
X51816904Y-140202571D01*
X51769285Y-140297809D01*
X51769285Y-140535904D01*
X51816904Y-140631142D01*
X51864523Y-140678761D01*
X51959761Y-140726380D01*
X52245476Y-140726380D01*
X52340714Y-140678761D01*
X52388333Y-140631142D01*
%TO.C,U12*%
X82293095Y-139726380D02*
X82293095Y-140535904D01*
X82245476Y-140631142D01*
X82197857Y-140678761D01*
X82102619Y-140726380D01*
X81912142Y-140726380D01*
X81816904Y-140678761D01*
X81769285Y-140631142D01*
X81721666Y-140535904D01*
X81721666Y-139726380D01*
X80721666Y-140726380D02*
X81293095Y-140726380D01*
X81007380Y-140726380D02*
X81007380Y-139726380D01*
X81102619Y-139869238D01*
X81197857Y-139964476D01*
X81293095Y-140012095D01*
X80340714Y-139821619D02*
X80293095Y-139774000D01*
X80197857Y-139726380D01*
X79959761Y-139726380D01*
X79864523Y-139774000D01*
X79816904Y-139821619D01*
X79769285Y-139916857D01*
X79769285Y-140012095D01*
X79816904Y-140154952D01*
X80388333Y-140726380D01*
X79769285Y-140726380D01*
%TO.C,U10*%
X138293095Y-139726380D02*
X138293095Y-140535904D01*
X138245476Y-140631142D01*
X138197857Y-140678761D01*
X138102619Y-140726380D01*
X137912142Y-140726380D01*
X137816904Y-140678761D01*
X137769285Y-140631142D01*
X137721666Y-140535904D01*
X137721666Y-139726380D01*
X136721666Y-140726380D02*
X137293095Y-140726380D01*
X137007380Y-140726380D02*
X137007380Y-139726380D01*
X137102619Y-139869238D01*
X137197857Y-139964476D01*
X137293095Y-140012095D01*
X136102619Y-139726380D02*
X136007380Y-139726380D01*
X135912142Y-139774000D01*
X135864523Y-139821619D01*
X135816904Y-139916857D01*
X135769285Y-140107333D01*
X135769285Y-140345428D01*
X135816904Y-140535904D01*
X135864523Y-140631142D01*
X135912142Y-140678761D01*
X136007380Y-140726380D01*
X136102619Y-140726380D01*
X136197857Y-140678761D01*
X136245476Y-140631142D01*
X136293095Y-140535904D01*
X136340714Y-140345428D01*
X136340714Y-140107333D01*
X136293095Y-139916857D01*
X136245476Y-139821619D01*
X136197857Y-139774000D01*
X136102619Y-139726380D01*
%TO.C,U6*%
X169926904Y-131625380D02*
X169926904Y-132434904D01*
X169879285Y-132530142D01*
X169831666Y-132577761D01*
X169736428Y-132625380D01*
X169545952Y-132625380D01*
X169450714Y-132577761D01*
X169403095Y-132530142D01*
X169355476Y-132434904D01*
X169355476Y-131625380D01*
X168450714Y-131625380D02*
X168641190Y-131625380D01*
X168736428Y-131673000D01*
X168784047Y-131720619D01*
X168879285Y-131863476D01*
X168926904Y-132053952D01*
X168926904Y-132434904D01*
X168879285Y-132530142D01*
X168831666Y-132577761D01*
X168736428Y-132625380D01*
X168545952Y-132625380D01*
X168450714Y-132577761D01*
X168403095Y-132530142D01*
X168355476Y-132434904D01*
X168355476Y-132196809D01*
X168403095Y-132101571D01*
X168450714Y-132053952D01*
X168545952Y-132006333D01*
X168736428Y-132006333D01*
X168831666Y-132053952D01*
X168879285Y-132101571D01*
X168926904Y-132196809D01*
%TO.C,U5*%
X141926904Y-131625380D02*
X141926904Y-132434904D01*
X141879285Y-132530142D01*
X141831666Y-132577761D01*
X141736428Y-132625380D01*
X141545952Y-132625380D01*
X141450714Y-132577761D01*
X141403095Y-132530142D01*
X141355476Y-132434904D01*
X141355476Y-131625380D01*
X140403095Y-131625380D02*
X140879285Y-131625380D01*
X140926904Y-132101571D01*
X140879285Y-132053952D01*
X140784047Y-132006333D01*
X140545952Y-132006333D01*
X140450714Y-132053952D01*
X140403095Y-132101571D01*
X140355476Y-132196809D01*
X140355476Y-132434904D01*
X140403095Y-132530142D01*
X140450714Y-132577761D01*
X140545952Y-132625380D01*
X140784047Y-132625380D01*
X140879285Y-132577761D01*
X140926904Y-132530142D01*
%TO.C,U4*%
X113926904Y-131625380D02*
X113926904Y-132434904D01*
X113879285Y-132530142D01*
X113831666Y-132577761D01*
X113736428Y-132625380D01*
X113545952Y-132625380D01*
X113450714Y-132577761D01*
X113403095Y-132530142D01*
X113355476Y-132434904D01*
X113355476Y-131625380D01*
X112450714Y-131958714D02*
X112450714Y-132625380D01*
X112688809Y-131577761D02*
X112926904Y-132292047D01*
X112307857Y-132292047D01*
%TO.C,U3*%
X85926904Y-131625380D02*
X85926904Y-132434904D01*
X85879285Y-132530142D01*
X85831666Y-132577761D01*
X85736428Y-132625380D01*
X85545952Y-132625380D01*
X85450714Y-132577761D01*
X85403095Y-132530142D01*
X85355476Y-132434904D01*
X85355476Y-131625380D01*
X84974523Y-131625380D02*
X84355476Y-131625380D01*
X84688809Y-132006333D01*
X84545952Y-132006333D01*
X84450714Y-132053952D01*
X84403095Y-132101571D01*
X84355476Y-132196809D01*
X84355476Y-132434904D01*
X84403095Y-132530142D01*
X84450714Y-132577761D01*
X84545952Y-132625380D01*
X84831666Y-132625380D01*
X84926904Y-132577761D01*
X84974523Y-132530142D01*
%TD*%
%LPC*%
D12*
X53609000Y-209643000D02*
X215661000Y-209643000D01*
X54117000Y-202785000D02*
X216169000Y-202785000D01*
X54371000Y-139285000D02*
X216423000Y-139285000D01*
X54625000Y-133443000D02*
X216677000Y-133443000D01*
D11*
G36*
X204993000Y-72991000D02*
G01*
X206771000Y-88485000D01*
X215661000Y-92295000D01*
X215661000Y-95089000D01*
X209819000Y-92549000D01*
X202961000Y-89501000D01*
X200675000Y-71467000D01*
X204993000Y-72991000D01*
G37*
X204993000Y-72991000D02*
X206771000Y-88485000D01*
X215661000Y-92295000D01*
X215661000Y-95089000D01*
X209819000Y-92549000D01*
X202961000Y-89501000D01*
X200675000Y-71467000D01*
X204993000Y-72991000D01*
G36*
X198389000Y-66895000D02*
G01*
X207279000Y-72229000D01*
X212105000Y-74515000D01*
X215661000Y-75785000D01*
X215661000Y-79849000D01*
X210835000Y-75785000D01*
X195595000Y-69943000D01*
X117617000Y-69943000D01*
X112537000Y-81373000D01*
X104917000Y-78325000D01*
X115077000Y-66641000D01*
X198389000Y-66895000D01*
G37*
X198389000Y-66895000D02*
X207279000Y-72229000D01*
X212105000Y-74515000D01*
X215661000Y-75785000D01*
X215661000Y-79849000D01*
X210835000Y-75785000D01*
X195595000Y-69943000D01*
X117617000Y-69943000D01*
X112537000Y-81373000D01*
X104917000Y-78325000D01*
X115077000Y-66641000D01*
X198389000Y-66895000D01*
G36*
X38623000Y-282287000D02*
G01*
X42687000Y-284573000D01*
X42687000Y-287367000D01*
X36591000Y-283557000D01*
X36591000Y-170273000D01*
X38623000Y-170273000D01*
X38623000Y-282287000D01*
G37*
X38623000Y-282287000D02*
X42687000Y-284573000D01*
X42687000Y-287367000D01*
X36591000Y-283557000D01*
X36591000Y-170273000D01*
X38623000Y-170273000D01*
X38623000Y-282287000D01*
G36*
X220741000Y-287367000D02*
G01*
X42687000Y-287367000D01*
X42687000Y-284573000D01*
X215661000Y-284573000D01*
X215407000Y-75785000D01*
X220995000Y-75785000D01*
X220741000Y-287367000D01*
G37*
X220741000Y-287367000D02*
X42687000Y-287367000D01*
X42687000Y-284573000D01*
X215661000Y-284573000D01*
X215407000Y-75785000D01*
X220995000Y-75785000D01*
X220741000Y-287367000D01*
G36*
X165877000Y-102709000D02*
G01*
X165623000Y-113377000D01*
X180101000Y-127855000D01*
X181371000Y-127855000D01*
X182133000Y-128617000D01*
X182133000Y-141317000D01*
X183149000Y-141317000D01*
X199659000Y-157573000D01*
X199659000Y-168241000D01*
X193817000Y-174591000D01*
X193817000Y-182973000D01*
X207279000Y-196689000D01*
X208549000Y-197705000D01*
X209565000Y-197705000D01*
X210327000Y-199229000D01*
X209819000Y-200499000D01*
X207279000Y-201007000D01*
X190515000Y-184497000D01*
X190261000Y-173321000D01*
X196611000Y-166971000D01*
X196611000Y-159097000D01*
X182387000Y-144619000D01*
X181117000Y-144619000D01*
X179085000Y-142333000D01*
X178831000Y-131157000D01*
X162321000Y-114393000D01*
X162321000Y-101185000D01*
X167147000Y-101185000D01*
X165877000Y-102709000D01*
G37*
X165877000Y-102709000D02*
X165623000Y-113377000D01*
X180101000Y-127855000D01*
X181371000Y-127855000D01*
X182133000Y-128617000D01*
X182133000Y-141317000D01*
X183149000Y-141317000D01*
X199659000Y-157573000D01*
X199659000Y-168241000D01*
X193817000Y-174591000D01*
X193817000Y-182973000D01*
X207279000Y-196689000D01*
X208549000Y-197705000D01*
X209565000Y-197705000D01*
X210327000Y-199229000D01*
X209819000Y-200499000D01*
X207279000Y-201007000D01*
X190515000Y-184497000D01*
X190261000Y-173321000D01*
X196611000Y-166971000D01*
X196611000Y-159097000D01*
X182387000Y-144619000D01*
X181117000Y-144619000D01*
X179085000Y-142333000D01*
X178831000Y-131157000D01*
X162321000Y-114393000D01*
X162321000Y-101185000D01*
X167147000Y-101185000D01*
X165877000Y-102709000D01*
G36*
X109743000Y-113377000D02*
G01*
X123967000Y-127855000D01*
X125745000Y-128109000D01*
X126253000Y-129125000D01*
X126253000Y-141317000D01*
X127523000Y-141317000D01*
X143779000Y-157827000D01*
X143779000Y-168241000D01*
X137683000Y-174337000D01*
X137683000Y-182973000D01*
X152161000Y-197705000D01*
X153939000Y-197959000D01*
X154193000Y-199229000D01*
X154193000Y-210659000D01*
X155717000Y-210913000D01*
X171719000Y-227169000D01*
X171719000Y-239869000D01*
X167147000Y-244695000D01*
X166893000Y-252569000D01*
X181371000Y-267301000D01*
X182895000Y-267301000D01*
X183657000Y-268317000D01*
X183911000Y-279239000D01*
X180101000Y-278477000D01*
X180101000Y-270349000D01*
X163591000Y-254093000D01*
X163591000Y-243425000D01*
X168417000Y-238599000D01*
X168417000Y-228439000D01*
X154193000Y-213961000D01*
X152415000Y-213707000D01*
X150891000Y-211675000D01*
X150891000Y-200753000D01*
X134381000Y-184243000D01*
X134381000Y-173067000D01*
X140477000Y-166971000D01*
X140477000Y-159097000D01*
X125999000Y-144619000D01*
X124729000Y-144365000D01*
X122951000Y-142587000D01*
X122951000Y-131157000D01*
X106441000Y-114647000D01*
X106441000Y-101185000D01*
X109997000Y-101185000D01*
X109743000Y-113377000D01*
G37*
X109743000Y-113377000D02*
X123967000Y-127855000D01*
X125745000Y-128109000D01*
X126253000Y-129125000D01*
X126253000Y-141317000D01*
X127523000Y-141317000D01*
X143779000Y-157827000D01*
X143779000Y-168241000D01*
X137683000Y-174337000D01*
X137683000Y-182973000D01*
X152161000Y-197705000D01*
X153939000Y-197959000D01*
X154193000Y-199229000D01*
X154193000Y-210659000D01*
X155717000Y-210913000D01*
X171719000Y-227169000D01*
X171719000Y-239869000D01*
X167147000Y-244695000D01*
X166893000Y-252569000D01*
X181371000Y-267301000D01*
X182895000Y-267301000D01*
X183657000Y-268317000D01*
X183911000Y-279239000D01*
X180101000Y-278477000D01*
X180101000Y-270349000D01*
X163591000Y-254093000D01*
X163591000Y-243425000D01*
X168417000Y-238599000D01*
X168417000Y-228439000D01*
X154193000Y-213961000D01*
X152415000Y-213707000D01*
X150891000Y-211675000D01*
X150891000Y-200753000D01*
X134381000Y-184243000D01*
X134381000Y-173067000D01*
X140477000Y-166971000D01*
X140477000Y-159097000D01*
X125999000Y-144619000D01*
X124729000Y-144365000D01*
X122951000Y-142587000D01*
X122951000Y-131157000D01*
X106441000Y-114647000D01*
X106441000Y-101185000D01*
X109997000Y-101185000D01*
X109743000Y-113377000D01*
G36*
X137683000Y-113123000D02*
G01*
X152161000Y-127855000D01*
X152923000Y-127855000D01*
X154193000Y-128617000D01*
X154447000Y-141317000D01*
X155463000Y-141317000D01*
X171719000Y-157827000D01*
X171973000Y-168241000D01*
X165877000Y-174337000D01*
X165877000Y-182973000D01*
X180101000Y-197451000D01*
X181117000Y-197451000D01*
X182133000Y-198467000D01*
X182387000Y-210659000D01*
X183403000Y-210913000D01*
X199659000Y-226915000D01*
X199659000Y-237837000D01*
X195087000Y-242409000D01*
X195087000Y-252569000D01*
X209311000Y-267301000D01*
X210327000Y-267301000D01*
X211343000Y-268063000D01*
X211597000Y-278477000D01*
X205501000Y-278731000D01*
X206517000Y-277715000D01*
X208295000Y-277715000D01*
X208295000Y-270603000D01*
X191785000Y-254093000D01*
X191785000Y-241393000D01*
X196357000Y-236567000D01*
X196357000Y-228439000D01*
X182133000Y-213961000D01*
X181117000Y-213961000D01*
X178831000Y-211675000D01*
X178831000Y-201007000D01*
X162575000Y-184497000D01*
X162321000Y-173321000D01*
X168417000Y-166971000D01*
X168417000Y-159097000D01*
X154193000Y-144619000D01*
X153177000Y-144619000D01*
X150891000Y-142587000D01*
X150891000Y-131411000D01*
X134381000Y-114901000D01*
X134381000Y-101185000D01*
X137683000Y-101185000D01*
X137683000Y-113123000D01*
G37*
X137683000Y-113123000D02*
X152161000Y-127855000D01*
X152923000Y-127855000D01*
X154193000Y-128617000D01*
X154447000Y-141317000D01*
X155463000Y-141317000D01*
X171719000Y-157827000D01*
X171973000Y-168241000D01*
X165877000Y-174337000D01*
X165877000Y-182973000D01*
X180101000Y-197451000D01*
X181117000Y-197451000D01*
X182133000Y-198467000D01*
X182387000Y-210659000D01*
X183403000Y-210913000D01*
X199659000Y-226915000D01*
X199659000Y-237837000D01*
X195087000Y-242409000D01*
X195087000Y-252569000D01*
X209311000Y-267301000D01*
X210327000Y-267301000D01*
X211343000Y-268063000D01*
X211597000Y-278477000D01*
X205501000Y-278731000D01*
X206517000Y-277715000D01*
X208295000Y-277715000D01*
X208295000Y-270603000D01*
X191785000Y-254093000D01*
X191785000Y-241393000D01*
X196357000Y-236567000D01*
X196357000Y-228439000D01*
X182133000Y-213961000D01*
X181117000Y-213961000D01*
X178831000Y-211675000D01*
X178831000Y-201007000D01*
X162575000Y-184497000D01*
X162321000Y-173321000D01*
X168417000Y-166971000D01*
X168417000Y-159097000D01*
X154193000Y-144619000D01*
X153177000Y-144619000D01*
X150891000Y-142587000D01*
X150891000Y-131411000D01*
X134381000Y-114901000D01*
X134381000Y-101185000D01*
X137683000Y-101185000D01*
X137683000Y-113123000D01*
G36*
X81803000Y-113377000D02*
G01*
X96027000Y-127855000D01*
X97043000Y-127855000D01*
X98313000Y-128871000D01*
X98313000Y-141317000D01*
X99329000Y-141317000D01*
X115839000Y-157827000D01*
X115839000Y-168241000D01*
X109743000Y-174337000D01*
X109743000Y-182973000D01*
X123967000Y-197451000D01*
X124983000Y-197451000D01*
X126253000Y-198467000D01*
X126253000Y-210659000D01*
X127269000Y-210659000D01*
X143779000Y-226915000D01*
X143779000Y-237583000D01*
X138953000Y-242663000D01*
X138953000Y-252569000D01*
X153177000Y-267047000D01*
X154193000Y-267301000D01*
X155463000Y-268063000D01*
X155717000Y-279239000D01*
X152161000Y-279239000D01*
X152161000Y-270603000D01*
X135651000Y-254093000D01*
X135651000Y-241393000D01*
X140477000Y-236567000D01*
X140477000Y-228439000D01*
X125999000Y-213961000D01*
X125237000Y-213961000D01*
X122951000Y-212183000D01*
X122951000Y-201007000D01*
X106441000Y-184497000D01*
X106441000Y-173321000D01*
X112537000Y-166971000D01*
X112537000Y-159097000D01*
X98059000Y-144619000D01*
X97043000Y-144619000D01*
X95011000Y-142333000D01*
X95011000Y-131157000D01*
X78501000Y-114647000D01*
X78247000Y-101693000D01*
X81803000Y-101439000D01*
X81803000Y-113377000D01*
G37*
X81803000Y-113377000D02*
X96027000Y-127855000D01*
X97043000Y-127855000D01*
X98313000Y-128871000D01*
X98313000Y-141317000D01*
X99329000Y-141317000D01*
X115839000Y-157827000D01*
X115839000Y-168241000D01*
X109743000Y-174337000D01*
X109743000Y-182973000D01*
X123967000Y-197451000D01*
X124983000Y-197451000D01*
X126253000Y-198467000D01*
X126253000Y-210659000D01*
X127269000Y-210659000D01*
X143779000Y-226915000D01*
X143779000Y-237583000D01*
X138953000Y-242663000D01*
X138953000Y-252569000D01*
X153177000Y-267047000D01*
X154193000Y-267301000D01*
X155463000Y-268063000D01*
X155717000Y-279239000D01*
X152161000Y-279239000D01*
X152161000Y-270603000D01*
X135651000Y-254093000D01*
X135651000Y-241393000D01*
X140477000Y-236567000D01*
X140477000Y-228439000D01*
X125999000Y-213961000D01*
X125237000Y-213961000D01*
X122951000Y-212183000D01*
X122951000Y-201007000D01*
X106441000Y-184497000D01*
X106441000Y-173321000D01*
X112537000Y-166971000D01*
X112537000Y-159097000D01*
X98059000Y-144619000D01*
X97043000Y-144619000D01*
X95011000Y-142333000D01*
X95011000Y-131157000D01*
X78501000Y-114647000D01*
X78247000Y-101693000D01*
X81803000Y-101439000D01*
X81803000Y-113377000D01*
G36*
X59959000Y-157827000D02*
G01*
X59705000Y-168495000D01*
X53863000Y-174591000D01*
X53863000Y-182973000D01*
X67833000Y-197197000D01*
X68087000Y-197451000D01*
X69357000Y-197705000D01*
X70119000Y-198467000D01*
X70373000Y-199483000D01*
X70373000Y-210659000D01*
X71897000Y-210913000D01*
X87899000Y-227423000D01*
X87645000Y-237837000D01*
X83073000Y-242917000D01*
X83073000Y-252823000D01*
X97551000Y-267301000D01*
X98821000Y-267301000D01*
X99583000Y-268317000D01*
X99583000Y-270603000D01*
X107711000Y-278731000D01*
X102885000Y-278731000D01*
X96027000Y-271619000D01*
X96027000Y-270349000D01*
X79517000Y-253839000D01*
X79771000Y-241139000D01*
X84343000Y-236313000D01*
X84343000Y-228439000D01*
X70119000Y-213961000D01*
X68849000Y-213961000D01*
X66817000Y-211675000D01*
X66817000Y-200753000D01*
X50307000Y-184243000D01*
X50307000Y-173321000D01*
X56403000Y-166971000D01*
X56403000Y-159097000D01*
X42433000Y-144873000D01*
X42179000Y-144619000D01*
X40909000Y-144365000D01*
X39893000Y-143349000D01*
X39893000Y-142333000D01*
X41163000Y-141317000D01*
X43449000Y-141317000D01*
X59959000Y-157827000D01*
G37*
X59959000Y-157827000D02*
X59705000Y-168495000D01*
X53863000Y-174591000D01*
X53863000Y-182973000D01*
X67833000Y-197197000D01*
X68087000Y-197451000D01*
X69357000Y-197705000D01*
X70119000Y-198467000D01*
X70373000Y-199483000D01*
X70373000Y-210659000D01*
X71897000Y-210913000D01*
X87899000Y-227423000D01*
X87645000Y-237837000D01*
X83073000Y-242917000D01*
X83073000Y-252823000D01*
X97551000Y-267301000D01*
X98821000Y-267301000D01*
X99583000Y-268317000D01*
X99583000Y-270603000D01*
X107711000Y-278731000D01*
X102885000Y-278731000D01*
X96027000Y-271619000D01*
X96027000Y-270349000D01*
X79517000Y-253839000D01*
X79771000Y-241139000D01*
X84343000Y-236313000D01*
X84343000Y-228439000D01*
X70119000Y-213961000D01*
X68849000Y-213961000D01*
X66817000Y-211675000D01*
X66817000Y-200753000D01*
X50307000Y-184243000D01*
X50307000Y-173321000D01*
X56403000Y-166971000D01*
X56403000Y-159097000D01*
X42433000Y-144873000D01*
X42179000Y-144619000D01*
X40909000Y-144365000D01*
X39893000Y-143349000D01*
X39893000Y-142333000D01*
X41163000Y-141317000D01*
X43449000Y-141317000D01*
X59959000Y-157827000D01*
G36*
X59959000Y-227169000D02*
G01*
X59959000Y-237583000D01*
X55133000Y-242663000D01*
X55133000Y-252823000D01*
X69357000Y-267047000D01*
X70627000Y-267301000D01*
X82311000Y-278731000D01*
X81041000Y-282033000D01*
X80025000Y-281525000D01*
X69103000Y-270603000D01*
X67579000Y-270095000D01*
X51577000Y-253839000D01*
X51577000Y-241139000D01*
X56403000Y-236313000D01*
X56403000Y-228439000D01*
X42433000Y-214215000D01*
X41671000Y-213961000D01*
X40655000Y-213961000D01*
X39893000Y-212437000D01*
X40401000Y-210913000D01*
X41417000Y-210659000D01*
X43449000Y-210659000D01*
X59959000Y-227169000D01*
G37*
X59959000Y-227169000D02*
X59959000Y-237583000D01*
X55133000Y-242663000D01*
X55133000Y-252823000D01*
X69357000Y-267047000D01*
X70627000Y-267301000D01*
X82311000Y-278731000D01*
X81041000Y-282033000D01*
X80025000Y-281525000D01*
X69103000Y-270603000D01*
X67579000Y-270095000D01*
X51577000Y-253839000D01*
X51577000Y-241139000D01*
X56403000Y-236313000D01*
X56403000Y-228439000D01*
X42433000Y-214215000D01*
X41671000Y-213961000D01*
X40655000Y-213961000D01*
X39893000Y-212437000D01*
X40401000Y-210913000D01*
X41417000Y-210659000D01*
X43449000Y-210659000D01*
X59959000Y-227169000D01*
G36*
X210835000Y-280763000D02*
G01*
X209819000Y-281017000D01*
X207787000Y-281271000D01*
X206263000Y-282287000D01*
X81041000Y-282033000D01*
X82311000Y-278731000D01*
X211597000Y-278477000D01*
X210835000Y-280763000D01*
G37*
X210835000Y-280763000D02*
X209819000Y-281017000D01*
X207787000Y-281271000D01*
X206263000Y-282287000D01*
X81041000Y-282033000D01*
X82311000Y-278731000D01*
X211597000Y-278477000D01*
X210835000Y-280763000D01*
G36*
X56403000Y-101439000D02*
G01*
X53863000Y-104233000D01*
X53863000Y-113377000D01*
X68087000Y-127855000D01*
X68849000Y-127855000D01*
X70373000Y-128871000D01*
X70373000Y-141317000D01*
X71389000Y-141317000D01*
X87899000Y-157573000D01*
X87899000Y-168241000D01*
X81803000Y-174591000D01*
X81803000Y-182973000D01*
X96027000Y-197451000D01*
X97297000Y-197705000D01*
X98313000Y-198467000D01*
X98313000Y-210659000D01*
X99329000Y-210659000D01*
X115839000Y-227169000D01*
X115839000Y-237837000D01*
X111013000Y-242663000D01*
X111013000Y-252569000D01*
X125237000Y-267047000D01*
X126761000Y-267301000D01*
X127523000Y-268063000D01*
X128031000Y-278985000D01*
X124221000Y-278985000D01*
X124221000Y-270603000D01*
X107711000Y-254093000D01*
X107711000Y-241393000D01*
X112283000Y-236567000D01*
X112283000Y-228439000D01*
X98059000Y-213961000D01*
X96789000Y-213961000D01*
X94757000Y-211675000D01*
X94757000Y-200753000D01*
X78501000Y-184497000D01*
X78247000Y-173321000D01*
X84343000Y-166971000D01*
X84343000Y-159097000D01*
X70119000Y-144619000D01*
X68849000Y-144619000D01*
X67071000Y-142587000D01*
X66817000Y-131157000D01*
X50561000Y-114901000D01*
X50307000Y-102963000D01*
X53863000Y-99407000D01*
X56403000Y-101439000D01*
G37*
X56403000Y-101439000D02*
X53863000Y-104233000D01*
X53863000Y-113377000D01*
X68087000Y-127855000D01*
X68849000Y-127855000D01*
X70373000Y-128871000D01*
X70373000Y-141317000D01*
X71389000Y-141317000D01*
X87899000Y-157573000D01*
X87899000Y-168241000D01*
X81803000Y-174591000D01*
X81803000Y-182973000D01*
X96027000Y-197451000D01*
X97297000Y-197705000D01*
X98313000Y-198467000D01*
X98313000Y-210659000D01*
X99329000Y-210659000D01*
X115839000Y-227169000D01*
X115839000Y-237837000D01*
X111013000Y-242663000D01*
X111013000Y-252569000D01*
X125237000Y-267047000D01*
X126761000Y-267301000D01*
X127523000Y-268063000D01*
X128031000Y-278985000D01*
X124221000Y-278985000D01*
X124221000Y-270603000D01*
X107711000Y-254093000D01*
X107711000Y-241393000D01*
X112283000Y-236567000D01*
X112283000Y-228439000D01*
X98059000Y-213961000D01*
X96789000Y-213961000D01*
X94757000Y-211675000D01*
X94757000Y-200753000D01*
X78501000Y-184497000D01*
X78247000Y-173321000D01*
X84343000Y-166971000D01*
X84343000Y-159097000D01*
X70119000Y-144619000D01*
X68849000Y-144619000D01*
X67071000Y-142587000D01*
X66817000Y-131157000D01*
X50561000Y-114901000D01*
X50307000Y-102963000D01*
X53863000Y-99407000D01*
X56403000Y-101439000D01*
G36*
X149367000Y-92295000D02*
G01*
X149621000Y-96613000D01*
X145049000Y-96613000D01*
X145049000Y-92549000D01*
X146573000Y-91025000D01*
X148351000Y-91025000D01*
X149367000Y-92295000D01*
G37*
X149367000Y-92295000D02*
X149621000Y-96613000D01*
X145049000Y-96613000D01*
X145049000Y-92549000D01*
X146573000Y-91025000D01*
X148351000Y-91025000D01*
X149367000Y-92295000D01*
G36*
X170703000Y-96613000D02*
G01*
X155209000Y-96613000D01*
X160289000Y-91787000D01*
X166385000Y-91787000D01*
X170703000Y-96613000D01*
G37*
X170703000Y-96613000D02*
X155209000Y-96613000D01*
X160289000Y-91787000D01*
X166385000Y-91787000D01*
X170703000Y-96613000D01*
G36*
X193817000Y-101693000D02*
G01*
X193817000Y-113377000D01*
X208041000Y-127855000D01*
X208803000Y-127855000D01*
X209819000Y-128109000D01*
X210327000Y-129125000D01*
X210073000Y-130649000D01*
X208803000Y-131157000D01*
X206771000Y-131157000D01*
X190261000Y-114393000D01*
X190261000Y-103217000D01*
X188483000Y-101439000D01*
X190007000Y-99915000D01*
X193817000Y-101693000D01*
G37*
X193817000Y-101693000D02*
X193817000Y-113377000D01*
X208041000Y-127855000D01*
X208803000Y-127855000D01*
X209819000Y-128109000D01*
X210327000Y-129125000D01*
X210073000Y-130649000D01*
X208803000Y-131157000D01*
X206771000Y-131157000D01*
X190261000Y-114393000D01*
X190261000Y-103217000D01*
X188483000Y-101439000D01*
X190007000Y-99915000D01*
X193817000Y-101693000D01*
G36*
X193055000Y-101439000D02*
G01*
X52339000Y-101693000D01*
X55641000Y-96613000D01*
X189499000Y-96613000D01*
X193055000Y-101439000D01*
G37*
X193055000Y-101439000D02*
X52339000Y-101693000D01*
X55641000Y-96613000D01*
X189499000Y-96613000D01*
X193055000Y-101439000D01*
D13*
%TO.C,U33*%
X147335000Y-93311000D03*
X147335000Y-72991000D03*
X132095000Y-72991000D03*
X132095000Y-93311000D03*
X139715000Y-93311000D03*
X139715000Y-72991000D03*
%TD*%
D14*
%TO.C,U9*%
X176485000Y-150561000D03*
X176485000Y-148021000D03*
X176485000Y-145481000D03*
X176485000Y-142941000D03*
X176485000Y-153101000D03*
X176485000Y-155641000D03*
X176485000Y-158181000D03*
X176485000Y-160721000D03*
X176485000Y-163261000D03*
X176485000Y-165801000D03*
X176485000Y-168341000D03*
X153625000Y-142941000D03*
X153625000Y-145481000D03*
X153625000Y-148021000D03*
X153625000Y-150561000D03*
X153625000Y-153101000D03*
X153625000Y-155641000D03*
X153625000Y-158181000D03*
X153625000Y-160721000D03*
X153625000Y-163261000D03*
X153625000Y-165801000D03*
X153625000Y-168341000D03*
%TD*%
%TO.C,U7*%
X185735000Y-121886000D03*
X185735000Y-124426000D03*
X185735000Y-126966000D03*
X185735000Y-129506000D03*
X185735000Y-119346000D03*
X185735000Y-116806000D03*
X185735000Y-114266000D03*
X185735000Y-111726000D03*
X185735000Y-109186000D03*
X185735000Y-106646000D03*
X185735000Y-104106000D03*
X208595000Y-129506000D03*
X208595000Y-126966000D03*
X208595000Y-124426000D03*
X208595000Y-121886000D03*
X208595000Y-119346000D03*
X208595000Y-116806000D03*
X208595000Y-114266000D03*
X208595000Y-111726000D03*
X208595000Y-109186000D03*
X208595000Y-106646000D03*
X208595000Y-104106000D03*
%TD*%
%TO.C,U8*%
X204485000Y-150561000D03*
X204485000Y-148021000D03*
X204485000Y-145481000D03*
X204485000Y-142941000D03*
X204485000Y-153101000D03*
X204485000Y-155641000D03*
X204485000Y-158181000D03*
X204485000Y-160721000D03*
X204485000Y-163261000D03*
X204485000Y-165801000D03*
X204485000Y-168341000D03*
X181625000Y-142941000D03*
X181625000Y-145481000D03*
X181625000Y-148021000D03*
X181625000Y-150561000D03*
X181625000Y-153101000D03*
X181625000Y-155641000D03*
X181625000Y-158181000D03*
X181625000Y-160721000D03*
X181625000Y-163261000D03*
X181625000Y-165801000D03*
X181625000Y-168341000D03*
%TD*%
%TO.C,U11*%
X120485000Y-150561000D03*
X120485000Y-148021000D03*
X120485000Y-145481000D03*
X120485000Y-142941000D03*
X120485000Y-153101000D03*
X120485000Y-155641000D03*
X120485000Y-158181000D03*
X120485000Y-160721000D03*
X120485000Y-163261000D03*
X120485000Y-165801000D03*
X120485000Y-168341000D03*
X97625000Y-142941000D03*
X97625000Y-145481000D03*
X97625000Y-148021000D03*
X97625000Y-150561000D03*
X97625000Y-153101000D03*
X97625000Y-155641000D03*
X97625000Y-158181000D03*
X97625000Y-160721000D03*
X97625000Y-163261000D03*
X97625000Y-165801000D03*
X97625000Y-168341000D03*
%TD*%
%TO.C,U19*%
X185735000Y-191536000D03*
X185735000Y-194076000D03*
X185735000Y-196616000D03*
X185735000Y-199156000D03*
X185735000Y-188996000D03*
X185735000Y-186456000D03*
X185735000Y-183916000D03*
X185735000Y-181376000D03*
X185735000Y-178836000D03*
X185735000Y-176296000D03*
X185735000Y-173756000D03*
X208595000Y-199156000D03*
X208595000Y-196616000D03*
X208595000Y-194076000D03*
X208595000Y-191536000D03*
X208595000Y-188996000D03*
X208595000Y-186456000D03*
X208595000Y-183916000D03*
X208595000Y-181376000D03*
X208595000Y-178836000D03*
X208595000Y-176296000D03*
X208595000Y-173756000D03*
%TD*%
%TO.C,U18*%
X157735000Y-191536000D03*
X157735000Y-194076000D03*
X157735000Y-196616000D03*
X157735000Y-199156000D03*
X157735000Y-188996000D03*
X157735000Y-186456000D03*
X157735000Y-183916000D03*
X157735000Y-181376000D03*
X157735000Y-178836000D03*
X157735000Y-176296000D03*
X157735000Y-173756000D03*
X180595000Y-199156000D03*
X180595000Y-196616000D03*
X180595000Y-194076000D03*
X180595000Y-191536000D03*
X180595000Y-188996000D03*
X180595000Y-186456000D03*
X180595000Y-183916000D03*
X180595000Y-181376000D03*
X180595000Y-178836000D03*
X180595000Y-176296000D03*
X180595000Y-173756000D03*
%TD*%
%TO.C,U17*%
X129735000Y-191536000D03*
X129735000Y-194076000D03*
X129735000Y-196616000D03*
X129735000Y-199156000D03*
X129735000Y-188996000D03*
X129735000Y-186456000D03*
X129735000Y-183916000D03*
X129735000Y-181376000D03*
X129735000Y-178836000D03*
X129735000Y-176296000D03*
X129735000Y-173756000D03*
X152595000Y-199156000D03*
X152595000Y-196616000D03*
X152595000Y-194076000D03*
X152595000Y-191536000D03*
X152595000Y-188996000D03*
X152595000Y-186456000D03*
X152595000Y-183916000D03*
X152595000Y-181376000D03*
X152595000Y-178836000D03*
X152595000Y-176296000D03*
X152595000Y-173756000D03*
%TD*%
%TO.C,U22*%
X148485000Y-219976000D03*
X148485000Y-217436000D03*
X148485000Y-214896000D03*
X148485000Y-212356000D03*
X148485000Y-222516000D03*
X148485000Y-225056000D03*
X148485000Y-227596000D03*
X148485000Y-230136000D03*
X148485000Y-232676000D03*
X148485000Y-235216000D03*
X148485000Y-237756000D03*
X125625000Y-212356000D03*
X125625000Y-214896000D03*
X125625000Y-217436000D03*
X125625000Y-219976000D03*
X125625000Y-222516000D03*
X125625000Y-225056000D03*
X125625000Y-227596000D03*
X125625000Y-230136000D03*
X125625000Y-232676000D03*
X125625000Y-235216000D03*
X125625000Y-237756000D03*
%TD*%
%TO.C,U24*%
X92485000Y-219976000D03*
X92485000Y-217436000D03*
X92485000Y-214896000D03*
X92485000Y-212356000D03*
X92485000Y-222516000D03*
X92485000Y-225056000D03*
X92485000Y-227596000D03*
X92485000Y-230136000D03*
X92485000Y-232676000D03*
X92485000Y-235216000D03*
X92485000Y-237756000D03*
X69625000Y-212356000D03*
X69625000Y-214896000D03*
X69625000Y-217436000D03*
X69625000Y-219976000D03*
X69625000Y-222516000D03*
X69625000Y-225056000D03*
X69625000Y-227596000D03*
X69625000Y-230136000D03*
X69625000Y-232676000D03*
X69625000Y-235216000D03*
X69625000Y-237756000D03*
%TD*%
%TO.C,U23*%
X120485000Y-219976000D03*
X120485000Y-217436000D03*
X120485000Y-214896000D03*
X120485000Y-212356000D03*
X120485000Y-222516000D03*
X120485000Y-225056000D03*
X120485000Y-227596000D03*
X120485000Y-230136000D03*
X120485000Y-232676000D03*
X120485000Y-235216000D03*
X120485000Y-237756000D03*
X97625000Y-212356000D03*
X97625000Y-214896000D03*
X97625000Y-217436000D03*
X97625000Y-219976000D03*
X97625000Y-222516000D03*
X97625000Y-225056000D03*
X97625000Y-227596000D03*
X97625000Y-230136000D03*
X97625000Y-232676000D03*
X97625000Y-235216000D03*
X97625000Y-237756000D03*
%TD*%
%TO.C,U30*%
X159005000Y-261186000D03*
X159005000Y-263726000D03*
X159005000Y-266266000D03*
X159005000Y-268806000D03*
X159005000Y-258646000D03*
X159005000Y-256106000D03*
X159005000Y-253566000D03*
X159005000Y-251026000D03*
X159005000Y-248486000D03*
X159005000Y-245946000D03*
X159005000Y-243406000D03*
X181865000Y-268806000D03*
X181865000Y-266266000D03*
X181865000Y-263726000D03*
X181865000Y-261186000D03*
X181865000Y-258646000D03*
X181865000Y-256106000D03*
X181865000Y-253566000D03*
X181865000Y-251026000D03*
X181865000Y-248486000D03*
X181865000Y-245946000D03*
X181865000Y-243406000D03*
%TD*%
%TO.C,U29*%
X131005000Y-261186000D03*
X131005000Y-263726000D03*
X131005000Y-266266000D03*
X131005000Y-268806000D03*
X131005000Y-258646000D03*
X131005000Y-256106000D03*
X131005000Y-253566000D03*
X131005000Y-251026000D03*
X131005000Y-248486000D03*
X131005000Y-245946000D03*
X131005000Y-243406000D03*
X153865000Y-268806000D03*
X153865000Y-266266000D03*
X153865000Y-263726000D03*
X153865000Y-261186000D03*
X153865000Y-258646000D03*
X153865000Y-256106000D03*
X153865000Y-253566000D03*
X153865000Y-251026000D03*
X153865000Y-248486000D03*
X153865000Y-245946000D03*
X153865000Y-243406000D03*
%TD*%
%TO.C,U25*%
X64485000Y-219976000D03*
X64485000Y-217436000D03*
X64485000Y-214896000D03*
X64485000Y-212356000D03*
X64485000Y-222516000D03*
X64485000Y-225056000D03*
X64485000Y-227596000D03*
X64485000Y-230136000D03*
X64485000Y-232676000D03*
X64485000Y-235216000D03*
X64485000Y-237756000D03*
X41625000Y-212356000D03*
X41625000Y-214896000D03*
X41625000Y-217436000D03*
X41625000Y-219976000D03*
X41625000Y-222516000D03*
X41625000Y-225056000D03*
X41625000Y-227596000D03*
X41625000Y-230136000D03*
X41625000Y-232676000D03*
X41625000Y-235216000D03*
X41625000Y-237756000D03*
%TD*%
%TO.C,U2*%
X45735000Y-121886000D03*
X45735000Y-124426000D03*
X45735000Y-126966000D03*
X45735000Y-129506000D03*
X45735000Y-119346000D03*
X45735000Y-116806000D03*
X45735000Y-114266000D03*
X45735000Y-111726000D03*
X45735000Y-109186000D03*
X45735000Y-106646000D03*
X45735000Y-104106000D03*
X68595000Y-129506000D03*
X68595000Y-126966000D03*
X68595000Y-124426000D03*
X68595000Y-121886000D03*
X68595000Y-119346000D03*
X68595000Y-116806000D03*
X68595000Y-114266000D03*
X68595000Y-111726000D03*
X68595000Y-109186000D03*
X68595000Y-106646000D03*
X68595000Y-104106000D03*
%TD*%
%TO.C,U32*%
X187005000Y-261186000D03*
X187005000Y-263726000D03*
X187005000Y-266266000D03*
X187005000Y-268806000D03*
X187005000Y-258646000D03*
X187005000Y-256106000D03*
X187005000Y-253566000D03*
X187005000Y-251026000D03*
X187005000Y-248486000D03*
X187005000Y-245946000D03*
X187005000Y-243406000D03*
X209865000Y-268806000D03*
X209865000Y-266266000D03*
X209865000Y-263726000D03*
X209865000Y-261186000D03*
X209865000Y-258646000D03*
X209865000Y-256106000D03*
X209865000Y-253566000D03*
X209865000Y-251026000D03*
X209865000Y-248486000D03*
X209865000Y-245946000D03*
X209865000Y-243406000D03*
%TD*%
%TO.C,U28*%
X103005000Y-261186000D03*
X103005000Y-263726000D03*
X103005000Y-266266000D03*
X103005000Y-268806000D03*
X103005000Y-258646000D03*
X103005000Y-256106000D03*
X103005000Y-253566000D03*
X103005000Y-251026000D03*
X103005000Y-248486000D03*
X103005000Y-245946000D03*
X103005000Y-243406000D03*
X125865000Y-268806000D03*
X125865000Y-266266000D03*
X125865000Y-263726000D03*
X125865000Y-261186000D03*
X125865000Y-258646000D03*
X125865000Y-256106000D03*
X125865000Y-253566000D03*
X125865000Y-251026000D03*
X125865000Y-248486000D03*
X125865000Y-245946000D03*
X125865000Y-243406000D03*
%TD*%
%TO.C,U27*%
X75005000Y-261186000D03*
X75005000Y-263726000D03*
X75005000Y-266266000D03*
X75005000Y-268806000D03*
X75005000Y-258646000D03*
X75005000Y-256106000D03*
X75005000Y-253566000D03*
X75005000Y-251026000D03*
X75005000Y-248486000D03*
X75005000Y-245946000D03*
X75005000Y-243406000D03*
X97865000Y-268806000D03*
X97865000Y-266266000D03*
X97865000Y-263726000D03*
X97865000Y-261186000D03*
X97865000Y-258646000D03*
X97865000Y-256106000D03*
X97865000Y-253566000D03*
X97865000Y-251026000D03*
X97865000Y-248486000D03*
X97865000Y-245946000D03*
X97865000Y-243406000D03*
%TD*%
%TO.C,U26*%
X47005000Y-261186000D03*
X47005000Y-263726000D03*
X47005000Y-266266000D03*
X47005000Y-268806000D03*
X47005000Y-258646000D03*
X47005000Y-256106000D03*
X47005000Y-253566000D03*
X47005000Y-251026000D03*
X47005000Y-248486000D03*
X47005000Y-245946000D03*
X47005000Y-243406000D03*
X69865000Y-268806000D03*
X69865000Y-266266000D03*
X69865000Y-263726000D03*
X69865000Y-261186000D03*
X69865000Y-258646000D03*
X69865000Y-256106000D03*
X69865000Y-253566000D03*
X69865000Y-251026000D03*
X69865000Y-248486000D03*
X69865000Y-245946000D03*
X69865000Y-243406000D03*
%TD*%
%TO.C,U21*%
X176485000Y-219976000D03*
X176485000Y-217436000D03*
X176485000Y-214896000D03*
X176485000Y-212356000D03*
X176485000Y-222516000D03*
X176485000Y-225056000D03*
X176485000Y-227596000D03*
X176485000Y-230136000D03*
X176485000Y-232676000D03*
X176485000Y-235216000D03*
X176485000Y-237756000D03*
X153625000Y-212356000D03*
X153625000Y-214896000D03*
X153625000Y-217436000D03*
X153625000Y-219976000D03*
X153625000Y-222516000D03*
X153625000Y-225056000D03*
X153625000Y-227596000D03*
X153625000Y-230136000D03*
X153625000Y-232676000D03*
X153625000Y-235216000D03*
X153625000Y-237756000D03*
%TD*%
%TO.C,U20*%
X204485000Y-219976000D03*
X204485000Y-217436000D03*
X204485000Y-214896000D03*
X204485000Y-212356000D03*
X204485000Y-222516000D03*
X204485000Y-225056000D03*
X204485000Y-227596000D03*
X204485000Y-230136000D03*
X204485000Y-232676000D03*
X204485000Y-235216000D03*
X204485000Y-237756000D03*
X181625000Y-212356000D03*
X181625000Y-214896000D03*
X181625000Y-217436000D03*
X181625000Y-219976000D03*
X181625000Y-222516000D03*
X181625000Y-225056000D03*
X181625000Y-227596000D03*
X181625000Y-230136000D03*
X181625000Y-232676000D03*
X181625000Y-235216000D03*
X181625000Y-237756000D03*
%TD*%
%TO.C,U16*%
X101735000Y-191536000D03*
X101735000Y-194076000D03*
X101735000Y-196616000D03*
X101735000Y-199156000D03*
X101735000Y-188996000D03*
X101735000Y-186456000D03*
X101735000Y-183916000D03*
X101735000Y-181376000D03*
X101735000Y-178836000D03*
X101735000Y-176296000D03*
X101735000Y-173756000D03*
X124595000Y-199156000D03*
X124595000Y-196616000D03*
X124595000Y-194076000D03*
X124595000Y-191536000D03*
X124595000Y-188996000D03*
X124595000Y-186456000D03*
X124595000Y-183916000D03*
X124595000Y-181376000D03*
X124595000Y-178836000D03*
X124595000Y-176296000D03*
X124595000Y-173756000D03*
%TD*%
%TO.C,U15*%
X73735000Y-191536000D03*
X73735000Y-194076000D03*
X73735000Y-196616000D03*
X73735000Y-199156000D03*
X73735000Y-188996000D03*
X73735000Y-186456000D03*
X73735000Y-183916000D03*
X73735000Y-181376000D03*
X73735000Y-178836000D03*
X73735000Y-176296000D03*
X73735000Y-173756000D03*
X96595000Y-199156000D03*
X96595000Y-196616000D03*
X96595000Y-194076000D03*
X96595000Y-191536000D03*
X96595000Y-188996000D03*
X96595000Y-186456000D03*
X96595000Y-183916000D03*
X96595000Y-181376000D03*
X96595000Y-178836000D03*
X96595000Y-176296000D03*
X96595000Y-173756000D03*
%TD*%
%TO.C,U14*%
X45735000Y-191536000D03*
X45735000Y-194076000D03*
X45735000Y-196616000D03*
X45735000Y-199156000D03*
X45735000Y-188996000D03*
X45735000Y-186456000D03*
X45735000Y-183916000D03*
X45735000Y-181376000D03*
X45735000Y-178836000D03*
X45735000Y-176296000D03*
X45735000Y-173756000D03*
X68595000Y-199156000D03*
X68595000Y-196616000D03*
X68595000Y-194076000D03*
X68595000Y-191536000D03*
X68595000Y-188996000D03*
X68595000Y-186456000D03*
X68595000Y-183916000D03*
X68595000Y-181376000D03*
X68595000Y-178836000D03*
X68595000Y-176296000D03*
X68595000Y-173756000D03*
%TD*%
%TO.C,U13*%
X64485000Y-150561000D03*
X64485000Y-148021000D03*
X64485000Y-145481000D03*
X64485000Y-142941000D03*
X64485000Y-153101000D03*
X64485000Y-155641000D03*
X64485000Y-158181000D03*
X64485000Y-160721000D03*
X64485000Y-163261000D03*
X64485000Y-165801000D03*
X64485000Y-168341000D03*
X41625000Y-142941000D03*
X41625000Y-145481000D03*
X41625000Y-148021000D03*
X41625000Y-150561000D03*
X41625000Y-153101000D03*
X41625000Y-155641000D03*
X41625000Y-158181000D03*
X41625000Y-160721000D03*
X41625000Y-163261000D03*
X41625000Y-165801000D03*
X41625000Y-168341000D03*
%TD*%
%TO.C,U12*%
X92485000Y-150561000D03*
X92485000Y-148021000D03*
X92485000Y-145481000D03*
X92485000Y-142941000D03*
X92485000Y-153101000D03*
X92485000Y-155641000D03*
X92485000Y-158181000D03*
X92485000Y-160721000D03*
X92485000Y-163261000D03*
X92485000Y-165801000D03*
X92485000Y-168341000D03*
X69625000Y-142941000D03*
X69625000Y-145481000D03*
X69625000Y-148021000D03*
X69625000Y-150561000D03*
X69625000Y-153101000D03*
X69625000Y-155641000D03*
X69625000Y-158181000D03*
X69625000Y-160721000D03*
X69625000Y-163261000D03*
X69625000Y-165801000D03*
X69625000Y-168341000D03*
%TD*%
%TO.C,U10*%
X148485000Y-150561000D03*
X148485000Y-148021000D03*
X148485000Y-145481000D03*
X148485000Y-142941000D03*
X148485000Y-153101000D03*
X148485000Y-155641000D03*
X148485000Y-158181000D03*
X148485000Y-160721000D03*
X148485000Y-163261000D03*
X148485000Y-165801000D03*
X148485000Y-168341000D03*
X125625000Y-142941000D03*
X125625000Y-145481000D03*
X125625000Y-148021000D03*
X125625000Y-150561000D03*
X125625000Y-153101000D03*
X125625000Y-155641000D03*
X125625000Y-158181000D03*
X125625000Y-160721000D03*
X125625000Y-163261000D03*
X125625000Y-165801000D03*
X125625000Y-168341000D03*
%TD*%
%TO.C,U6*%
X157735000Y-121886000D03*
X157735000Y-124426000D03*
X157735000Y-126966000D03*
X157735000Y-129506000D03*
X157735000Y-119346000D03*
X157735000Y-116806000D03*
X157735000Y-114266000D03*
X157735000Y-111726000D03*
X157735000Y-109186000D03*
X157735000Y-106646000D03*
X157735000Y-104106000D03*
X180595000Y-129506000D03*
X180595000Y-126966000D03*
X180595000Y-124426000D03*
X180595000Y-121886000D03*
X180595000Y-119346000D03*
X180595000Y-116806000D03*
X180595000Y-114266000D03*
X180595000Y-111726000D03*
X180595000Y-109186000D03*
X180595000Y-106646000D03*
X180595000Y-104106000D03*
%TD*%
%TO.C,U5*%
X129735000Y-121886000D03*
X129735000Y-124426000D03*
X129735000Y-126966000D03*
X129735000Y-129506000D03*
X129735000Y-119346000D03*
X129735000Y-116806000D03*
X129735000Y-114266000D03*
X129735000Y-111726000D03*
X129735000Y-109186000D03*
X129735000Y-106646000D03*
X129735000Y-104106000D03*
X152595000Y-129506000D03*
X152595000Y-126966000D03*
X152595000Y-124426000D03*
X152595000Y-121886000D03*
X152595000Y-119346000D03*
X152595000Y-116806000D03*
X152595000Y-114266000D03*
X152595000Y-111726000D03*
X152595000Y-109186000D03*
X152595000Y-106646000D03*
X152595000Y-104106000D03*
%TD*%
%TO.C,U4*%
X101735000Y-121886000D03*
X101735000Y-124426000D03*
X101735000Y-126966000D03*
X101735000Y-129506000D03*
X101735000Y-119346000D03*
X101735000Y-116806000D03*
X101735000Y-114266000D03*
X101735000Y-111726000D03*
X101735000Y-109186000D03*
X101735000Y-106646000D03*
X101735000Y-104106000D03*
X124595000Y-129506000D03*
X124595000Y-126966000D03*
X124595000Y-124426000D03*
X124595000Y-121886000D03*
X124595000Y-119346000D03*
X124595000Y-116806000D03*
X124595000Y-114266000D03*
X124595000Y-111726000D03*
X124595000Y-109186000D03*
X124595000Y-106646000D03*
X124595000Y-104106000D03*
%TD*%
%TO.C,U3*%
X73735000Y-121886000D03*
X73735000Y-124426000D03*
X73735000Y-126966000D03*
X73735000Y-129506000D03*
X73735000Y-119346000D03*
X73735000Y-116806000D03*
X73735000Y-114266000D03*
X73735000Y-111726000D03*
X73735000Y-109186000D03*
X73735000Y-106646000D03*
X73735000Y-104106000D03*
X96595000Y-129506000D03*
X96595000Y-126966000D03*
X96595000Y-124426000D03*
X96595000Y-121886000D03*
X96595000Y-119346000D03*
X96595000Y-116806000D03*
X96595000Y-114266000D03*
X96595000Y-111726000D03*
X96595000Y-109186000D03*
X96595000Y-106646000D03*
X96595000Y-104106000D03*
%TD*%
D15*
%TO.C,*%
X45024400Y-276803000D03*
%TD*%
%TO.C,*%
X212105000Y-70428000D03*
%TD*%
D14*
%TO.C,U1*%
X31395000Y-98231000D03*
X31395000Y-100771000D03*
X31395000Y-103311000D03*
X31395000Y-105851000D03*
X31395000Y-108391000D03*
X31395000Y-110931000D03*
X33935000Y-98231000D03*
X33935000Y-100771000D03*
X33935000Y-103311000D03*
X33935000Y-105851000D03*
X33935000Y-108391000D03*
X33935000Y-110931000D03*
X31395000Y-113471000D03*
X33935000Y-113471000D03*
X31395000Y-116011000D03*
X31395000Y-118551000D03*
X31395000Y-121091000D03*
X31395000Y-123631000D03*
X31395000Y-126171000D03*
X31395000Y-128711000D03*
X33935000Y-116011000D03*
X33935000Y-118551000D03*
X33935000Y-121091000D03*
X33935000Y-123631000D03*
X33935000Y-126171000D03*
X33935000Y-128711000D03*
X31395000Y-131251000D03*
X33935000Y-131251000D03*
X31395000Y-133791000D03*
X31395000Y-136331000D03*
X31395000Y-138871000D03*
X31395000Y-141411000D03*
X31395000Y-143951000D03*
X31395000Y-146491000D03*
X33935000Y-133791000D03*
X33935000Y-136331000D03*
X33935000Y-138871000D03*
X33935000Y-141411000D03*
X33935000Y-143951000D03*
D16*
X33935000Y-146491000D03*
D15*
X32665000Y-151361000D03*
X32665000Y-93361000D03*
%TD*%
D17*
%TO.C,J2*%
X123765000Y-70441000D03*
X104865000Y-70441000D03*
D18*
X108865000Y-79341000D03*
X119765000Y-79341000D03*
%TD*%
D15*
%TO.C,*%
X192420000Y-273651000D03*
%TD*%
D19*
%TO.C,J38*%
X92725000Y-92041000D03*
X95265000Y-92041000D03*
X97805000Y-92041000D03*
X100345000Y-92041000D03*
X102885000Y-92041000D03*
X105425000Y-92041000D03*
X107965000Y-92041000D03*
X110505000Y-92041000D03*
X113045000Y-92041000D03*
D20*
X115585000Y-92041000D03*
%TD*%
D19*
%TO.C,JP1*%
X209565000Y-95216000D03*
D20*
X209565000Y-97756000D03*
%TD*%
D21*
%TO.C,J37*%
X186705000Y-88271000D03*
G36*
G01*
X187455000Y-91621000D02*
X185955000Y-91621000D01*
G75*
G02*
X185705000Y-91371000I0J250000D01*
G01*
X185705000Y-90171000D01*
G75*
G02*
X185955000Y-89921000I250000J0D01*
G01*
X187455000Y-89921000D01*
G75*
G02*
X187705000Y-90171000I0J-250000D01*
G01*
X187705000Y-91371000D01*
G75*
G02*
X187455000Y-91621000I-250000J0D01*
G01*
G37*
%TD*%
%TO.C,J36*%
X175275000Y-88271000D03*
G36*
G01*
X176025000Y-91621000D02*
X174525000Y-91621000D01*
G75*
G02*
X174275000Y-91371000I0J250000D01*
G01*
X174275000Y-90171000D01*
G75*
G02*
X174525000Y-89921000I250000J0D01*
G01*
X176025000Y-89921000D01*
G75*
G02*
X176275000Y-90171000I0J-250000D01*
G01*
X176275000Y-91371000D01*
G75*
G02*
X176025000Y-91621000I-250000J0D01*
G01*
G37*
%TD*%
D22*
%TO.C,J1*%
X96535000Y-80451000D03*
X96535000Y-77951000D03*
X96535000Y-75451000D03*
X96535000Y-72951000D03*
G36*
G01*
X95810000Y-69601000D02*
X97260000Y-69601000D01*
G75*
G02*
X97510000Y-69851000I0J-250000D01*
G01*
X97510000Y-71051000D01*
G75*
G02*
X97260000Y-71301000I-250000J0D01*
G01*
X95810000Y-71301000D01*
G75*
G02*
X95560000Y-71051000I0J250000D01*
G01*
X95560000Y-69851000D01*
G75*
G02*
X95810000Y-69601000I250000J0D01*
G01*
G37*
%TD*%
D23*
%TO.C,J11*%
X197841000Y-136457000D03*
X200381000Y-136457000D03*
X202921000Y-136457000D03*
X205461000Y-136457000D03*
%TD*%
D24*
%TO.C,R91*%
X206089000Y-247257000D03*
D25*
X203549000Y-247257000D03*
%TD*%
D24*
%TO.C,R90*%
X206089000Y-243447000D03*
D25*
X203549000Y-243447000D03*
%TD*%
D24*
%TO.C,R89*%
X206089000Y-251067000D03*
D25*
X203549000Y-251067000D03*
%TD*%
D24*
%TO.C,R88*%
X178089000Y-247257000D03*
D25*
X175549000Y-247257000D03*
%TD*%
D24*
%TO.C,R87*%
X178089000Y-243447000D03*
D25*
X175549000Y-243447000D03*
%TD*%
D24*
%TO.C,R86*%
X178089000Y-251067000D03*
D25*
X175549000Y-251067000D03*
%TD*%
D24*
%TO.C,R85*%
X150089000Y-247257000D03*
D25*
X147549000Y-247257000D03*
%TD*%
D24*
%TO.C,R84*%
X150089000Y-243447000D03*
D25*
X147549000Y-243447000D03*
%TD*%
D24*
%TO.C,R83*%
X150089000Y-251067000D03*
D25*
X147549000Y-251067000D03*
%TD*%
D24*
%TO.C,R82*%
X122089000Y-247257000D03*
D25*
X119549000Y-247257000D03*
%TD*%
D24*
%TO.C,R81*%
X122089000Y-243447000D03*
D25*
X119549000Y-243447000D03*
%TD*%
D24*
%TO.C,R80*%
X122089000Y-251067000D03*
D25*
X119549000Y-251067000D03*
%TD*%
D24*
%TO.C,R79*%
X94089000Y-247257000D03*
D25*
X91549000Y-247257000D03*
%TD*%
D24*
%TO.C,R78*%
X94089000Y-243447000D03*
D25*
X91549000Y-243447000D03*
%TD*%
D24*
%TO.C,R77*%
X94089000Y-251067000D03*
D25*
X91549000Y-251067000D03*
%TD*%
D24*
%TO.C,R76*%
X66089000Y-247257000D03*
D25*
X63549000Y-247257000D03*
%TD*%
D24*
%TO.C,R75*%
X66089000Y-243447000D03*
D25*
X63549000Y-243447000D03*
%TD*%
D24*
%TO.C,R74*%
X66089000Y-251067000D03*
D25*
X63549000Y-251067000D03*
%TD*%
D24*
%TO.C,R73*%
X45401000Y-233905000D03*
D25*
X47941000Y-233905000D03*
%TD*%
D24*
%TO.C,R72*%
X45401000Y-237715000D03*
D25*
X47941000Y-237715000D03*
%TD*%
D24*
%TO.C,R71*%
X45401000Y-230095000D03*
D25*
X47941000Y-230095000D03*
%TD*%
D24*
%TO.C,R70*%
X73401000Y-233905000D03*
D25*
X75941000Y-233905000D03*
%TD*%
D24*
%TO.C,R69*%
X73401000Y-237715000D03*
D25*
X75941000Y-237715000D03*
%TD*%
D24*
%TO.C,R68*%
X73401000Y-230095000D03*
D25*
X75941000Y-230095000D03*
%TD*%
D24*
%TO.C,R67*%
X101401000Y-233905000D03*
D25*
X103941000Y-233905000D03*
%TD*%
D24*
%TO.C,R66*%
X101401000Y-237715000D03*
D25*
X103941000Y-237715000D03*
%TD*%
D24*
%TO.C,R65*%
X101401000Y-230095000D03*
D25*
X103941000Y-230095000D03*
%TD*%
D24*
%TO.C,R64*%
X129401000Y-233905000D03*
D25*
X131941000Y-233905000D03*
%TD*%
D24*
%TO.C,R63*%
X129401000Y-237715000D03*
D25*
X131941000Y-237715000D03*
%TD*%
D24*
%TO.C,R62*%
X129401000Y-230095000D03*
D25*
X131941000Y-230095000D03*
%TD*%
D24*
%TO.C,R61*%
X157401000Y-233905000D03*
D25*
X159941000Y-233905000D03*
%TD*%
D24*
%TO.C,R60*%
X157401000Y-237715000D03*
D25*
X159941000Y-237715000D03*
%TD*%
D24*
%TO.C,R59*%
X157401000Y-230095000D03*
D25*
X159941000Y-230095000D03*
%TD*%
D24*
%TO.C,R58*%
X185401000Y-233905000D03*
D25*
X187941000Y-233905000D03*
%TD*%
D24*
%TO.C,R57*%
X185401000Y-237715000D03*
D25*
X187941000Y-237715000D03*
%TD*%
D24*
%TO.C,R56*%
X185401000Y-230095000D03*
D25*
X187941000Y-230095000D03*
%TD*%
D24*
%TO.C,R55*%
X204819000Y-177607000D03*
D25*
X202279000Y-177607000D03*
%TD*%
D24*
%TO.C,R54*%
X204819000Y-173797000D03*
D25*
X202279000Y-173797000D03*
%TD*%
D24*
%TO.C,R53*%
X204819000Y-181417000D03*
D25*
X202279000Y-181417000D03*
%TD*%
D24*
%TO.C,R52*%
X176819000Y-177607000D03*
D25*
X174279000Y-177607000D03*
%TD*%
D24*
%TO.C,R51*%
X176819000Y-173797000D03*
D25*
X174279000Y-173797000D03*
%TD*%
D24*
%TO.C,R50*%
X176819000Y-181417000D03*
D25*
X174279000Y-181417000D03*
%TD*%
D24*
%TO.C,R49*%
X148819000Y-177607000D03*
D25*
X146279000Y-177607000D03*
%TD*%
D24*
%TO.C,R48*%
X148819000Y-173797000D03*
D25*
X146279000Y-173797000D03*
%TD*%
D24*
%TO.C,R47*%
X148819000Y-181417000D03*
D25*
X146279000Y-181417000D03*
%TD*%
D24*
%TO.C,R46*%
X120819000Y-177607000D03*
D25*
X118279000Y-177607000D03*
%TD*%
D24*
%TO.C,R45*%
X120819000Y-173797000D03*
D25*
X118279000Y-173797000D03*
%TD*%
D24*
%TO.C,R44*%
X120819000Y-181417000D03*
D25*
X118279000Y-181417000D03*
%TD*%
D24*
%TO.C,R43*%
X92819000Y-177607000D03*
D25*
X90279000Y-177607000D03*
%TD*%
D24*
%TO.C,R42*%
X92819000Y-173797000D03*
D25*
X90279000Y-173797000D03*
%TD*%
D24*
%TO.C,R41*%
X92819000Y-181417000D03*
D25*
X90279000Y-181417000D03*
%TD*%
D24*
%TO.C,R40*%
X64819000Y-177607000D03*
D25*
X62279000Y-177607000D03*
%TD*%
D24*
%TO.C,R39*%
X64819000Y-173797000D03*
D25*
X62279000Y-173797000D03*
%TD*%
D24*
%TO.C,R38*%
X64819000Y-181417000D03*
D25*
X62279000Y-181417000D03*
%TD*%
D24*
%TO.C,R37*%
X45401000Y-164490000D03*
D25*
X47941000Y-164490000D03*
%TD*%
D24*
%TO.C,R36*%
X45401000Y-168300000D03*
D25*
X47941000Y-168300000D03*
%TD*%
D24*
%TO.C,R35*%
X45401000Y-160680000D03*
D25*
X47941000Y-160680000D03*
%TD*%
D24*
%TO.C,R34*%
X73401000Y-164490000D03*
D25*
X75941000Y-164490000D03*
%TD*%
D24*
%TO.C,R33*%
X73401000Y-168300000D03*
D25*
X75941000Y-168300000D03*
%TD*%
D24*
%TO.C,R32*%
X73401000Y-160680000D03*
D25*
X75941000Y-160680000D03*
%TD*%
D24*
%TO.C,R31*%
X101401000Y-164490000D03*
D25*
X103941000Y-164490000D03*
%TD*%
D24*
%TO.C,R30*%
X101401000Y-168300000D03*
D25*
X103941000Y-168300000D03*
%TD*%
D24*
%TO.C,R29*%
X101401000Y-160680000D03*
D25*
X103941000Y-160680000D03*
%TD*%
D24*
%TO.C,R28*%
X129401000Y-164490000D03*
D25*
X131941000Y-164490000D03*
%TD*%
D24*
%TO.C,R27*%
X129401000Y-168300000D03*
D25*
X131941000Y-168300000D03*
%TD*%
D24*
%TO.C,R26*%
X129401000Y-160680000D03*
D25*
X131941000Y-160680000D03*
%TD*%
D24*
%TO.C,R25*%
X157401000Y-164490000D03*
D25*
X159941000Y-164490000D03*
%TD*%
D24*
%TO.C,R24*%
X157401000Y-168300000D03*
D25*
X159941000Y-168300000D03*
%TD*%
D24*
%TO.C,R23*%
X157401000Y-160680000D03*
D25*
X159941000Y-160680000D03*
%TD*%
D24*
%TO.C,R22*%
X185401000Y-164490000D03*
D25*
X187941000Y-164490000D03*
%TD*%
D24*
%TO.C,R21*%
X185401000Y-168300000D03*
D25*
X187941000Y-168300000D03*
%TD*%
D24*
%TO.C,R20*%
X185401000Y-160680000D03*
D25*
X187941000Y-160680000D03*
%TD*%
D24*
%TO.C,R19*%
X204819000Y-107957000D03*
D25*
X202279000Y-107957000D03*
%TD*%
D24*
%TO.C,R18*%
X204819000Y-104147000D03*
D25*
X202279000Y-104147000D03*
%TD*%
D24*
%TO.C,R17*%
X204819000Y-111767000D03*
D25*
X202279000Y-111767000D03*
%TD*%
D24*
%TO.C,R16*%
X176819000Y-107957000D03*
D25*
X174279000Y-107957000D03*
%TD*%
D24*
%TO.C,R15*%
X176819000Y-104147000D03*
D25*
X174279000Y-104147000D03*
%TD*%
D24*
%TO.C,R14*%
X176819000Y-111767000D03*
D25*
X174279000Y-111767000D03*
%TD*%
D24*
%TO.C,R13*%
X148819000Y-107957000D03*
D25*
X146279000Y-107957000D03*
%TD*%
D24*
%TO.C,R12*%
X148819000Y-104147000D03*
D25*
X146279000Y-104147000D03*
%TD*%
D24*
%TO.C,R11*%
X148819000Y-111767000D03*
D25*
X146279000Y-111767000D03*
%TD*%
D24*
%TO.C,R10*%
X120819000Y-107957000D03*
D25*
X118279000Y-107957000D03*
%TD*%
D24*
%TO.C,R9*%
X120819000Y-104147000D03*
D25*
X118279000Y-104147000D03*
%TD*%
D24*
%TO.C,R8*%
X120819000Y-111767000D03*
D25*
X118279000Y-111767000D03*
%TD*%
D24*
%TO.C,R7*%
X92819000Y-107957000D03*
D25*
X90279000Y-107957000D03*
%TD*%
D24*
%TO.C,R6*%
X92819000Y-104147000D03*
D25*
X90279000Y-104147000D03*
%TD*%
D24*
%TO.C,R5*%
X92819000Y-111767000D03*
D25*
X90279000Y-111767000D03*
%TD*%
D24*
%TO.C,R4*%
X64819000Y-107957000D03*
D25*
X62279000Y-107957000D03*
%TD*%
D24*
%TO.C,R3*%
X64819000Y-104147000D03*
D25*
X62279000Y-104147000D03*
%TD*%
D24*
%TO.C,R2*%
X64819000Y-111767000D03*
D25*
X62279000Y-111767000D03*
%TD*%
D23*
%TO.C,J35*%
X199111000Y-275757000D03*
X201651000Y-275757000D03*
X204191000Y-275757000D03*
X206731000Y-275757000D03*
%TD*%
%TO.C,J34*%
X171111000Y-275757000D03*
X173651000Y-275757000D03*
X176191000Y-275757000D03*
X178731000Y-275757000D03*
%TD*%
%TO.C,J33*%
X143111000Y-275757000D03*
X145651000Y-275757000D03*
X148191000Y-275757000D03*
X150731000Y-275757000D03*
%TD*%
%TO.C,J32*%
X115111000Y-275757000D03*
X117651000Y-275757000D03*
X120191000Y-275757000D03*
X122731000Y-275757000D03*
%TD*%
%TO.C,J31*%
X87111000Y-275757000D03*
X89651000Y-275757000D03*
X92191000Y-275757000D03*
X94731000Y-275757000D03*
%TD*%
%TO.C,J30*%
X59111000Y-275757000D03*
X61651000Y-275757000D03*
X64191000Y-275757000D03*
X66731000Y-275757000D03*
%TD*%
%TO.C,J29*%
X52379000Y-205405000D03*
X49839000Y-205405000D03*
X47299000Y-205405000D03*
X44759000Y-205405000D03*
%TD*%
%TO.C,J28*%
X80379000Y-205405000D03*
X77839000Y-205405000D03*
X75299000Y-205405000D03*
X72759000Y-205405000D03*
%TD*%
%TO.C,J27*%
X108379000Y-205405000D03*
X105839000Y-205405000D03*
X103299000Y-205405000D03*
X100759000Y-205405000D03*
%TD*%
%TO.C,J26*%
X136379000Y-205405000D03*
X133839000Y-205405000D03*
X131299000Y-205405000D03*
X128759000Y-205405000D03*
%TD*%
%TO.C,J25*%
X164379000Y-205405000D03*
X161839000Y-205405000D03*
X159299000Y-205405000D03*
X156759000Y-205405000D03*
%TD*%
%TO.C,J24*%
X192379000Y-205405000D03*
X189839000Y-205405000D03*
X187299000Y-205405000D03*
X184759000Y-205405000D03*
%TD*%
%TO.C,J23*%
X197841000Y-206107000D03*
X200381000Y-206107000D03*
X202921000Y-206107000D03*
X205461000Y-206107000D03*
%TD*%
%TO.C,J22*%
X169841000Y-206107000D03*
X172381000Y-206107000D03*
X174921000Y-206107000D03*
X177461000Y-206107000D03*
%TD*%
%TO.C,J21*%
X141841000Y-206107000D03*
X144381000Y-206107000D03*
X146921000Y-206107000D03*
X149461000Y-206107000D03*
%TD*%
%TO.C,J20*%
X113841000Y-206107000D03*
X116381000Y-206107000D03*
X118921000Y-206107000D03*
X121461000Y-206107000D03*
%TD*%
%TO.C,J19*%
X85841000Y-206107000D03*
X88381000Y-206107000D03*
X90921000Y-206107000D03*
X93461000Y-206107000D03*
%TD*%
%TO.C,J18*%
X57841000Y-206107000D03*
X60381000Y-206107000D03*
X62921000Y-206107000D03*
X65461000Y-206107000D03*
%TD*%
%TO.C,J17*%
X52379000Y-135990000D03*
X49839000Y-135990000D03*
X47299000Y-135990000D03*
X44759000Y-135990000D03*
%TD*%
%TO.C,J16*%
X80379000Y-135990000D03*
X77839000Y-135990000D03*
X75299000Y-135990000D03*
X72759000Y-135990000D03*
%TD*%
%TO.C,J15*%
X108379000Y-135990000D03*
X105839000Y-135990000D03*
X103299000Y-135990000D03*
X100759000Y-135990000D03*
%TD*%
%TO.C,J14*%
X136379000Y-135990000D03*
X133839000Y-135990000D03*
X131299000Y-135990000D03*
X128759000Y-135990000D03*
%TD*%
%TO.C,J13*%
X164379000Y-135990000D03*
X161839000Y-135990000D03*
X159299000Y-135990000D03*
X156759000Y-135990000D03*
%TD*%
%TO.C,J12*%
X192379000Y-135990000D03*
X189839000Y-135990000D03*
X187299000Y-135990000D03*
X184759000Y-135990000D03*
%TD*%
%TO.C,J10*%
X169841000Y-136457000D03*
X172381000Y-136457000D03*
X174921000Y-136457000D03*
X177461000Y-136457000D03*
%TD*%
%TO.C,J9*%
X141841000Y-136457000D03*
X144381000Y-136457000D03*
X146921000Y-136457000D03*
X149461000Y-136457000D03*
%TD*%
%TO.C,J8*%
X113841000Y-136457000D03*
X116381000Y-136457000D03*
X118921000Y-136457000D03*
X121461000Y-136457000D03*
%TD*%
%TO.C,J7*%
X85841000Y-136457000D03*
X88381000Y-136457000D03*
X90921000Y-136457000D03*
X93461000Y-136457000D03*
%TD*%
%TO.C,J6*%
X57841000Y-136457000D03*
X60381000Y-136457000D03*
X62921000Y-136457000D03*
X65461000Y-136457000D03*
%TD*%
D26*
%TO.C,J3*%
X177245000Y-77470000D03*
X179745000Y-77470000D03*
G36*
G01*
X183095000Y-76745000D02*
X183095000Y-78195000D01*
G75*
G02*
X182845000Y-78445000I-250000J0D01*
G01*
X181645000Y-78445000D01*
G75*
G02*
X181395000Y-78195000I0J250000D01*
G01*
X181395000Y-76745000D01*
G75*
G02*
X181645000Y-76495000I250000J0D01*
G01*
X182845000Y-76495000D01*
G75*
G02*
X183095000Y-76745000I0J-250000D01*
G01*
G37*
%TD*%
%TO.C,J4*%
X189945000Y-77470000D03*
X192445000Y-77470000D03*
G36*
G01*
X195795000Y-76745000D02*
X195795000Y-78195000D01*
G75*
G02*
X195545000Y-78445000I-250000J0D01*
G01*
X194345000Y-78445000D01*
G75*
G02*
X194095000Y-78195000I0J250000D01*
G01*
X194095000Y-76745000D01*
G75*
G02*
X194345000Y-76495000I250000J0D01*
G01*
X195545000Y-76495000D01*
G75*
G02*
X195795000Y-76745000I0J-250000D01*
G01*
G37*
%TD*%
D22*
%TO.C,J5*%
X209565000Y-87436000D03*
X209565000Y-84936000D03*
X209565000Y-82436000D03*
X209565000Y-79936000D03*
G36*
G01*
X208840000Y-76586000D02*
X210290000Y-76586000D01*
G75*
G02*
X210540000Y-76836000I0J-250000D01*
G01*
X210540000Y-78036000D01*
G75*
G02*
X210290000Y-78286000I-250000J0D01*
G01*
X208840000Y-78286000D01*
G75*
G02*
X208590000Y-78036000I0J250000D01*
G01*
X208590000Y-76836000D01*
G75*
G02*
X208840000Y-76586000I250000J0D01*
G01*
G37*
%TD*%
D27*
%TO.C,F1*%
X164910000Y-80226000D03*
X161510000Y-80226000D03*
X164910000Y-93696000D03*
X161510000Y-93696000D03*
%TD*%
M02*
