%TF.GenerationSoftware,KiCad,Pcbnew,5.1.8-db9833491~88~ubuntu20.04.1*%
%TF.CreationDate,2020-12-02T17:03:32+01:00*%
%TF.ProjectId,motherboard,6d6f7468-6572-4626-9f61-72642e6b6963,rev?*%
%TF.SameCoordinates,Original*%
%TF.FileFunction,Paste,Top*%
%TF.FilePolarity,Positive*%
%FSLAX46Y46*%
G04 Gerber Fmt 4.6, Leading zero omitted, Abs format (unit mm)*
G04 Created by KiCad (PCBNEW 5.1.8-db9833491~88~ubuntu20.04.1) date 2020-12-02 17:03:32*
%MOMM*%
%LPD*%
G01*
G04 APERTURE LIST*
%ADD10R,2.200000X3.800000*%
%ADD11R,2.200000X1.500000*%
%ADD12R,1.800000X2.500000*%
%ADD13R,0.900000X1.200000*%
%ADD14R,3.050000X2.750000*%
%ADD15R,2.200000X1.200000*%
G04 APERTURE END LIST*
D10*
%TO.C,U31*%
X165979000Y-70451000D03*
D11*
X159679000Y-68151000D03*
X159679000Y-70451000D03*
X159679000Y-72751000D03*
%TD*%
%TO.C,R93*%
G36*
G01*
X135505000Y-97940998D02*
X135505000Y-98841002D01*
G75*
G02*
X135255002Y-99091000I-249998J0D01*
G01*
X134729998Y-99091000D01*
G75*
G02*
X134480000Y-98841002I0J249998D01*
G01*
X134480000Y-97940998D01*
G75*
G02*
X134729998Y-97691000I249998J0D01*
G01*
X135255002Y-97691000D01*
G75*
G02*
X135505000Y-97940998I0J-249998D01*
G01*
G37*
G36*
G01*
X137330000Y-97940998D02*
X137330000Y-98841002D01*
G75*
G02*
X137080002Y-99091000I-249998J0D01*
G01*
X136554998Y-99091000D01*
G75*
G02*
X136305000Y-98841002I0J249998D01*
G01*
X136305000Y-97940998D01*
G75*
G02*
X136554998Y-97691000I249998J0D01*
G01*
X137080002Y-97691000D01*
G75*
G02*
X137330000Y-97940998I0J-249998D01*
G01*
G37*
%TD*%
%TO.C,C2*%
G36*
G01*
X157208000Y-68731000D02*
X156258000Y-68731000D01*
G75*
G02*
X156008000Y-68481000I0J250000D01*
G01*
X156008000Y-67981000D01*
G75*
G02*
X156258000Y-67731000I250000J0D01*
G01*
X157208000Y-67731000D01*
G75*
G02*
X157458000Y-67981000I0J-250000D01*
G01*
X157458000Y-68481000D01*
G75*
G02*
X157208000Y-68731000I-250000J0D01*
G01*
G37*
G36*
G01*
X157208000Y-70631000D02*
X156258000Y-70631000D01*
G75*
G02*
X156008000Y-70381000I0J250000D01*
G01*
X156008000Y-69881000D01*
G75*
G02*
X156258000Y-69631000I250000J0D01*
G01*
X157208000Y-69631000D01*
G75*
G02*
X157458000Y-69881000I0J-250000D01*
G01*
X157458000Y-70381000D01*
G75*
G02*
X157208000Y-70631000I-250000J0D01*
G01*
G37*
%TD*%
%TO.C,C1*%
G36*
G01*
X154160000Y-71271000D02*
X153210000Y-71271000D01*
G75*
G02*
X152960000Y-71021000I0J250000D01*
G01*
X152960000Y-70521000D01*
G75*
G02*
X153210000Y-70271000I250000J0D01*
G01*
X154160000Y-70271000D01*
G75*
G02*
X154410000Y-70521000I0J-250000D01*
G01*
X154410000Y-71021000D01*
G75*
G02*
X154160000Y-71271000I-250000J0D01*
G01*
G37*
G36*
G01*
X154160000Y-73171000D02*
X153210000Y-73171000D01*
G75*
G02*
X152960000Y-72921000I0J250000D01*
G01*
X152960000Y-72421000D01*
G75*
G02*
X153210000Y-72171000I250000J0D01*
G01*
X154160000Y-72171000D01*
G75*
G02*
X154410000Y-72421000I0J-250000D01*
G01*
X154410000Y-72921000D01*
G75*
G02*
X154160000Y-73171000I-250000J0D01*
G01*
G37*
%TD*%
D12*
%TO.C,D1*%
X170195000Y-87501000D03*
X170195000Y-91501000D03*
%TD*%
D13*
%TO.C,D3*%
X204865000Y-76801000D03*
X201565000Y-76801000D03*
%TD*%
D12*
%TO.C,D2*%
X181193200Y-87501000D03*
X181193200Y-91501000D03*
%TD*%
%TO.C,R92*%
G36*
G01*
X193925000Y-94130998D02*
X193925000Y-95031002D01*
G75*
G02*
X193675002Y-95281000I-249998J0D01*
G01*
X193149998Y-95281000D01*
G75*
G02*
X192900000Y-95031002I0J249998D01*
G01*
X192900000Y-94130998D01*
G75*
G02*
X193149998Y-93881000I249998J0D01*
G01*
X193675002Y-93881000D01*
G75*
G02*
X193925000Y-94130998I0J-249998D01*
G01*
G37*
G36*
G01*
X195750000Y-94130998D02*
X195750000Y-95031002D01*
G75*
G02*
X195500002Y-95281000I-249998J0D01*
G01*
X194974998Y-95281000D01*
G75*
G02*
X194725000Y-95031002I0J249998D01*
G01*
X194725000Y-94130998D01*
G75*
G02*
X194974998Y-93881000I249998J0D01*
G01*
X195500002Y-93881000D01*
G75*
G02*
X195750000Y-94130998I0J-249998D01*
G01*
G37*
%TD*%
D14*
%TO.C,Q1*%
X199830000Y-87851000D03*
X203180000Y-84801000D03*
X199830000Y-84801000D03*
X203180000Y-87851000D03*
D15*
X195205000Y-88606000D03*
X195205000Y-84046000D03*
%TD*%
%TO.C,R1*%
G36*
G01*
X170364998Y-76600000D02*
X171265002Y-76600000D01*
G75*
G02*
X171515000Y-76849998I0J-249998D01*
G01*
X171515000Y-77375002D01*
G75*
G02*
X171265002Y-77625000I-249998J0D01*
G01*
X170364998Y-77625000D01*
G75*
G02*
X170115000Y-77375002I0J249998D01*
G01*
X170115000Y-76849998D01*
G75*
G02*
X170364998Y-76600000I249998J0D01*
G01*
G37*
G36*
G01*
X170364998Y-74775000D02*
X171265002Y-74775000D01*
G75*
G02*
X171515000Y-75024998I0J-249998D01*
G01*
X171515000Y-75550002D01*
G75*
G02*
X171265002Y-75800000I-249998J0D01*
G01*
X170364998Y-75800000D01*
G75*
G02*
X170115000Y-75550002I0J249998D01*
G01*
X170115000Y-75024998D01*
G75*
G02*
X170364998Y-74775000I249998J0D01*
G01*
G37*
%TD*%
M02*
