%TF.GenerationSoftware,KiCad,Pcbnew,5.1.8-db9833491~88~ubuntu20.04.1*%
%TF.CreationDate,2020-12-02T17:03:32+01:00*%
%TF.ProjectId,motherboard,6d6f7468-6572-4626-9f61-72642e6b6963,rev?*%
%TF.SameCoordinates,Original*%
%TF.FileFunction,Profile,NP*%
%FSLAX46Y46*%
G04 Gerber Fmt 4.6, Leading zero omitted, Abs format (unit mm)*
G04 Created by KiCad (PCBNEW 5.1.8-db9833491~88~ubuntu20.04.1) date 2020-12-02 17:03:32*
%MOMM*%
%LPD*%
G01*
G04 APERTURE LIST*
%TA.AperFunction,Profile*%
%ADD10C,0.050000*%
%TD*%
G04 APERTURE END LIST*
D10*
X36210000Y-283811000D02*
X36210000Y-282541000D01*
X220995000Y-283811000D02*
X220995000Y-282541000D01*
X40020000Y-287621000D02*
X217185000Y-287621000D01*
X220995000Y-282541000D02*
X220995000Y-280636000D01*
X220995000Y-283811000D02*
G75*
G02*
X217185000Y-287621000I-3810000J0D01*
G01*
X36210000Y-282541000D02*
X36210000Y-280001000D01*
X220995000Y-70451000D02*
X220995000Y-280636000D01*
X212105000Y-66641000D02*
X217185000Y-66641000D01*
X26685000Y-157446000D02*
X36210000Y-170146000D01*
X26685000Y-152366000D02*
X26685000Y-157446000D01*
X36210000Y-170146000D02*
X36210000Y-280001000D01*
X87645000Y-87596000D02*
X87645000Y-69181000D01*
X29225000Y-89501000D02*
X85740000Y-89501000D01*
X26685000Y-152366000D02*
X26685000Y-92041000D01*
X40020000Y-287621000D02*
G75*
G02*
X36210000Y-283811000I0J3810000D01*
G01*
X26685000Y-92041000D02*
G75*
G02*
X29225000Y-89501000I2540000J0D01*
G01*
X87645000Y-87596000D02*
G75*
G02*
X85740000Y-89501000I-1905000J0D01*
G01*
X90185000Y-66641000D02*
X212105000Y-66641000D01*
X87645000Y-69181000D02*
G75*
G02*
X90185000Y-66641000I2540000J0D01*
G01*
X217185000Y-66641000D02*
G75*
G02*
X220995000Y-70451000I0J-3810000D01*
G01*
M02*
